<?xml version="1.0" encoding="UTF-8"?>
<!DOCTYPE svg PUBLIC "-//W3C//DTD SVG 1.1//EN" "http://www.w3.org/Graphics/SVG/1.1/DTD/svg11.dtd">
<!-- Creator: CorelDRAW 2018 (64-Bit) -->
<svg xmlns="http://www.w3.org/2000/svg" xml:space="preserve" width="151.283mm" height="151.283mm" version="1.1" style="shape-rendering:geometricPrecision; text-rendering:geometricPrecision; image-rendering:optimizeQuality; fill-rule:evenodd; clip-rule:evenodd"
viewBox="0 0 15127.7 15127.7"
 xmlns:xlink="http://www.w3.org/1999/xlink">
 <defs>
  <style type="text/css">
   <![CDATA[
    .fil0 {fill:#262626;fill-rule:nonzero}
   ]]>
  </style>
 </defs>
 <g id="Layer_x0020_1">
  <metadata id="CorelCorpID_0Corel-Layer"/>
  <path class="fil0" d="M7011.84 4027.07c0,-304.51 247.5,-552.01 552.02,-552.01 304.51,0 552.01,247.5 552.01,552.01l0 2984.76 2984.76 0c304.51,0 552.01,247.5 552.01,552.01 0,304.52 -247.5,552.02 -552.01,552.02l-2984.76 0 0 2984.76c0,304.51 -247.5,552.01 -552.01,552.01 -304.52,0 -552.02,-247.5 -552.02,-552.01l0 -2984.76 -2984.75 0c-304.52,0 -552.02,-247.5 -552.02,-552.02 0,-304.51 247.5,-552.01 552.02,-552.01l2984.75 0 0 -2984.76zm552.02 -4027.07c2084.63,0 3976.1,846.46 5345.74,2215.43 1371.65,1372.32 2218.11,3263.78 2218.11,5348.42 0,2085.98 -846.46,3976.11 -2215.43,5345.75 -1372.32,1371.65 -3263.78,2218.11 -5348.42,2218.11 -2087.32,0 -3978.12,-847.14 -5346.42,-2215.43 -1370.3,-1370.31 -2217.44,-3261.1 -2217.44,-5348.43 0,-2087.31 847.14,-3977.44 2215.43,-5346.41 1370.31,-1370.31 3261.1,-2217.44 5348.43,-2217.44zm4569.02 2994.82c-1168.42,-1168.42 -2784.21,-1890.8 -4569.02,-1890.8 -1784.83,0 -3400.62,722.38 -4569.7,1890.13 -1167.75,1169.09 -1890.12,2784.88 -1890.12,4569.69 0,1784.83 722.37,3400.62 1890.12,4569.7 1169.09,1167.75 2784.88,1890.12 4569.7,1890.12 1784.82,0 3400.61,-722.37 4567.68,-1890.12 1169.76,-1169.09 1892.14,-2784.21 1892.14,-4569.7 0,-1784.82 -722.38,-3400.61 -1890.8,-4569.02z"/>
 </g>
</svg>
