<?xml version="1.0" encoding="UTF-8"?>
<!DOCTYPE svg PUBLIC "-//W3C//DTD SVG 1.1//EN" "http://www.w3.org/Graphics/SVG/1.1/DTD/svg11.dtd">
<!-- Creator: CorelDRAW 2018 (64-Bit) -->
<svg xmlns="http://www.w3.org/2000/svg" xml:space="preserve" width="9.849mm" height="9.849mm" version="1.1" style="shape-rendering:geometricPrecision; text-rendering:geometricPrecision; image-rendering:optimizeQuality; fill-rule:evenodd; clip-rule:evenodd"
viewBox="0 0 143.06 143.06"
 xmlns:xlink="http://www.w3.org/1999/xlink">
 <defs>
  <style type="text/css">
   <![CDATA[
    .fil0 {fill:#0E8694}
   ]]>
  </style>
 </defs>
 <g id="Layer_x0020_1">
  <metadata id="CorelCorpID_0Corel-Layer"/>
  <g id="_2540116130192">
   <path class="fil0" d="M71.53 0c-19.04,0 -37.12,7.5 -50.58,20.95 -13.46,13.45 -20.95,31.55 -20.95,50.58 0,19.04 7.5,37.12 20.96,50.58 13.46,13.46 31.53,20.95 50.57,20.95 19.03,0 37.12,-7.5 50.57,-20.96 13.45,-13.46 20.96,-31.53 20.96,-50.57 0,-19.03 -7.49,-37.12 -20.95,-50.58 -13.46,-13.46 -31.55,-20.95 -50.58,-20.95zm47.47 24.06c12.63,12.63 19.66,29.61 19.66,47.47 0,17.87 -7.03,34.84 -19.66,47.47 -12.63,12.62 -29.61,19.66 -47.47,19.66 -17.87,0 -34.85,-7.03 -47.49,-19.66 -12.63,-12.63 -19.65,-29.61 -19.65,-47.47 0,-17.87 7.04,-34.85 19.66,-47.49 12.63,-12.63 29.61,-19.65 47.47,-19.65 17.86,0 34.84,7.04 47.47,19.66z"/>
   <path class="fil0" d="M42.08 60.16c-3.45,0 -6.27,2.82 -6.27,6.27 0,3.45 2.82,6.27 6.27,6.27 3.45,0 6.27,-2.82 6.27,-6.27 0,-3.45 -2.82,-6.27 -6.27,-6.27zm78.93 -6.08c-0.32,-1.33 -1.14,-2.45 -2.31,-3.17 -1.17,-0.72 -2.54,-0.93 -3.81,-0.63l-21.07 4.32c-1.33,0.32 -2.46,1.14 -3.17,2.31 -0.57,0.94 -0.81,2 -0.72,3.08l-11.61 0c-4.96,-3.69 -9.56,-4.08 -15.67,-1.35 -2.23,1 -4.45,1.92 -6.38,2.69 -0.06,-0.36 -0.16,-0.73 -0.3,-1.07 -0.52,-1.26 -1.5,-2.25 -2.76,-2.77 -0.06,-0.02 -0.13,-0.05 -0.19,-0.06l-24.17 -7.38c-1.23,-0.48 -2.59,-0.47 -3.82,0.03 -1.26,0.52 -2.25,1.5 -2.77,2.76 -0.1,0.25 -0.16,0.51 -0.16,0.78 0,0.35 0,0.72 0,1.07 0.01,2.01 0.01,4.03 0.02,6.05 0.01,2.77 0.02,5.55 0.03,8.32 0.01,2.35 0.02,4.7 0.03,7.05 0,0.65 0,1.29 0.01,1.95 0,0.99 -0.22,1.96 -0.21,2.97 0.01,1.07 0.3,2.14 0.93,3.02 0.28,0.39 0.61,0.74 0.98,1.03 0.11,0.09 1.2,0.68 1.2,0.71 0,0 13.86,5.79 13.86,5.79 0.63,0.26 1.3,0.4 1.97,0.4 0.66,0 1.31,-0.12 1.95,-0.39 0.3,-0.12 0.59,-0.28 0.87,-0.46l1.36 0.91c0,2.12 0.91,4.13 2.59,5.57 1.14,0.98 2.48,1.59 3.89,1.79 0.74,1.14 1.81,2.1 3.13,2.75 1.28,0.65 2.68,0.97 4.04,0.94 0.96,1.32 2.3,2.37 3.79,2.94 1.37,0.53 2.82,0.66 4.18,0.36 1.12,0.61 2.5,0.93 4.12,0.93 2.62,0 5.63,-1.36 7.01,-2.26 1.51,-0.99 9.06,-6.66 15.34,-11.92 1.12,-0.93 2.67,-2.57 4.21,-4.17l0.03 -0.04c0.33,0.39 0.71,0.73 1.16,1.01 0.81,0.5 1.73,0.76 2.67,0.76 0.4,0 0.8,-0.05 1.2,-0.15l14.61 -3.5c1.33,-0.32 2.46,-1.14 3.17,-2.31 0.42,-0.69 0.68,-1.48 0.75,-2.28 0.07,-0.82 -0.08,-1.66 -0.07,-2.48 0.01,-1.53 0.02,-3.08 0.03,-4.61 0.01,-2.18 0.03,-4.36 0.04,-6.55 0.01,-2.26 0.03,-4.52 0.04,-6.78 0.01,-1.77 0.02,-3.55 0.03,-5.32 0,-0.72 0.01,-1.44 0.01,-2.15 0.01,-0.17 -0.01,-0.33 -0.05,-0.49zm-56.7 8.22c5.29,-2.37 8.33,-1.55 11.52,0.81 0.23,0.34 0.56,0.61 0.96,0.75 0.92,0.75 1.91,1.66 3.12,2.88 2.33,2.35 4.53,6.2 4.01,8.36 -0.18,0.76 -0.7,1.28 -1.53,1.56 -2.37,0.78 -4.48,0.35 -6.29,-1.26l-6.8 -6.1c-0.03,-0.03 -0.07,-0.05 -0.11,-0.08 -0.05,-0.04 -0.11,-0.08 -0.17,-0.11 -0.05,-0.03 -0.11,-0.06 -0.17,-0.09 -0.06,-0.03 -0.13,-0.06 -0.19,-0.08 -0.06,-0.02 -0.11,-0.04 -0.18,-0.05 -0.06,-0.02 -0.14,-0.03 -0.2,-0.04 -0.06,-0.01 -0.11,-0.01 -0.18,-0.02 -0.07,0 -0.14,-0.01 -0.21,-0.01 -0.05,0 -0.1,0.01 -0.17,0.01 -0.07,0.01 -0.15,0.02 -0.22,0.03 -0.05,0.01 -0.09,0.03 -0.15,0.04 -0.07,0.02 -0.15,0.05 -0.22,0.08 -0.04,0.02 -0.08,0.04 -0.12,0.07 -0.07,0.04 -0.15,0.08 -0.21,0.12 -0.04,0.03 -0.07,0.06 -0.11,0.09 -0.04,0.04 -0.09,0.07 -0.14,0.11 -1.74,1.74 -4.54,4 -7.55,6.45l-0.08 0.06c-4.64,3.75 -9.44,7.64 -11.87,10.89 -0.3,0.41 -0.56,0.8 -0.79,1.2l-0.2 -0.14 9.1 -21.8c2.38,-0.9 5.75,-2.23 9.13,-3.74zm-22.94 25.57c-0.27,0.11 -0.57,0.11 -0.85,0l-13.86 -5.79c-0.38,-0.16 -0.6,-0.48 -0.65,-0.89 -0.1,-0.9 0.21,-1.83 0.21,-2.74 0,0 -0.09,-24.34 -0.09,-24.34 0.11,-0.15 0.27,-0.26 0.45,-0.33 0.27,-0.11 0.57,-0.11 0.84,0 0.06,0.02 0.12,0.05 0.19,0.06l24.14 7.35c0.52,0.26 0.75,0.88 0.53,1.42l-10.29 24.65c-0.14,0.28 -0.34,0.49 -0.63,0.6zm53.1 -1.66c-1.44,1.5 -2.92,3.04 -3.86,3.84 -6.16,5.16 -13.5,10.69 -14.96,11.64 -0.94,0.61 -3.02,1.49 -4.54,1.58l9.97 -8.81c0.84,-0.73 0.91,-2 0.18,-2.84 -0.73,-0.84 -2,-0.91 -2.84,-0.18l-12.37 10.95c-0.66,0.19 -1.36,0.16 -2.06,-0.11 -0.56,-0.22 -1.07,-0.57 -1.51,-1.01l13.5 -11.7c0.83,-0.73 0.93,-1.99 0.2,-2.83 -0.73,-0.83 -1.99,-0.93 -2.83,-0.2l-14.41 12.49c-0.78,0.07 -1.65,-0.09 -2.42,-0.48 -0.42,-0.21 -0.77,-0.47 -1.06,-0.76l14.34 -12.8c0.82,-0.74 0.9,-2 0.17,-2.84 -0.74,-0.82 -2,-0.9 -2.84,-0.17l-15.02 13.39c-0.63,-0.09 -1.24,-0.38 -1.78,-0.85 -0.95,-0.81 -1.37,-1.97 -1.15,-3.15 0,-0.02 0.01,-0.03 0.01,-0.05 0.05,-0.28 0.16,-0.58 0.3,-0.89 0.19,-0.37 0.45,-0.8 0.8,-1.27 2.13,-2.85 6.73,-6.57 11.18,-10.18l0.14 -0.1c2.38,-1.92 4.65,-3.77 6.43,-5.37l5.41 4.85c1.97,1.76 4.29,2.66 6.76,2.66 1.14,0 2.29,-0.19 3.46,-0.57 2.16,-0.71 3.68,-2.32 4.18,-4.44 1.04,-4.4 -2.58,-9.55 -5,-12.03l7.98 0 5 20.83c-0.02,0.02 -0.05,0.04 -0.08,0.07l-1.28 1.33zm22.58 -30.82c-0.01,1.28 -0.02,2.57 -0.02,3.85 -0.01,2.04 -0.02,4.1 -0.04,6.14 -0.01,2.26 -0.03,4.52 -0.04,6.79 -0.01,1.93 -0.02,3.87 -0.03,5.8 0,0.67 -0.01,1.35 -0.01,2.01 0,0.23 0,0.46 0,0.7 0,0.53 0.16,1.08 0.05,1.61 -0.18,0.81 -1.04,0.9 -1.72,1.06 -1.66,0.4 -3.31,0.79 -4.96,1.19 -1.96,0.47 -3.93,0.94 -5.89,1.41 -0.95,0.23 -1.9,0.46 -2.85,0.69 -0.29,0.07 -0.58,0.02 -0.83,-0.14 -0.25,-0.16 -0.43,-0.4 -0.5,-0.69l-6.24 -25.99c-0.07,-0.29 -0.02,-0.58 0.14,-0.83 0.16,-0.25 0.4,-0.43 0.63,-0.48l21.08 -4.32c0.08,-0.02 0.18,-0.03 0.26,-0.03 0.44,0 0.85,0.26 1.02,0.68 -0.03,0.19 -0.03,0.38 -0.03,0.55zm-13.59 3.36c-3.45,0 -6.27,2.82 -6.27,6.27 0,3.45 2.82,6.27 6.27,6.27 3.45,0 6.27,-2.82 6.27,-6.27 0,-3.45 -2.82,-6.27 -6.27,-6.27zm0 8.53c-1.24,0 -2.25,-1.01 -2.25,-2.25 0,-1.24 1.01,-2.25 2.25,-2.25 1.24,0 2.25,1.01 2.25,2.25 0,1.24 -1.01,2.25 -2.25,2.25zm-61.38 1.41c-1.24,0 -2.25,-1.01 -2.25,-2.25 0,-1.24 1.01,-2.25 2.25,-2.25 1.24,0 2.25,1.01 2.25,2.25 0,1.24 -1.01,2.25 -2.25,2.25z"/>
  </g>
 </g>
</svg>
