<?xml version="1.0" encoding="UTF-8"?>
<!DOCTYPE svg PUBLIC "-//W3C//DTD SVG 1.1//EN" "http://www.w3.org/Graphics/SVG/1.1/DTD/svg11.dtd">
<!-- Creator: CorelDRAW 2018 (64-Bit) -->
<svg xmlns="http://www.w3.org/2000/svg" xml:space="preserve" width="9.849mm" height="9.849mm" version="1.1" style="shape-rendering:geometricPrecision; text-rendering:geometricPrecision; image-rendering:optimizeQuality; fill-rule:evenodd; clip-rule:evenodd"
viewBox="0 0 143.06 143.06"
 xmlns:xlink="http://www.w3.org/1999/xlink">
 <defs>
  <style type="text/css">
   <![CDATA[
    .fil0 {fill:#0E8694}
   ]]>
  </style>
 </defs>
 <g id="Layer_x0020_1">
  <metadata id="CorelCorpID_0Corel-Layer"/>
  <g id="_2540114556672">
   <path class="fil0" d="M71.53 0c-19.04,0 -37.12,7.5 -50.58,20.95 -13.46,13.45 -20.95,31.55 -20.95,50.58 0,19.04 7.5,37.12 20.96,50.58 13.46,13.46 31.53,20.95 50.57,20.95 19.03,0 37.12,-7.5 50.57,-20.96 13.45,-13.46 20.96,-31.53 20.96,-50.57 0,-19.03 -7.49,-37.12 -20.95,-50.58 -13.46,-13.46 -31.55,-20.95 -50.58,-20.95zm47.47 24.06c12.63,12.63 19.66,29.61 19.66,47.47 0,17.87 -7.03,34.84 -19.66,47.47 -12.63,12.62 -29.61,19.66 -47.47,19.66 -17.87,0 -34.85,-7.03 -47.49,-19.66 -12.63,-12.63 -19.65,-29.61 -19.65,-47.47 0,-17.87 7.04,-34.85 19.66,-47.49 12.63,-12.63 29.61,-19.65 47.47,-19.65 17.86,0 34.84,7.04 47.47,19.66z"/>
   <path class="fil0" d="M107.67 60.69c-0.12,-2.06 -2.57,-3.67 -7.47,-4.9 0.16,-0.36 0.25,-0.73 0.25,-1.12l0 -8.44 -0.02 0c-0.42,-7.02 -29.21,-7.23 -32.51,-7.23 -3.3,0 -32.09,0.2 -32.51,7.23l-0.02 0 0 0.16 0 0c0,0 0,0 0,0l0 8.28c0,2.29 2.96,4.09 7.36,5.41 -0.06,0.2 -0.1,0.41 -0.11,0.61l-0.02 0 0 0.16 0 0c0,0 0,0 0,0l0 8.27c-4.74,1.22 -7.1,2.81 -7.22,4.83l-0.01 0 0 0.16c0,0 0,0 0,0 0,0 0,0 0,0l0 8.28c0,1.59 1.45,2.95 3.8,4.07 -0.08,0.24 -0.15,0.5 -0.16,0.75l-0.02 0 0 0.16 0 0c0,0 0,0 0,0l0 8.28c0.01,4.01 9.04,6.5 19.06,7.65 0.07,0.01 0.15,0.05 0.22,0.05 0.02,0 0.04,-0.01 0.06,-0.01 1.93,0.22 3.89,0.38 5.85,0.51 0.04,0 0.07,0.02 0.12,0.02 0.02,0 0.04,-0.01 0.06,-0.01 2.47,0.16 4.9,0.23 7.17,0.23 2.27,0 4.7,-0.07 7.17,-0.23 0.02,0 0.04,0.01 0.06,0.01 0.05,0 0.08,-0.02 0.12,-0.02 1.94,-0.12 3.9,-0.29 5.85,-0.51 0.02,0 0.04,0.01 0.06,0.01 0.07,0 0.15,-0.04 0.22,-0.05 10.03,-1.16 19.05,-3.65 19.06,-7.65l0 -8.44 -0.02 0c-0.08,-1.48 -1.35,-2.71 -3.83,-3.74 0.16,-0.35 0.24,-0.71 0.24,-1.09l0 -7.88c4.33,-1.32 7.23,-3.11 7.23,-5.37l0 -8.44 -0.01 0zm-9.76 22.08l-0.41 0.36c-0.64,0.55 -1.69,1.12 -3.07,1.66l0 -5.75c1.44,-0.49 2.65,-1.05 3.62,-1.66l0 4.99c0,0.13 -0.05,0.26 -0.13,0.4zm-26.95 5.6c-0.18,0 -0.35,0.01 -0.53,0.01 -0.43,0.01 -0.87,0.01 -1.31,0.01l0 -6.01c0.33,0 0.66,-0.01 1,-0.01 0.06,0 0.13,0 0.19,0 1.22,-0.02 2.42,-0.06 3.64,-0.12l0 6.01c-0.25,0.01 -0.52,0.02 -0.78,0.04 -0.73,0.02 -1.47,0.05 -2.2,0.07zm-5.27 0.01c-0.55,-0.01 -1.1,-0.02 -1.65,-0.04 -0.07,0 -0.13,0 -0.2,-0.01 -0.65,-0.02 -1.31,-0.05 -1.95,-0.08l0 -6.01c1.2,0.06 2.42,0.1 3.64,0.12 0.06,0 0.13,0 0.19,0 0.34,0 0.66,0.01 1,0.01l0 6.03c-0.23,0 -0.47,0 -0.7,0 -0.12,0 -0.22,-0.01 -0.33,-0.01zm-21.76 -2.75c-0.04,-0.01 -0.07,-0.02 -0.12,-0.04l0 -5.82c1.12,0.3 2.34,0.58 3.62,0.83l0 5.88c-1.11,-0.23 -2.13,-0.48 -3.06,-0.73 -0.15,-0.04 -0.29,-0.07 -0.43,-0.12zm25.39 9.98c0.34,0 0.66,0.01 1,0.01l0 6.03c-1.66,-0.01 -3.28,-0.06 -4.82,-0.14l0 -6.01c1.2,0.06 2.42,0.1 3.64,0.12 0.06,0 0.12,0 0.18,0zm4.59 0c1.22,-0.02 2.42,-0.06 3.64,-0.12l0 6.01c-1.54,0.07 -3.16,0.12 -4.82,0.14l0 -6.03c0.33,0 0.66,-0.01 1,-0.01 0.06,0 0.12,0 0.18,0zm9.67 -0.54l0 5.99c-1.16,0.12 -2.36,0.23 -3.62,0.31l0 -6.01c1.22,-0.09 2.43,-0.18 3.62,-0.29zm2.41 -0.26c1.24,-0.15 2.45,-0.33 3.62,-0.51l0 5.92c-1.13,0.2 -2.34,0.39 -3.62,0.55l0 -5.97zm6.03 -0.94c1.28,-0.25 2.5,-0.53 3.62,-0.83l0 5.82c-1.07,0.31 -2.28,0.61 -3.62,0.89l0 -5.88zm-40.97 0l0 5.88c-1.34,-0.28 -2.54,-0.58 -3.62,-0.89l0 -5.82c1.12,0.3 2.34,0.58 3.62,0.83zm2.41 0.43c1.17,0.19 2.37,0.36 3.62,0.51l0 5.97c-1.28,-0.17 -2.48,-0.35 -3.62,-0.55l0 -5.92zm6.03 0.77c1.18,0.12 2.4,0.22 3.62,0.29l0 6.01c-1.25,-0.08 -2.46,-0.19 -3.62,-0.31l0 -5.99zm-2.99 -7.21c-0.12,-0.01 -0.24,-0.02 -0.36,-0.04 -0.08,-0.01 -0.17,-0.02 -0.27,-0.02l0 -5.99c1.18,0.12 2.4,0.22 3.62,0.29l0 6c-1.01,-0.07 -2.01,-0.15 -2.99,-0.24zm-3.04 -6.31l0 5.96c-1.28,-0.17 -2.48,-0.35 -3.62,-0.55l0 -5.92c1.17,0.19 2.37,0.36 3.62,0.51zm23.7 6.51c-0.26,0.02 -0.53,0.04 -0.81,0.06l0 -6.01c1.22,-0.08 2.43,-0.18 3.62,-0.29l0 5.99c-0.75,0.08 -1.51,0.16 -2.29,0.22 -0.17,0.01 -0.35,0.02 -0.52,0.04zm5.22 -0.54l0 -5.96c1.24,-0.15 2.45,-0.33 3.62,-0.51l0 5.92c-1.13,0.2 -2.34,0.38 -3.62,0.55zm6.03 -6.9c1.28,-0.25 2.5,-0.53 3.62,-0.83l0 5.82c-1.07,0.31 -2.28,0.61 -3.62,0.89l0 -5.88zm-16.47 -5.5c-0.9,-0.02 -1.8,-0.06 -2.66,-0.1 -0.05,0 -0.1,0 -0.14,-0.01l0 -6.01c1.2,0.06 2.42,0.1 3.64,0.12 0.06,0 0.13,0 0.19,0 0.34,0 0.66,0.01 1,0.01l0 6.01c-0.59,0 -1.18,-0.01 -1.75,-0.02 -0.11,0 -0.19,0 -0.28,0zm-28.12 -17.23l0 -5.82c1.12,0.3 2.34,0.58 3.62,0.83l0 5.88c-0.15,-0.04 -0.3,-0.06 -0.45,-0.1 -0.64,-0.15 -1.27,-0.29 -1.87,-0.45 -0.46,-0.11 -0.88,-0.23 -1.3,-0.35zm21.9 -3.24c0.34,0 0.66,0.01 1,0.01l0 6.01c-1.63,-0.01 -3.23,-0.06 -4.82,-0.13l0 -6.01c1.2,0.06 2.42,0.1 3.64,0.12 0.06,0 0.12,0 0.18,0zm4.59 0c1.22,-0.02 2.42,-0.06 3.64,-0.12l0 6.01c-0.2,0.01 -0.4,0.02 -0.6,0.04 -0.01,0 -0.03,0 -0.05,0 -0.81,0.04 -1.63,0.06 -2.47,0.08 -0.13,0 -0.27,0 -0.39,0.01 -0.43,0.01 -0.87,0.01 -1.3,0.01l0 -6.01c0.33,0 0.66,-0.01 1,-0.01 0.05,-0.01 0.11,-0.01 0.17,-0.01zm27.47 0.6l-0.04 -0.01 -0.43 0.34c-0.64,0.49 -1.62,1 -2.87,1.48l0 -5.74c1.44,-0.5 2.65,-1.05 3.62,-1.66l0 4.99c0,0.21 -0.1,0.4 -0.28,0.6zm-15.39 4.54l0 -5.95c1.24,-0.15 2.45,-0.33 3.62,-0.51l0 5.9c-1.14,0.2 -2.35,0.39 -3.62,0.55zm6.03 -1.01l0 -5.87c1.28,-0.25 2.5,-0.53 3.62,-0.83l0 5.81c-1.09,0.3 -2.29,0.6 -3.62,0.89zm-8.44 -4.68l0 5.98c-1.17,0.12 -2.37,0.23 -3.62,0.31l0 -6c1.22,-0.08 2.43,-0.18 3.62,-0.29zm-24.1 5.98l0 -5.98c1.18,0.12 2.4,0.22 3.62,0.29l0 6c-1.23,-0.08 -2.43,-0.19 -3.62,-0.31zm-2.41 -6.24l0 5.95c-0.24,-0.04 -0.48,-0.06 -0.72,-0.08 -0.16,-0.02 -0.3,-0.05 -0.46,-0.06 -0.7,-0.1 -1.37,-0.21 -2.05,-0.33 -0.13,-0.02 -0.27,-0.05 -0.4,-0.07l0 -5.92c1.18,0.19 2.39,0.36 3.63,0.51zm12.96 21c-0.17,-0.01 -0.33,-0.02 -0.48,-0.03 -0.77,-0.06 -1.52,-0.13 -2.25,-0.2 -0.16,-0.01 -0.31,-0.04 -0.47,-0.05 -0.04,0 -0.06,-0.01 -0.1,-0.01l0 -5.99c1.18,0.12 2.4,0.22 3.62,0.29l0 6c-0.11,0.01 -0.22,0.01 -0.31,0zm-7.97 -0.9c-0.48,-0.07 -0.93,-0.16 -1.37,-0.24l0 -5.9c1.17,0.19 2.37,0.36 3.62,0.51l0 5.97c-0.73,-0.1 -1.46,-0.19 -2.16,-0.31 -0.02,0 -0.05,0 -0.08,-0.01zm-3.78 -6.58l0 5.87c-1.33,-0.29 -2.54,-0.59 -3.62,-0.9l0 -5.8c1.12,0.3 2.34,0.58 3.62,0.83zm-6.03 -1.57l0 5.72c-1.89,-0.73 -3.12,-1.48 -3.52,-2.15l-0.08 -0.13c0,-0.04 -0.01,-0.07 -0.01,-0.11l0 -4.99c0.96,0.6 2.18,1.16 3.62,1.65zm28.9 3.31c1.22,-0.02 2.42,-0.06 3.64,-0.12l0 6.01c-1.58,0.07 -3.19,0.12 -4.82,0.13l0 -6.01c0.33,0 0.66,-0.01 1,-0.01 0.06,0 0.12,0 0.18,0zm15.58 4.63c-0.53,0.1 -1.06,0.18 -1.62,0.27 -0.31,0.05 -0.64,0.1 -0.96,0.14 -0.3,0.05 -0.63,0.08 -0.93,0.12l0 -5.95c1.24,-0.15 2.45,-0.33 3.62,-0.51l0 5.92c-0.04,0 -0.07,0 -0.11,0.01zm-8.16 1.02c-0.45,0.04 -0.92,0.06 -1.37,0.1l0 -6c1.22,-0.08 2.43,-0.18 3.62,-0.29l0 5.98c-0.7,0.07 -1.4,0.15 -2.12,0.2 -0.04,0 -0.08,0.01 -0.12,0.01zm13.76 -2.25c-0.6,0.17 -1.24,0.33 -1.88,0.48 -0.3,0.07 -0.6,0.14 -0.92,0.2 -0.1,0.02 -0.19,0.04 -0.29,0.06l0 -5.88c1.28,-0.25 2.49,-0.53 3.62,-0.83l0 5.82c-0.17,0.04 -0.35,0.1 -0.53,0.15zm6.54 -11.74c-0.11,0.82 -1.96,1.9 -5.28,2.93 0,0 0,0 0,0 -4.27,1.31 -10.93,2.52 -19.39,2.89 -0.43,0.01 -0.87,0.04 -1.3,0.05 -0.36,0.01 -0.72,0.02 -1.09,0.03 -1,0.04 -2.01,0.05 -3.06,0.05 -1.05,0 -2.06,-0.01 -3.05,-0.04 -0.36,-0.01 -0.72,-0.02 -1.09,-0.04 -0.45,-0.01 -0.87,-0.04 -1.3,-0.05 -8.46,-0.37 -15.12,-1.58 -19.39,-2.89 0,0 0,0 0,0 -3.29,-1.01 -5.13,-2.1 -5.28,-2.9 0,-0.02 0.01,-0.05 0.02,-0.07 0.08,0.02 0.17,0.04 0.25,0.06 0.47,0.11 0.95,0.22 1.45,0.33 2.4,0.52 5.05,0.94 7.88,1.27 0.01,0 0.01,0 0.02,0 0,0 0,0 0,0 1.93,0.22 3.93,0.38 5.98,0.52 0.01,0 0.02,0.01 0.05,0.01 0.01,0 0.01,0 0.02,0 1.48,0.08 2.98,0.16 4.48,0.18 0.92,0 1.83,0.01 2.71,0.01 0.64,0 1.28,-0.01 1.94,-0.02 8.76,-0.13 16.87,-1.18 22.52,-2.8 0.27,-0.07 0.52,-0.14 0.76,-0.23 0.16,-0.05 0.31,-0.1 0.46,-0.15 0.43,-0.15 0.86,-0.29 1.25,-0.43 0.07,-0.02 0.13,-0.05 0.2,-0.08 0.34,-0.13 0.66,-0.26 0.99,-0.4 0.1,-0.04 0.18,-0.09 0.28,-0.12 0.34,-0.16 0.65,-0.3 0.95,-0.47 0.13,-0.07 0.25,-0.15 0.37,-0.22 0.14,-0.08 0.29,-0.17 0.42,-0.25 0.07,-0.05 0.17,-0.1 0.24,-0.14 5.39,1.21 6.82,2.48 6.95,2.98zm-37.35 -19.35c19.87,0 29.92,3.13 30.12,4.93 -0.14,0.82 -2,1.89 -5.27,2.91 0,0 0,0 0,0 -4.27,1.31 -10.93,2.52 -19.39,2.89 -0.43,0.01 -0.87,0.04 -1.3,0.05 -0.36,0.01 -0.72,0.02 -1.08,0.04 -1.01,0.02 -2.02,0.04 -3.07,0.04 -1.05,0 -2.06,-0.01 -3.05,-0.04 -0.36,-0.01 -0.72,-0.02 -1.09,-0.04 -0.45,-0.01 -0.87,-0.04 -1.3,-0.05 -8.47,-0.37 -15.14,-1.58 -19.4,-2.89 0,0 0,0 0,0 -3.28,-1.01 -5.12,-2.1 -5.28,-2.91 0.19,-1.8 10.24,-4.93 30.12,-4.93zm-30.13 13.26l0 -4.99c0.96,0.6 2.18,1.16 3.62,1.66l0 5.77c-2.34,-0.89 -3.62,-1.77 -3.62,-2.45zm5.83 16.67c0.02,0.02 0.05,0.04 0.06,0.06 1.65,1.66 5.06,2.98 9.32,3.95 0.1,0.02 0.2,0.05 0.3,0.07 0.31,0.07 0.63,0.13 0.95,0.2 3.9,0.83 8.57,1.43 13.65,1.73 0,0 0,0 0.01,0 0,0 0,0 0,0 1.63,0.1 3.3,0.16 5,0.19 0.76,0 1.51,0.01 2.23,0.01 0.83,0 1.69,-0.01 2.56,-0.04 1.58,-0.04 3.13,-0.1 4.66,-0.19 0,0 0.01,0 0.01,0 0.01,0 0.02,0 0.04,-0.01 5.1,-0.3 9.87,-0.9 13.91,-1.78 -0.88,0.46 -2.07,0.93 -3.57,1.4 0,0 0,0 0,0 -4.51,1.39 -11.69,2.65 -20.82,2.95 -0.28,0.01 -0.54,0.02 -0.82,0.02 -0.3,0.01 -0.59,0.01 -0.89,0.01 -0.76,0.04 -1.52,0.05 -2.3,0.05 -1.05,0 -2.06,-0.01 -3.05,-0.04 -0.36,-0.01 -0.72,-0.02 -1.09,-0.04 -0.45,-0.01 -0.87,-0.04 -1.3,-0.05 -8.46,-0.37 -15.12,-1.58 -19.39,-2.89 0,0 0,0 0,0 -3.31,-1.03 -5.17,-2.11 -5.28,-2.93 0.12,-0.46 1.34,-1.6 5.81,-2.7zm-5.83 11.05l0 -4.99c0.96,0.6 2.18,1.16 3.62,1.66l0 5.74 -0.69 -0.26 -0.01 0.01c-1.89,-0.78 -2.92,-1.55 -2.92,-2.16zm3.62 13.26l0 -4.99c0.96,0.6 2.18,1.16 3.62,1.66l0 5.77c-2.34,-0.89 -3.62,-1.77 -3.62,-2.45zm56.64 2.43l0 -5.77c1.44,-0.49 2.65,-1.05 3.62,-1.66l0 4.99c0,0.69 -1.28,1.57 -3.62,2.45zm3.6 -10.77c-0.13,0.82 -1.98,1.89 -5.28,2.92 0,0 0,0 0,0 -4.27,1.31 -10.93,2.52 -19.39,2.89 -0.43,0.01 -0.87,0.04 -1.3,0.05 -0.36,0.01 -0.72,0.02 -1.09,0.04 -1,0.02 -2.01,0.04 -3.06,0.04 -1.05,0 -2.06,-0.01 -3.06,-0.04 -0.36,-0.01 -0.72,-0.02 -1.07,-0.04 -0.45,-0.01 -0.88,-0.04 -1.31,-0.05 -8.46,-0.37 -15.12,-1.58 -19.39,-2.89 0,0 0,0 0,0 -3.18,-0.99 -5.03,-2.04 -5.25,-2.83 0.36,0.12 0.73,0.25 1.11,0.36 0.04,0.01 0.07,0.02 0.12,0.04 0.33,0.1 0.66,0.19 1,0.29 0.13,0.04 0.25,0.07 0.39,0.11 0.19,0.05 0.38,0.1 0.59,0.16 4.39,1.12 9.99,1.92 16.04,2.28 0,0 0,0 0,0 0,0 0,0 0,0 1.87,0.11 3.77,0.18 5.7,0.2 0.52,0 1.04,0 1.53,0 0.66,0 1.35,-0.01 2.04,-0.02 1.76,-0.02 3.49,-0.1 5.19,-0.19 0,0 0,0 0.01,0 0,0 0.01,0 0.01,0 2.06,-0.12 4.07,-0.3 5.99,-0.52 0.01,0 0.01,0 0.02,0 0.02,0 0.05,-0.01 0.07,-0.01 2.15,-0.25 4.17,-0.55 6.05,-0.9 0.39,-0.07 0.77,-0.14 1.14,-0.22 0.08,-0.01 0.17,-0.04 0.25,-0.05 3.55,-0.74 6.64,-1.68 8.75,-2.84 0.12,-0.06 0.23,-0.13 0.34,-0.19 0.13,-0.08 0.27,-0.16 0.39,-0.24 0.12,-0.07 0.25,-0.15 0.36,-0.23 2.37,0.84 3.02,1.6 3.11,1.9zm0.01 -15.74l0 -5.77c1.44,-0.49 2.65,-1.05 3.62,-1.66l0 4.99c0,0.69 -1.28,1.57 -3.62,2.45z"/>
  </g>
 </g>
</svg>
