<?xml version="1.0" encoding="UTF-8"?>
<!DOCTYPE svg PUBLIC "-//W3C//DTD SVG 1.1//EN" "http://www.w3.org/Graphics/SVG/1.1/DTD/svg11.dtd">
<!-- Creator: CorelDRAW 2018 (64-Bit) -->
<svg xmlns="http://www.w3.org/2000/svg" xml:space="preserve" width="9.849mm" height="9.849mm" version="1.1" style="shape-rendering:geometricPrecision; text-rendering:geometricPrecision; image-rendering:optimizeQuality; fill-rule:evenodd; clip-rule:evenodd"
viewBox="0 0 143.06 143.06"
 xmlns:xlink="http://www.w3.org/1999/xlink">
 <defs>
  <style type="text/css">
   <![CDATA[
    .fil0 {fill:#0E8694}
   ]]>
  </style>
 </defs>
 <g id="Layer_x0020_1">
  <metadata id="CorelCorpID_0Corel-Layer"/>
  <g id="_2540114556192">
   <path class="fil0" d="M112.14 106.34l0.2 0.05 0.19 0.07 0.18 0.1 0.16 0.12 0.15 0.15 0.12 0.16 0.1 0.18 0.07 0.19 0.05 0.2 0.01 0.2 -0.01 0.2 -0.05 0.2 -0.07 0.19 -0.1 0.18 -0.12 0.16 -0.15 0.15 -0.16 0.12 -0.18 0.1 -0.19 0.07 -0.2 0.05 -0.2 0.01 -44.73 0 -11.54 0 -24.53 0 -0.2 -0.01 -0.2 -0.05 -0.19 -0.07 -0.18 -0.1 -0.16 -0.12 -0.15 -0.15 -0.12 -0.16 -0.1 -0.18 -0.07 -0.19 -0.05 -0.2 -0.01 -0.2 0.01 -0.2 0.05 -0.2 0.07 -0.19 0.1 -0.18 0.12 -0.16 0.15 -0.15 0.16 -0.12 0.18 -0.1 0.19 -0.07 0.2 -0.05 0.2 -0.01 2.89 0 0 -31.76 0 -0.13 0.01 -0.15 0.02 -0.14 0.03 -0.14 0.03 -0.14 0.04 -0.14 0.05 -0.14 0.05 -0.13 0.06 -0.13 0.06 -0.12 0.07 -0.12 0.08 -0.12 0.08 -0.11 0.09 -0.11 0.09 -0.1 0.09 -0.1 0.1 -0.09 0.1 -0.09 0.11 -0.09 0.11 -0.08 0.12 -0.08 0.12 -0.07 0.12 -0.07 0.13 -0.06 0.13 -0.05 0.14 -0.05 0.14 -0.04 0.14 -0.03 0.14 -0.03 0.14 -0.02 0.15 -0.01 0.13 -0 8.7 0 0.13 0 0.15 0.01 0.14 0.02 0.14 0.03 0.14 0.03 0.14 0.04 0.14 0.05 0.13 0.05 0.13 0.06 0.12 0.07 0.12 0.07 0.12 0.08 0.11 0.08 0.11 0.09 0.1 0.09 0.1 0.09 0.1 0.1 0.09 0.1 0.09 0.11 0.08 0.11 0.07 0.12 0.07 0.12 0.07 0.12 0.06 0.13 0.05 0.13 0.05 0.14 0.04 0.14 0.03 0.14 0.02 0.14 0.02 0.14 0.01 0.15 0 0.13 0 31.76 5.77 0 0 -25.99 0 -0.13 0.01 -0.15 0.02 -0.14 0.03 -0.14 0.03 -0.14 0.04 -0.14 0.05 -0.14 0.05 -0.13 0.06 -0.13 0.06 -0.12 0.07 -0.12 0.08 -0.12 0.08 -0.11 0.09 -0.11 0.09 -0.1 0.09 -0.1 0.1 -0.1 0.1 -0.09 0.11 -0.09 0.11 -0.08 0.12 -0.08 0.12 -0.07 0.12 -0.06 0.13 -0.06 0.13 -0.05 0.14 -0.05 0.14 -0.04 0.14 -0.03 0.14 -0.03 0.14 -0.02 0.15 -0.01 0.13 -0 8.7 0 0.13 0 0.15 0.01 0.14 0.02 0.14 0.03 0.14 0.03 0.14 0.04 0.14 0.05 0.13 0.05 0.13 0.06 0.12 0.06 0.12 0.07 0.12 0.08 0.11 0.08 0.11 0.09 0.1 0.09 0.1 0.1 0.1 0.1 0.09 0.1 0.09 0.11 0.08 0.11 0.08 0.12 0.07 0.12 0.06 0.12 0.06 0.13 0.05 0.13 0.05 0.14 0.04 0.14 0.03 0.14 0.03 0.14 0.02 0.14 0.01 0.15 0 0.13 0 25.99 5.77 0 0 -40.42 0 -0.13 0.01 -0.15 0.02 -0.14 0.02 -0.14 0.03 -0.14 0.04 -0.14 0.05 -0.14 0.05 -0.13 0.06 -0.13 0.07 -0.12 0.07 -0.12 0.07 -0.12 0.08 -0.11 0.09 -0.11 0.09 -0.1 0.1 -0.1 0.1 -0.1 0.1 -0.09 0.11 -0.09 0.11 -0.08 0.12 -0.08 0.12 -0.07 0.12 -0.06 0.13 -0.06 0.13 -0.05 0.14 -0.05 0.14 -0.04 0.14 -0.03 0.14 -0.03 0.14 -0.02 0.15 -0.01 0.13 -0 8.7 0 0.13 0 0.15 0.01 0.14 0.02 0.14 0.03 0.14 0.03 0.14 0.04 0.14 0.05 0.13 0.05 0.13 0.06 0.12 0.06 0.12 0.07 0.12 0.08 0.11 0.08 0.11 0.09 0.1 0.09 0.1 0.1 0.09 0.1 0.09 0.1 0.09 0.11 0.08 0.11 0.08 0.12 0.07 0.12 0.06 0.12 0.06 0.13 0.05 0.13 0.05 0.14 0.04 0.14 0.03 0.14 0.03 0.14 0.02 0.14 0.01 0.15 0 0.13 0 40.42 5.77 0 0 -54.85 0 -0.13 0.01 -0.15 0.02 -0.15 0.02 -0.14 0.03 -0.14 0.04 -0.14 0.05 -0.14 0.05 -0.13 0.06 -0.13 0.07 -0.12 0.07 -0.12 0.07 -0.12 0.08 -0.11 0.09 -0.11 0.09 -0.1 0.1 -0.1 0.1 -0.1 0.1 -0.09 0.11 -0.09 0.11 -0.08 0.12 -0.07 0.12 -0.07 0.12 -0.07 0.13 -0.06 0.13 -0.05 0.14 -0.05 0.14 -0.04 0.14 -0.03 0.14 -0.02 0.15 -0.02 0.15 -0.01 0.13 -0 8.7 0 0.13 0 0.15 0.01 0.14 0.02 0.14 0.02 0.14 0.03 0.14 0.04 0.14 0.05 0.13 0.05 0.13 0.06 0.12 0.07 0.12 0.07 0.12 0.07 0.11 0.08 0.11 0.09 0.1 0.09 0.1 0.1 0.09 0.1 0.09 0.1 0.09 0.11 0.08 0.11 0.08 0.12 0.07 0.12 0.07 0.12 0.06 0.13 0.05 0.13 0.05 0.14 0.04 0.14 0.03 0.14 0.03 0.14 0.02 0.15 0.01 0.15 0 0.13 0 54.85 2.89 0 0.2 0.01zm-14.01 -70.63l-11.11 7.93 0.03 0.09 0.05 0.13 0.05 0.14 0.04 0.14 0.04 0.14 0.03 0.14 0.03 0.14 0.03 0.14 0.02 0.14 0.02 0.14 0.02 0.15 0.01 0.15 0.01 0.15 0 0.15 0 0.15 -0 0.15 -0 0.15 -0.01 0.15 -0.01 0.15 -0.02 0.14 -0.02 0.15 -0.02 0.14 -0.03 0.14 -0.03 0.14 -0.03 0.14 -0.04 0.14 -0.04 0.14 -0.05 0.14 -0.05 0.13 -0.05 0.13 -0.05 0.13 -0.06 0.13 -0.06 0.13 -0.06 0.13 -0.07 0.12 -0.07 0.12 -0.07 0.12 -0.07 0.12 -0.08 0.12 -0.08 0.11 -0.08 0.11 -0.08 0.11 -0.09 0.11 -0.09 0.11 -0.09 0.1 -0.09 0.1 -0.1 0.1 -0.1 0.1 -0.1 0.09 -0.1 0.09 -0.11 0.09 -0.11 0.09 -0.11 0.08 -0.11 0.08 -0.11 0.08 -0.12 0.08 -0.12 0.07 -0.12 0.07 -0.12 0.07 -0.12 0.07 -0.12 0.06 -0.13 0.06 -0.13 0.06 -0.13 0.05 -0.13 0.05 -0.13 0.05 -0.14 0.05 -0.14 0.04 -0.14 0.04 -0.14 0.03 -0.14 0.03 -0.14 0.03 -0.14 0.02 -0.15 0.02 -0.14 0.02 -0.15 0.01 -0.15 0.01 -0.15 0.01 -0.15 0 -0.15 -0 -0.15 -0.01 -0.15 -0.01 -0.15 -0.01 -0.15 -0.02 -0.14 -0.02 -0.14 -0.02 -0.14 -0.03 -0.14 -0.03 -0.14 -0.03 -0.14 -0.04 -0.14 -0.04 -0.14 -0.05 -0.13 -0.05 -0.13 -0.05 -0.13 -0.05 -0.13 -0.06 -0.13 -0.06 -0.12 -0.06 -0.12 -0.07 -0.12 -0.07 -0.12 -0.07 -0.12 -0.07 -0.12 -0.08 -0.11 -0.08 -0.11 -0.08 -0.11 -0.08 -0.11 -0.09 -0.04 -0.03 -11.11 7.93 0.03 0.09 0.05 0.13 0.05 0.14 0.04 0.14 0.04 0.14 0.03 0.14 0.03 0.14 0.03 0.14 0.02 0.14 0.02 0.14 0.02 0.15 0.01 0.15 0.01 0.15 0.01 0.15 0 0.15 -0 0.15 -0.01 0.15 -0.01 0.15 -0.01 0.15 -0.02 0.15 -0.02 0.14 -0.02 0.14 -0.03 0.14 -0.03 0.14 -0.03 0.14 -0.04 0.14 -0.04 0.14 -0.05 0.14 -0.05 0.13 -0.05 0.13 -0.05 0.13 -0.06 0.13 -0.06 0.13 -0.06 0.13 -0.07 0.12 -0.07 0.12 -0.07 0.12 -0.07 0.12 -0.08 0.12 -0.08 0.11 -0.08 0.11 -0.08 0.11 -0.09 0.11 -0.09 0.11 -0.09 0.1 -0.09 0.1 -0.1 0.1 -0.1 0.1 -0.1 0.09 -0.1 0.09 -0.11 0.09 -0.11 0.09 -0.11 0.08 -0.11 0.08 -0.11 0.08 -0.12 0.08 -0.12 0.07 -0.12 0.07 -0.12 0.07 -0.12 0.07 -0.12 0.06 -0.13 0.06 -0.13 0.06 -0.13 0.05 -0.13 0.05 -0.13 0.05 -0.14 0.05 -0.14 0.04 -0.14 0.04 -0.14 0.03 -0.14 0.03 -0.14 0.03 -0.14 0.02 -0.14 0.02 -0.15 0.02 -0.15 0.01 -0.15 0.01 -0.15 0.01 -0.15 0 -0.15 -0 -0.15 -0.01 -0.15 -0.01 -0.15 -0.01 -0.15 -0.02 -0.14 -0.02 -0.14 -0.02 -0.14 -0.03 -0.14 -0.03 -0.14 -0.03 -0.14 -0.04 -0.14 -0.04 -0.14 -0.05 -0.13 -0.05 -0.13 -0.05 -0.13 -0.05 -0.13 -0.06 -0.13 -0.06 -0.12 -0.06 -0.12 -0.07 -0.12 -0.07 -0.12 -0.07 -0.12 -0.07 -0.12 -0.08 -0.11 -0.08 -0.11 -0.08 -0.11 -0.08 -0.11 -0.09 -0.11 -0.09 -0.1 -0.09 -0.1 -0.09 -0.1 -0.1 -0.1 -0.1 -0.09 -0.1 -0.09 -0.1 -0.09 -0.11 -0.09 -0.11 -0.08 -0.11 -0.08 -0.11 -0.08 -0.11 -0.08 -0.12 -0.07 -0.12 -0.07 -0.12 -0.07 -0.12 -0.07 -0.12 -0.06 -0.13 -0.06 -0.13 -0.06 -0.13 -0.05 -0.13 -0.05 -0.13 -0.05 -0.13 -0.05 -0.14 -0.04 -0.14 -0.04 -0.14 -0.03 -0.14 -0.03 -0.14 -0.03 -0.14 -0.02 -0.14 -0.02 -0.14 -0.02 -0.15 -0.01 -0.15 -0.01 -0.15 -0.01 -0.15 -0 -0.15 0 -0.15 -3.15 -0.9 -6.3 -1.8 -0.04 0.07 -0.07 0.12 -0.08 0.12 -0.08 0.11 -0.08 0.11 -0.08 0.11 -0.09 0.11 -0.09 0.11 -0.09 0.1 -0.09 0.1 -0.1 0.1 -0.1 0.1 -0.1 0.09 -0.1 0.09 -0.11 0.09 -0.11 0.09 -0.11 0.08 -0.11 0.08 -0.11 0.08 -0.12 0.08 -0.12 0.07 -0.12 0.07 -0.12 0.07 -0.12 0.07 -0.12 0.06 -0.13 0.06 -0.13 0.06 -0.13 0.05 -0.13 0.05 -0.13 0.05 -0.14 0.05 -0.14 0.04 -0.14 0.04 -0.14 0.03 -0.14 0.03 -0.14 0.03 -0.14 0.02 -0.14 0.02 -0.14 0.02 -0.15 0.01 -0.15 0.01 -0.15 0.01 -0.15 0 -0.15 -0 -0.15 -0.01 -0.15 -0.01 -0.15 -0.01 -0.14 -0.02 -0.15 -0.02 -0.14 -0.02 -0.14 -0.03 -0.14 -0.03 -0.14 -0.03 -0.14 -0.04 -0.14 -0.04 -0.14 -0.05 -0.13 -0.05 -0.13 -0.05 -0.13 -0.05 -0.13 -0.06 -0.13 -0.06 -0.13 -0.06 -0.12 -0.07 -0.12 -0.07 -0.12 -0.07 -0.12 -0.07 -0.12 -0.08 -0.11 -0.08 -0.11 -0.08 -0.11 -0.08 -0.11 -0.09 -0.11 -0.09 -0.1 -0.09 -0.1 -0.09 -0.1 -0.1 -0.1 -0.1 -0.09 -0.1 -0.09 -0.1 -0.09 -0.11 -0.09 -0.11 -0.08 -0.11 -0.08 -0.11 -0.08 -0.11 -0.08 -0.12 -0.07 -0.12 -0.07 -0.12 -0.07 -0.12 -0.07 -0.12 -0.06 -0.12 -0.06 -0.13 -0.06 -0.13 -0.05 -0.13 -0.05 -0.13 -0.05 -0.13 -0.05 -0.14 -0.04 -0.14 -0.04 -0.14 -0.03 -0.14 -0.03 -0.14 -0.03 -0.14 -0.02 -0.14 -0.02 -0.14 -0.01 -0.14 -0.01 -0.15 -0.01 -0.15 -0.01 -0.15 -0 -0.15 0 -0.15 0.01 -0.15 0.01 -0.15 0.01 -0.15 0.01 -0.14 0.02 -0.15 0.02 -0.14 0.03 -0.14 0.03 -0.14 0.03 -0.14 0.04 -0.14 0.04 -0.14 0.05 -0.14 0.05 -0.13 0.05 -0.13 0.05 -0.13 0.06 -0.13 0.06 -0.13 0.06 -0.13 0.07 -0.12 0.07 -0.12 0.07 -0.12 0.07 -0.12 0.08 -0.12 0.08 -0.11 0.08 -0.11 0.08 -0.11 0.09 -0.11 0.09 -0.11 0.09 -0.1 0.09 -0.1 0.1 -0.1 0.1 -0.1 0.1 -0.09 0.1 -0.09 0.11 -0.09 0.11 -0.09 0.11 -0.08 0.11 -0.08 0.11 -0.08 0.12 -0.08 0.12 -0.07 0.12 -0.07 0.12 -0.07 0.12 -0.07 0.13 -0.06 0.13 -0.06 0.13 -0.06 0.13 -0.05 0.13 -0.05 0.13 -0.05 0.14 -0.05 0.14 -0.04 0.14 -0.04 0.14 -0.03 0.14 -0.03 0.14 -0.03 0.14 -0.02 0.15 -0.02 0.14 -0.01 0.15 -0.01 0.15 -0.01 0.15 -0.01 0.15 -0 0.15 0 0.15 0.01 0.15 0.01 0.15 0.01 0.14 0.01 0.14 0.02 0.14 0.02 0.14 0.03 0.14 0.03 0.14 0.03 0.14 0.04 0.14 0.04 0.14 0.05 0.13 0.05 0.13 0.05 0.13 0.05 0.13 0.06 0.13 0.06 0.12 0.06 0.12 0.07 0.12 0.07 0.12 0.07 0.12 0.07 0.12 0.08 0.11 0.08 0.11 0.08 0.11 0.08 0.11 0.09 0.11 0.09 0.1 0.09 0.1 0.09 0.1 0.1 0.1 0.1 0.09 0.1 0.09 0.1 0.09 0.11 0.09 0.11 0.08 0.11 0.08 0.11 0.08 0.11 0.08 0.12 0.07 0.12 0.07 0.12 0.07 0.12 0.07 0.12 0.06 0.13 0.06 0.13 0.06 0.13 0.05 0.13 0.05 0.13 0.05 0.13 0.05 0.14 0.04 0.14 0.04 0.14 0.03 0.14 0.03 0.14 0.03 0.14 0.02 0.14 0.02 0.15 0.02 0.14 0.01 0.15 0.01 0.15 0.01 0.15 0 0.15 -0 0.15 9.45 2.7 0.04 -0.07 0.07 -0.12 0.08 -0.12 0.08 -0.11 0.08 -0.11 0.08 -0.11 0.09 -0.11 0.09 -0.11 0.09 -0.1 0.09 -0.1 0.1 -0.1 0.1 -0.1 0.1 -0.09 0.1 -0.09 0.11 -0.09 0.11 -0.09 0.11 -0.08 0.11 -0.08 0.11 -0.08 0.12 -0.08 0.12 -0.07 0.12 -0.07 0.12 -0.07 0.12 -0.07 0.12 -0.06 0.13 -0.06 0.13 -0.06 0.13 -0.05 0.13 -0.05 0.13 -0.05 0.14 -0.05 0.14 -0.04 0.14 -0.04 0.14 -0.03 0.14 -0.03 0.14 -0.03 0.14 -0.02 0.14 -0.02 0.15 -0.02 0.15 -0.01 0.15 -0.01 0.15 -0.01 0.15 -0 0.15 0 0.15 0.01 0.15 0.01 0.15 0.01 0.15 0.02 0.14 0.02 0.14 0.02 0.14 0.03 0.14 0.03 0.14 0.03 0.14 0.04 0.14 0.04 0.14 0.05 0.13 0.05 0.13 0.05 0.13 0.05 0.13 0.06 0.13 0.06 0.12 0.06 0.12 0.07 0.12 0.07 0.12 0.07 0.12 0.07 0.12 0.08 0.11 0.08 0.11 0.08 0.11 0.08 0.11 0.09 0.04 0.03 4.66 -3.33 6.45 -4.6 -0.03 -0.09 -0.05 -0.13 -0.05 -0.14 -0.04 -0.14 -0.04 -0.14 -0.03 -0.14 -0.03 -0.14 -0.03 -0.14 -0.02 -0.14 -0.02 -0.15 -0.02 -0.14 -0.01 -0.15 -0.01 -0.15 -0.01 -0.15 -0 -0.15 0 -0.15 0.01 -0.15 0.01 -0.15 0.01 -0.15 0.02 -0.15 0.02 -0.14 0.02 -0.14 0.03 -0.14 0.03 -0.14 0.03 -0.14 0.04 -0.14 0.04 -0.14 0.05 -0.14 0.05 -0.13 0.05 -0.13 0.05 -0.13 0.06 -0.13 0.06 -0.13 0.06 -0.12 0.07 -0.12 0.07 -0.12 0.07 -0.12 0.07 -0.12 0.08 -0.12 0.08 -0.11 0.08 -0.11 0.08 -0.11 0.09 -0.11 0.09 -0.11 0.09 -0.1 0.09 -0.1 0.1 -0.1 0.1 -0.1 0.1 -0.09 0.1 -0.09 0.11 -0.09 0.11 -0.09 0.11 -0.08 0.11 -0.08 0.11 -0.08 0.12 -0.08 0.12 -0.07 0.12 -0.07 0.12 -0.07 0.12 -0.07 0.12 -0.06 0.13 -0.06 0.13 -0.06 0.13 -0.05 0.13 -0.05 0.13 -0.05 0.14 -0.05 0.14 -0.04 0.14 -0.04 0.14 -0.03 0.14 -0.03 0.14 -0.03 0.14 -0.02 0.14 -0.02 0.15 -0.02 0.15 -0.01 0.15 -0.01 0.15 -0.01 0.15 -0 0.15 0 0.15 0.01 0.15 0.01 0.15 0.01 0.14 0.02 0.15 0.02 0.14 0.02 0.14 0.03 0.14 0.03 0.14 0.03 0.14 0.04 0.14 0.04 0.14 0.05 0.13 0.05 0.13 0.05 0.13 0.05 0.13 0.06 0.13 0.06 0.12 0.06 0.12 0.07 0.12 0.07 0.12 0.07 0.12 0.07 0.12 0.08 0.11 0.08 0.11 0.08 0.11 0.08 0.11 0.09 0.04 0.03 11.11 -7.93 -0.03 -0.09 -0.05 -0.13 -0.05 -0.14 -0.04 -0.14 -0.04 -0.14 -0.03 -0.14 -0.03 -0.14 -0.03 -0.14 -0.02 -0.14 -0.02 -0.15 -0.02 -0.14 -0.01 -0.15 -0.01 -0.15 -0.01 -0.15 -0 -0.15 0 -0.15 0.01 -0.15 0.01 -0.15 0.01 -0.15 0.02 -0.14 0.02 -0.14 0.02 -0.14 0.03 -0.14 0.03 -0.14 0.03 -0.14 0.04 -0.14 0.04 -0.14 0.05 -0.14 0.05 -0.13 0.05 -0.13 0.05 -0.13 0.06 -0.13 0.06 -0.13 0.06 -0.12 0.07 -0.12 0.07 -0.12 0.07 -0.12 0.07 -0.12 0.08 -0.12 0.08 -0.11 0.08 -0.11 0.08 -0.11 0.09 -0.11 0.09 -0.11 0.09 -0.1 0.09 -0.1 0.1 -0.1 0.1 -0.1 0.1 -0.09 0.1 -0.09 0.11 -0.09 0.11 -0.09 0.11 -0.08 0.11 -0.08 0.11 -0.08 0.12 -0.08 0.12 -0.07 0.12 -0.07 0.12 -0.07 0.12 -0.07 0.12 -0.06 0.13 -0.06 0.13 -0.06 0.13 -0.05 0.13 -0.05 0.13 -0.05 0.14 -0.05 0.14 -0.04 0.14 -0.04 0.14 -0.03 0.14 -0.03 0.14 -0.03 0.14 -0.02 0.14 -0.02 0.14 -0.02 0.15 -0.01 0.15 -0.01 0.15 -0.01 0.15 -0 0.15 0 0.15 0.01 0.15 0.01 0.15 0.01 0.14 0.02 0.15 0.02 0.14 0.02 0.14 0.03 0.14 0.03 0.14 0.03 0.14 0.04 0.14 0.04 0.14 0.05 0.13 0.05 0.13 0.05 0.13 0.05 0.13 0.06 0.13 0.06 0.13 0.06 0.12 0.07 0.12 0.07 0.12 0.07 0.12 0.07 0.12 0.08 0.11 0.08 0.11 0.08 0.11 0.08 0.11 0.09 0.11 0.09 0.1 0.09 0.1 0.09 0.1 0.1 0.1 0.1 0.09 0.1 0.09 0.1 0.09 0.11 0.09 0.11 0.08 0.11 0.08 0.11 0.08 0.11 0.08 0.12 0.07 0.12 0.07 0.12 0.07 0.12 0.07 0.12 0.06 0.12 0.06 0.13 0.06 0.13 0.05 0.13 0.05 0.13 0.05 0.13 0.05 0.14 0.04 0.14 0.04 0.14 0.03 0.14 0.03 0.14 0.03 0.14 0.02 0.14 0.02 0.14 0.01 0.14 0.01 0.15 0.01 0.15 0.01 0.15 0 0.15 -0 0.15 -0.01 0.15 -0.01 0.15 -0.01 0.15 -0.01 0.14 -0.02 0.15 -0.02 0.14 -0.03 0.14 -0.03 0.14 -0.03 0.14 -0.04 0.14 -0.04 0.14 -0.05 0.14 -0.05 0.13 -0.05 0.13 -0.05 0.13 -0.06 0.13 -0.06 0.13 -0.06 0.13 -0.07 0.12 -0.07 0.12 -0.07 0.12 -0.07 0.12 -0.08 0.12 -0.08 0.11 -0.08 0.11 -0.08 0.11 -0.09 0.11 -0.09 0.11 -0.09 0.1 -0.09 0.1 -0.1 0.1 -0.1 0.1 -0.1 0.09 -0.1 0.09 -0.11 0.09 -0.11 0.09 -0.11 0.08 -0.11 0.08 -0.11 0.08 -0.12 0.08 -0.12 0.07 -0.12 0.07 -0.12 0.07 -0.12 0.07 -0.13 0.06 -0.13 0.06 -0.13 0.06 -0.13 0.05 -0.13 0.05 -0.13 0.05 -0.14 0.04 -0.14 0.04 -0.14 0.04 -0.14 0.03 -0.14 0.03 -0.14 0.03 -0.14 0.02 -0.15 0.02 -0.14 0.02 -0.15 0.01 -0.15 0.01 -0.15 0.01 -0.15 0 -0.15 -0 -0.15 -0.01 -0.15 -0.01 -0.15 -0.01 -0.14 -0.02 -0.14 -0.02 -0.14 -0.02 -0.14 -0.03 -0.14 -0.03 -0.14 -0.03 -0.14 -0.04 -0.14 -0.04 -0.14 -0.04 -0.13 -0.05 -0.13 -0.05 -0.13 -0.05 -0.13 -0.06 -0.13 -0.06 -0.12 -0.06 -0.12 -0.07 -0.12 -0.07 -0.12 -0.07 -0.12 -0.07 -0.12 -0.08 -0.11 -0.08 -0.11 -0.08 -0.11 -0.08 -0.11 -0.09 -0.04 -0.03zm3.63 -7.31l-0.08 0 -0.07 0 -0.07 0.01 -0.07 0.01 -0.07 0.01 -0.07 0.01 -0.07 0.01 -0.07 0.01 -0.07 0.02 -0.07 0.02 -0.07 0.02 -0.07 0.02 -0.07 0.02 -0.07 0.02 -0.06 0.03 -0.07 0.03 -0.06 0.03 -0.06 0.03 -0.06 0.03 -0.06 0.03 -0.06 0.03 -0.06 0.04 -0.06 0.04 -0.06 0.04 -0.06 0.04 -0.06 0.04 -0.05 0.05 -0.05 0.05 -0.05 0.05 -0.05 0.05 -0.05 0.05 -0.05 0.05 -0.05 0.05 -0.05 0.05 -0.05 0.05 -0.05 0.05 -0.04 0.06 -0.04 0.06 -0.04 0.06 -0.04 0.06 -0.04 0.06 -0.03 0.06 -0.03 0.06 -0.03 0.06 -0.03 0.06 -0.03 0.06 -0.03 0.07 -0.03 0.06 -0.02 0.07 -0.02 0.07 -0.02 0.07 -0.02 0.07 -0.02 0.07 -0.02 0.07 -0.01 0.07 -0.01 0.07 -0.01 0.07 -0.01 0.07 -0.01 0.07 -0.01 0.07 -0 0.07 -0 0.08 -0 0.08 0 0.07 0 0.08 0 0.07 0.01 0.07 0.01 0.07 0.01 0.07 0.01 0.07 0.01 0.07 0.01 0.07 0.02 0.07 0.02 0.07 0.02 0.07 0.02 0.07 0.02 0.07 0.02 0.07 0.03 0.07 0.03 0.06 0.03 0.06 0.03 0.06 0.03 0.06 0.03 0.06 0.03 0.06 0.04 0.06 0.04 0.06 0.04 0.06 0.04 0.06 0.04 0.06 0.05 0.05 0.05 0.05 0.05 0.05 0.05 0.05 0.05 0.05 0.05 0.05 0.05 0.05 0.05 0.05 0.05 0.04 0.05 0.05 0.06 0.04 0.06 0.04 0.06 0.04 0.06 0.04 0.06 0.04 0.06 0.03 0.06 0.03 0.06 0.03 0.06 0.03 0.06 0.03 0.07 0.03 0.06 0.03 0.07 0.02 0.07 0.02 0.07 0.02 0.07 0.02 0.07 0.02 0.07 0.02 0.07 0.01 0.07 0.01 0.07 0.01 0.07 0.01 0.07 0.01 0.07 0.01 0.07 0 0.08 0 0.08 0 0.07 0 0.08 -0 0.07 -0 0.07 -0.01 0.07 -0.01 0.07 -0.01 0.07 -0.01 0.07 -0.01 0.07 -0.01 0.07 -0.02 0.07 -0.02 0.07 -0.02 0.07 -0.02 0.07 -0.02 0.07 -0.02 0.07 -0.03 0.06 -0.03 0.06 -0.03 0.06 -0.03 0.06 -0.03 0.06 -0.03 0.06 -0.03 0.06 -0.04 0.06 -0.04 0.06 -0.04 0.06 -0.04 0.06 -0.04 0.05 -0.05 0.05 -0.04 0.05 -0.05 0.05 -0.05 0.05 -0.05 0.05 -0.05 0.05 -0.05 0.05 -0.05 0.05 -0.05 0.04 -0.05 0.04 -0.06 0.04 -0.06 0.04 -0.06 0.04 -0.06 0.04 -0.06 0.03 -0.06 0.03 -0.06 0.03 -0.06 0.03 -0.06 0.03 -0.06 0.03 -0.06 0.03 -0.07 0.02 -0.07 0.02 -0.07 0.02 -0.07 0.02 -0.07 0.02 -0.07 0.02 -0.07 0.01 -0.07 0.01 -0.07 0.01 -0.07 0.01 -0.07 0.01 -0.07 0.01 -0.07 0 -0.07 0 -0.08 0 -0.07 -0 -0.08 -0 -0.08 -0 -0.07 -0.01 -0.07 -0.01 -0.07 -0.01 -0.07 -0.01 -0.07 -0.01 -0.07 -0.01 -0.07 -0.02 -0.07 -0.02 -0.07 -0.02 -0.07 -0.02 -0.07 -0.02 -0.07 -0.02 -0.07 -0.03 -0.06 -0.03 -0.07 -0.03 -0.06 -0.03 -0.06 -0.03 -0.06 -0.03 -0.06 -0.03 -0.06 -0.04 -0.06 -0.04 -0.06 -0.04 -0.06 -0.04 -0.05 -0.04 -0.06 -0.04 -0.05 -0.05 -0.05 -0.05 -0.05 -0.05 -0.05 -0.05 -0.05 -0.05 -0.05 -0.05 -0.05 -0.05 -0.05 -0.05 -0.05 -0.05 -0.05 -0.06 -0.04 -0.06 -0.04 -0.06 -0.04 -0.06 -0.04 -0.06 -0.04 -0.06 -0.03 -0.06 -0.03 -0.06 -0.03 -0.06 -0.03 -0.06 -0.03 -0.06 -0.03 -0.07 -0.03 -0.07 -0.03 -0.07 -0.02 -0.07 -0.02 -0.07 -0.02 -0.07 -0.02 -0.07 -0.02 -0.07 -0.01 -0.07 -0.01 -0.07 -0.01 -0.07 -0.01 -0.07 -0.01 -0.07 -0.01 -0.07 -0 -0.08 -0 -0.07 -0 -0.08 0zm-20.2 14.43l-0.07 0 -0.07 0 -0.07 0.01 -0.07 0.01 -0.07 0.01 -0.07 0.01 -0.07 0.01 -0.07 0.01 -0.07 0.02 -0.07 0.02 -0.07 0.02 -0.07 0.02 -0.07 0.02 -0.06 0.02 -0.07 0.03 -0.07 0.03 -0.06 0.03 -0.06 0.03 -0.06 0.03 -0.06 0.03 -0.06 0.03 -0.06 0.04 -0.06 0.04 -0.06 0.04 -0.06 0.04 -0.06 0.04 -0.05 0.05 -0.05 0.05 -0.05 0.05 -0.05 0.05 -0.05 0.05 -0.05 0.05 -0.05 0.05 -0.05 0.05 -0.05 0.05 -0.05 0.05 -0.04 0.06 -0.04 0.06 -0.04 0.06 -0.04 0.06 -0.04 0.06 -0.03 0.06 -0.03 0.06 -0.03 0.06 -0.03 0.06 -0.03 0.06 -0.03 0.07 -0.03 0.07 -0.02 0.06 -0.02 0.07 -0.02 0.07 -0.02 0.07 -0.02 0.07 -0.02 0.07 -0.01 0.07 -0.01 0.07 -0.01 0.07 -0.01 0.07 -0.01 0.07 -0.01 0.07 -0 0.07 -0 0.08 -0 0.08 0 0.08 0 0.07 0 0.07 0.01 0.07 0.01 0.07 0.01 0.07 0.01 0.07 0.01 0.07 0.01 0.07 0.02 0.07 0.02 0.07 0.02 0.07 0.02 0.07 0.02 0.07 0.02 0.07 0.03 0.07 0.03 0.06 0.03 0.06 0.03 0.06 0.03 0.06 0.03 0.06 0.03 0.06 0.04 0.06 0.04 0.06 0.04 0.06 0.04 0.06 0.04 0.06 0.05 0.05 0.05 0.05 0.05 0.05 0.05 0.05 0.05 0.05 0.05 0.05 0.05 0.05 0.05 0.05 0.05 0.05 0.05 0.04 0.06 0.04 0.06 0.04 0.06 0.04 0.06 0.04 0.06 0.04 0.06 0.03 0.06 0.03 0.06 0.03 0.06 0.03 0.06 0.03 0.07 0.03 0.07 0.03 0.06 0.02 0.07 0.02 0.07 0.02 0.07 0.02 0.07 0.02 0.07 0.02 0.07 0.01 0.07 0.01 0.07 0.01 0.07 0.01 0.07 0.01 0.07 0.01 0.07 0 0.07 0 0.08 0 0.08 -0 0.07 -0 0.07 -0 0.07 -0.01 0.07 -0.01 0.07 -0.01 0.07 -0.01 0.07 -0.01 0.07 -0.01 0.07 -0.02 0.07 -0.02 0.07 -0.02 0.07 -0.02 0.07 -0.02 0.07 -0.02 0.07 -0.03 0.06 -0.03 0.06 -0.03 0.06 -0.03 0.06 -0.03 0.06 -0.03 0.06 -0.03 0.06 -0.04 0.06 -0.04 0.06 -0.04 0.06 -0.04 0.06 -0.04 0.05 -0.04 0.05 -0.05 0.05 -0.05 0.05 -0.05 0.05 -0.05 0.05 -0.05 0.05 -0.05 0.05 -0.05 0.05 -0.05 0.05 -0.05 0.04 -0.06 0.04 -0.06 0.04 -0.06 0.04 -0.06 0.04 -0.06 0.03 -0.06 0.03 -0.06 0.03 -0.06 0.03 -0.06 0.03 -0.06 0.03 -0.06 0.03 -0.07 0.02 -0.07 0.02 -0.07 0.02 -0.07 0.02 -0.07 0.02 -0.07 0.02 -0.07 0.01 -0.07 0.01 -0.07 0.01 -0.07 0.01 -0.07 0.01 -0.07 0.01 -0.07 0 -0.07 0 -0.07 0 -0.08 -0 -0.08 -0 -0.08 -0 -0.07 -0.01 -0.07 -0.01 -0.07 -0.01 -0.07 -0.01 -0.07 -0.01 -0.07 -0.01 -0.07 -0.02 -0.07 -0.02 -0.07 -0.02 -0.07 -0.02 -0.07 -0.02 -0.07 -0.02 -0.06 -0.03 -0.07 -0.03 -0.07 -0.03 -0.06 -0.03 -0.06 -0.03 -0.06 -0.03 -0.06 -0.03 -0.06 -0.04 -0.06 -0.04 -0.06 -0.04 -0.06 -0.04 -0.06 -0.04 -0.06 -0.05 -0.05 -0.05 -0.05 -0.05 -0.05 -0.05 -0.05 -0.05 -0.05 -0.05 -0.05 -0.05 -0.05 -0.05 -0.05 -0.05 -0.05 -0.05 -0.05 -0.06 -0.04 -0.06 -0.04 -0.06 -0.04 -0.06 -0.04 -0.06 -0.04 -0.06 -0.03 -0.06 -0.03 -0.06 -0.03 -0.06 -0.03 -0.06 -0.03 -0.06 -0.03 -0.07 -0.03 -0.07 -0.02 -0.07 -0.02 -0.07 -0.02 -0.07 -0.02 -0.07 -0.02 -0.07 -0.02 -0.07 -0.01 -0.07 -0.01 -0.07 -0.01 -0.07 -0.01 -0.07 -0.01 -0.07 -0.01 -0.07 -0 -0.07 -0 -0.08 -0 -0.08 0zm-20.2 14.43l-0.07 0 -0.07 0 -0.07 0.01 -0.07 0.01 -0.07 0.01 -0.07 0.01 -0.07 0.01 -0.07 0.01 -0.07 0.02 -0.07 0.02 -0.07 0.02 -0.07 0.02 -0.07 0.02 -0.06 0.02 -0.07 0.03 -0.07 0.03 -0.06 0.03 -0.06 0.03 -0.06 0.03 -0.06 0.03 -0.06 0.03 -0.06 0.04 -0.06 0.04 -0.06 0.04 -0.06 0.04 -0.06 0.04 -0.05 0.05 -0.05 0.05 -0.05 0.05 -0.05 0.05 -0.05 0.05 -0.05 0.05 -0.05 0.05 -0.05 0.05 -0.05 0.05 -0.05 0.05 -0.04 0.06 -0.04 0.06 -0.04 0.06 -0.04 0.06 -0.04 0.06 -0.03 0.06 -0.03 0.06 -0.03 0.06 -0.03 0.06 -0.03 0.06 -0.03 0.07 -0.03 0.07 -0.02 0.06 -0.02 0.07 -0.02 0.07 -0.02 0.07 -0.02 0.07 -0.02 0.07 -0.01 0.07 -0.01 0.07 -0.01 0.07 -0.01 0.07 -0.01 0.07 -0.01 0.07 -0 0.07 -0 0.07 -0 0.08 0 0.08 0 0.07 0 0.07 0.01 0.07 0.01 0.07 0.01 0.07 0.01 0.07 0.01 0.07 0.01 0.07 0.02 0.07 0.02 0.07 0.02 0.07 0.02 0.07 0.02 0.07 0.02 0.07 0.03 0.07 0.03 0.07 0.03 0.06 0.03 0.06 0.03 0.06 0.03 0.06 0.03 0.06 0.04 0.06 0.04 0.06 0.04 0.06 0.04 0.06 0.04 0.06 0.05 0.05 0.05 0.05 0.05 0.05 0.05 0.05 0.05 0.05 0.05 0.05 0.05 0.05 0.05 0.05 0.05 0.05 0.05 0.05 0.06 0.04 0.06 0.04 0.06 0.04 0.06 0.04 0.06 0.04 0.06 0.03 0.06 0.04 0.06 0.03 0.06 0.03 0.06 0.03 0.07 0.03 0.07 0.03 0.06 0.02 0.07 0.02 0.07 0.02 0.07 0.02 0.07 0.02 0.07 0.02 0.07 0.01 0.07 0.01 0.07 0.01 0.07 0.01 0.07 0.01 0.07 0.01 0.07 0 0.07 0 0.08 0 0.08 -0 0.07 -0 0.07 -0 0.07 -0.01 0.07 -0.01 0.07 -0.01 0.07 -0.01 0.07 -0.01 0.07 -0.01 0.07 -0.02 0.07 -0.02 0.07 -0.02 0.07 -0.02 0.07 -0.02 0.06 -0.02 0.07 -0.03 0.07 -0.03 0.06 -0.03 0.06 -0.03 0.06 -0.03 0.06 -0.04 0.06 -0.03 0.06 -0.04 0.06 -0.04 0.06 -0.04 0.06 -0.04 0.06 -0.04 0.05 -0.05 0.05 -0.05 0.05 -0.05 0.05 -0.05 0.05 -0.05 0.05 -0.05 0.05 -0.05 0.05 -0.05 0.05 -0.05 0.05 -0.05 0.04 -0.06 0.04 -0.06 0.04 -0.06 0.04 -0.06 0.04 -0.06 0.03 -0.06 0.03 -0.06 0.03 -0.06 0.03 -0.06 0.03 -0.06 0.03 -0.07 0.03 -0.07 0.02 -0.07 0.02 -0.07 0.02 -0.07 0.02 -0.07 0.02 -0.07 0.02 -0.07 0.01 -0.07 0.01 -0.07 0.01 -0.07 0.01 -0.07 0.01 -0.07 0.01 -0.07 0 -0.07 0 -0.07 0 -0.08 -0 -0.08 -0 -0.07 -0 -0.07 -0.01 -0.07 -0.01 -0.07 -0.01 -0.07 -0.01 -0.07 -0.01 -0.07 -0.01 -0.07 -0.02 -0.07 -0.02 -0.07 -0.02 -0.07 -0.02 -0.07 -0.02 -0.07 -0.02 -0.06 -0.03 -0.07 -0.03 -0.07 -0.03 -0.06 -0.03 -0.06 -0.03 -0.06 -0.03 -0.06 -0.03 -0.06 -0.04 -0.06 -0.04 -0.06 -0.04 -0.06 -0.04 -0.06 -0.04 -0.06 -0.05 -0.05 -0.05 -0.05 -0.05 -0.05 -0.05 -0.05 -0.05 -0.05 -0.05 -0.05 -0.05 -0.05 -0.05 -0.05 -0.05 -0.05 -0.05 -0.05 -0.06 -0.04 -0.06 -0.04 -0.06 -0.04 -0.06 -0.04 -0.06 -0.04 -0.06 -0.03 -0.06 -0.03 -0.06 -0.03 -0.06 -0.03 -0.06 -0.03 -0.07 -0.03 -0.07 -0.03 -0.06 -0.02 -0.07 -0.02 -0.07 -0.02 -0.07 -0.02 -0.07 -0.02 -0.07 -0.02 -0.07 -0.01 -0.07 -0.01 -0.07 -0.01 -0.07 -0.01 -0.07 -0.01 -0.07 -0.01 -0.07 -0 -0.07 -0 -0.08 -0 -0.08 0zm-20.2 -5.77l-0.08 0 -0.07 0 -0.07 0.01 -0.07 0.01 -0.07 0.01 -0.07 0.01 -0.07 0.01 -0.07 0.01 -0.07 0.02 -0.07 0.02 -0.07 0.02 -0.07 0.02 -0.07 0.02 -0.07 0.02 -0.07 0.03 -0.06 0.03 -0.06 0.03 -0.06 0.03 -0.06 0.03 -0.06 0.03 -0.06 0.03 -0.06 0.04 -0.06 0.04 -0.06 0.04 -0.06 0.04 -0.06 0.04 -0.05 0.05 -0.05 0.04 -0.05 0.05 -0.05 0.05 -0.05 0.05 -0.05 0.05 -0.05 0.05 -0.05 0.05 -0.05 0.05 -0.04 0.05 -0.04 0.06 -0.04 0.06 -0.04 0.06 -0.04 0.06 -0.04 0.06 -0.03 0.06 -0.03 0.06 -0.03 0.06 -0.03 0.06 -0.03 0.06 -0.03 0.06 -0.03 0.07 -0.02 0.07 -0.02 0.07 -0.02 0.07 -0.02 0.07 -0.02 0.07 -0.02 0.07 -0.01 0.07 -0.01 0.07 -0.01 0.07 -0.01 0.07 -0.01 0.07 -0.01 0.07 -0 0.07 -0 0.08 -0 0.07 0 0.08 0 0.08 0 0.07 0.01 0.07 0.01 0.07 0.01 0.07 0.01 0.07 0.01 0.07 0.01 0.07 0.02 0.07 0.02 0.07 0.02 0.07 0.02 0.07 0.02 0.07 0.02 0.06 0.03 0.07 0.03 0.07 0.03 0.06 0.03 0.06 0.03 0.06 0.03 0.06 0.03 0.06 0.04 0.06 0.04 0.06 0.04 0.06 0.04 0.06 0.04 0.06 0.04 0.05 0.05 0.05 0.05 0.05 0.05 0.05 0.05 0.05 0.05 0.05 0.05 0.05 0.05 0.05 0.05 0.05 0.05 0.05 0.06 0.04 0.06 0.04 0.06 0.04 0.06 0.04 0.06 0.04 0.06 0.03 0.06 0.03 0.06 0.03 0.06 0.03 0.06 0.03 0.06 0.03 0.07 0.03 0.07 0.02 0.07 0.02 0.07 0.02 0.07 0.02 0.07 0.02 0.07 0.02 0.07 0.01 0.07 0.01 0.07 0.01 0.07 0.01 0.07 0.01 0.07 0.01 0.07 0 0.08 0 0.07 0 0.08 -0 0.08 -0 0.07 -0 0.07 -0.01 0.07 -0.01 0.07 -0.01 0.07 -0.01 0.07 -0.01 0.07 -0.01 0.07 -0.02 0.07 -0.02 0.07 -0.02 0.07 -0.02 0.07 -0.02 0.06 -0.02 0.07 -0.03 0.07 -0.03 0.06 -0.03 0.06 -0.03 0.06 -0.03 0.06 -0.03 0.06 -0.03 0.06 -0.04 0.06 -0.04 0.06 -0.04 0.06 -0.04 0.06 -0.04 0.05 -0.05 0.05 -0.05 0.05 -0.05 0.05 -0.05 0.05 -0.05 0.05 -0.05 0.05 -0.05 0.05 -0.05 0.05 -0.05 0.05 -0.05 0.04 -0.06 0.04 -0.06 0.04 -0.06 0.04 -0.06 0.04 -0.06 0.03 -0.06 0.03 -0.06 0.03 -0.06 0.03 -0.06 0.03 -0.06 0.03 -0.07 0.03 -0.07 0.02 -0.06 0.02 -0.07 0.02 -0.07 0.02 -0.07 0.02 -0.07 0.02 -0.07 0.01 -0.07 0.01 -0.07 0.01 -0.07 0.01 -0.07 0.01 -0.07 0.01 -0.07 0 -0.07 0 -0.08 0 -0.08 -0 -0.07 -0 -0.08 -0 -0.07 -0.01 -0.07 -0.01 -0.07 -0.01 -0.07 -0.01 -0.07 -0.01 -0.07 -0.01 -0.07 -0.02 -0.07 -0.02 -0.07 -0.02 -0.07 -0.02 -0.07 -0.02 -0.07 -0.02 -0.07 -0.03 -0.07 -0.03 -0.06 -0.03 -0.06 -0.03 -0.06 -0.03 -0.06 -0.03 -0.06 -0.03 -0.06 -0.04 -0.06 -0.04 -0.06 -0.04 -0.06 -0.04 -0.06 -0.04 -0.06 -0.05 -0.05 -0.05 -0.05 -0.05 -0.05 -0.05 -0.05 -0.05 -0.05 -0.05 -0.05 -0.05 -0.05 -0.05 -0.05 -0.05 -0.04 -0.05 -0.05 -0.06 -0.04 -0.06 -0.04 -0.06 -0.04 -0.06 -0.04 -0.06 -0.04 -0.06 -0.03 -0.06 -0.03 -0.06 -0.03 -0.06 -0.03 -0.06 -0.03 -0.07 -0.03 -0.07 -0.03 -0.06 -0.02 -0.07 -0.02 -0.07 -0.02 -0.07 -0.02 -0.07 -0.02 -0.07 -0.02 -0.07 -0.01 -0.07 -0.01 -0.07 -0.01 -0.07 -0.01 -0.07 -0.01 -0.07 -0.01 -0.07 -0 -0.08 -0 -0.08 -0 -0.07 0zm56.35 54.83l8.66 0 0 -54.82 0 -0.01 -0 -0 -0 0 0 0 -0 -0 -0.01 0 -8.62 0 -0.01 0 -0 0 0 0 -0 0 -0 0 0 0.01 0 54.82zm8.66 -54.83l0 0zm-0 -0l0 0zm-8.65 0l0 0zm-0 0l0 0zm-20.2 54.83l8.66 0 0 -40.38 0 -0.01 -0 0 0 -0 -0 0 0 -0 -0 0 -0.01 0 -8.62 0 -0.01 0 0 0 0 0 -0 0 0 0 -0 0 0 0.01 0 40.38zm8.65 -40.4l0 0zm-8.65 0l0 0zm-20.21 40.4l8.66 0 0 -25.95 0 -0.01 -0 -0 -0 0 0 -0 -0 -0 -0.01 0 -8.62 0 -0.01 0 -0 0 0 0 -0 0 -0 0 0 0.01 0 25.95zm8.66 -25.97l0 0zm-0 -0l0 0zm-8.65 0l0 0zm-0 0l0 0zm-20.2 25.97l8.66 0 0 -31.73 0 -0.01 -0 0 0 -0 -0 0 0 -0 0 -0 -0.01 0 -8.62 0 -0.01 0 0 0 -0 0 0 0 -0 0 0 0 -0 0 0 0.01 0 31.73zm8.65 -31.75l0 0z"/>
   <path class="fil0" d="M71.53 0c-19.04,0 -37.12,7.5 -50.58,20.95 -13.46,13.45 -20.95,31.55 -20.95,50.58 0,19.04 7.5,37.12 20.96,50.58 13.46,13.46 31.53,20.95 50.57,20.95 19.03,0 37.12,-7.5 50.57,-20.96 13.45,-13.46 20.96,-31.53 20.96,-50.57 0,-19.03 -7.49,-37.12 -20.95,-50.58 -13.46,-13.46 -31.55,-20.95 -50.58,-20.95zm47.47 24.06c12.63,12.63 19.66,29.61 19.66,47.47 0,17.87 -7.03,34.84 -19.66,47.47 -12.63,12.62 -29.61,19.66 -47.47,19.66 -17.87,0 -34.85,-7.03 -47.49,-19.66 -12.63,-12.63 -19.65,-29.61 -19.65,-47.47 0,-17.87 7.04,-34.85 19.66,-47.49 12.63,-12.63 29.61,-19.65 47.47,-19.65 17.86,0 34.84,7.04 47.47,19.66z"/>
  </g>
 </g>
</svg>
