<?xml version="1.0" encoding="UTF-8"?>
<!DOCTYPE svg PUBLIC "-//W3C//DTD SVG 1.1//EN" "http://www.w3.org/Graphics/SVG/1.1/DTD/svg11.dtd">
<!-- Creator: CorelDRAW 2018 (64-Bit) -->
<svg xmlns="http://www.w3.org/2000/svg" xml:space="preserve" width="9.849mm" height="9.849mm" version="1.1" style="shape-rendering:geometricPrecision; text-rendering:geometricPrecision; image-rendering:optimizeQuality; fill-rule:evenodd; clip-rule:evenodd"
viewBox="0 0 55.79 55.79"
 xmlns:xlink="http://www.w3.org/1999/xlink">
 <defs>
  <style type="text/css">
   <![CDATA[
    .fil0 {fill:#0E8694}
   ]]>
  </style>
 </defs>
 <g id="Layer_x0020_1">
  <metadata id="CorelCorpID_0Corel-Layer"/>
  <g id="_2540101104992">
   <path class="fil0" d="M27.9 0c-7.42,0 -14.48,2.92 -19.73,8.17 -5.25,5.25 -8.17,12.3 -8.17,19.73 0,7.43 2.93,14.48 8.18,19.73 5.25,5.25 12.3,8.17 19.72,8.17 7.42,0 14.48,-2.92 19.72,-8.17 5.25,-5.25 8.17,-12.3 8.17,-19.72 0,-7.42 -2.92,-14.48 -8.17,-19.73 -5.25,-5.25 -12.3,-8.17 -19.73,-8.17zm18.51 9.38c4.92,4.92 7.67,11.55 7.67,18.51 0,6.97 -2.74,13.59 -7.67,18.51 -4.93,4.92 -11.55,7.67 -18.51,7.67 -6.97,0 -13.59,-2.74 -18.52,-7.67 -4.93,-4.93 -7.66,-11.55 -7.66,-18.51 0,-6.97 2.74,-13.59 7.67,-18.52 4.92,-4.93 11.55,-7.66 18.51,-7.66 6.97,0 13.59,2.74 18.51,7.67z"/>
   <path class="fil0" d="M7.51 32.89c0.31,1.18 0.86,2.96 2.06,4.81 1.02,1.57 2.09,2.85 3.07,3.69 0.23,0.19 0.5,0.29 0.78,0.29 0.26,0 0.53,-0.09 0.76,-0.26 0.87,-0.67 1.93,-1.26 2.96,-1.83 0.26,-0.14 0.51,-0.28 0.75,-0.42 1.09,-0.61 2.09,-1.11 3.28,-0.99 1.58,0.16 3.15,0.88 6.26,2.3l0.3 0.14c0.89,0.41 1.48,0.68 2.4,0.77 2,0.18 3.59,-0.73 4.27,-1.11 2.82,-1.61 6.96,-4.45 12.34,-8.48 0.57,-0.48 1.52,-1.46 1.58,-2.66 0.04,-0.8 -0.27,-1.5 -0.88,-1.97 -0.76,-0.6 -1.94,-0.78 -3.02,-0.47 -0.79,0.23 -1.39,0.47 -1.9,0.73 0.6,-1.25 0.93,-2.62 0.93,-4.02 0,-5.12 -4.16,-9.29 -9.28,-9.29 -5.12,0 -9.29,4.17 -9.29,9.29 0,0.34 0.02,0.68 0.06,1.01 -1.36,-0.28 -2.93,-0.36 -4.62,0.07 -1.5,0.38 -2.85,1.11 -4.14,2.23 -0.29,0.25 -0.59,0.47 -0.88,0.63l-7.14 4.02c-0.54,0.31 -0.81,0.94 -0.66,1.54zm18.73 -9.49c0,-4.37 3.56,-7.93 7.93,-7.93 4.37,0 7.92,3.56 7.92,7.93 0,1.83 -0.64,3.61 -1.8,5.02 -0.26,-0.75 -0.79,-1.38 -1.49,-1.74 0.68,-0.95 1.04,-2.08 1.04,-3.27 0,-1.01 -0.27,-2.01 -0.78,-2.87 -0.19,-0.32 -0.61,-0.43 -0.93,-0.24 -0.32,0.19 -0.43,0.61 -0.24,0.93 0.39,0.66 0.59,1.41 0.59,2.18 0,1.1 -0.41,2.12 -1.14,2.91l-6.32 0c-0.74,-0.79 -1.14,-1.82 -1.14,-2.91 0,-2.38 1.93,-4.31 4.3,-4.31 0.91,0 1.78,0.28 2.52,0.81 0.31,0.22 0.73,0.15 0.95,-0.15 0.22,-0.31 0.15,-0.73 -0.15,-0.95 -0.97,-0.7 -2.12,-1.07 -3.31,-1.07 -3.12,0 -5.67,2.54 -5.67,5.67 0,0.97 0.26,1.92 0.72,2.76 -0.05,-0.03 -0.11,-0.05 -0.16,-0.09 -0.55,-0.35 -1.48,-0.88 -2.69,-1.29 -0.09,-0.44 -0.13,-0.91 -0.13,-1.4zm-12.11 6.15c0.06,0.27 0.13,0.55 0.21,0.86 0.08,0.31 0.36,0.51 0.66,0.51 0.06,0 0.11,-0.01 0.17,-0.02 0.36,-0.1 0.58,-0.47 0.49,-0.83 -0.1,-0.39 -0.19,-0.75 -0.26,-1.09 -0.01,-0.04 -0.02,-0.08 -0.03,-0.12l0.61 -0.34c0.38,-0.21 0.75,-0.48 1.11,-0.79 1.12,-0.98 2.29,-1.61 3.57,-1.93 0.72,-0.18 1.43,-0.26 2.1,-0.26 2.57,0 4.67,1.12 5.57,1.7 0.46,0.3 1,0.45 1.55,0.45l0.83 0c0,0 0,0 0,0 0,0 0.01,-0 0.01,-0l6.64 0c0.03,0 0.06,0.01 0.09,0.01 0.05,0.01 0.09,0.01 0.14,0.01 0,0 0,0 0,0 0.85,0.11 1.51,0.84 1.51,1.71 0,0.98 -0.83,1.78 -1.86,1.78l-7.42 0.01c-0.49,-0.08 -0.97,0.16 -1.2,0.6 -0.25,0.49 -0.05,1.01 0.05,1.17 0.47,0.76 3.9,1.28 3.94,1.28 0.67,0.08 1.09,-0.14 2.64,-0.94 0.37,-0.19 0.82,-0.42 1.36,-0.69 0.04,-0.02 0.07,-0.04 0.1,-0.06l0.53 0c1.44,0 2.66,-0.93 3.07,-2.21 0.51,-0.31 0.93,-0.58 1.3,-0.82 1,-0.66 1.67,-1.09 3.19,-1.54 0.65,-0.19 1.37,-0.1 1.79,0.23 0.26,0.2 0.38,0.48 0.36,0.83 -0.02,0.49 -0.44,1.12 -1.07,1.66 -5.22,3.91 -9.43,6.8 -12.16,8.36 -0.62,0.35 -1.9,1.08 -3.47,0.94 -0.68,-0.06 -1.11,-0.26 -1.95,-0.65l-0.3 -0.14c-3.25,-1.49 -4.88,-2.23 -6.68,-2.42 -0.5,-0.05 -0.96,-0.02 -1.4,0.06 -1,-0.9 -1.88,-1.91 -2.63,-3.01 -0.39,-0.57 -0.71,-1.19 -1,-1.89 -0.14,-0.35 -0.54,-0.52 -0.89,-0.37 -0.35,0.14 -0.52,0.54 -0.37,0.89 0.32,0.78 0.7,1.5 1.13,2.14 0.66,0.98 1.42,1.89 2.27,2.73 -0.41,0.18 -0.81,0.4 -1.2,0.62 -0.24,0.14 -0.49,0.27 -0.74,0.41 -1.04,0.57 -2.11,1.17 -3.04,1.88 -0.85,-0.75 -1.82,-1.92 -2.72,-3.31 -1.08,-1.67 -1.58,-3.23 -1.88,-4.42l5.3 -2.98zm19.6 3.02c-0.58,0.28 -0.78,0.36 -0.96,0.34 -0.46,-0.05 -1.09,-0.19 -1.66,-0.34l2.62 -0z"/>
  </g>
 </g>
</svg>
