<?xml version="1.0" encoding="UTF-8"?>
<!DOCTYPE svg PUBLIC "-//W3C//DTD SVG 1.1//EN" "http://www.w3.org/Graphics/SVG/1.1/DTD/svg11.dtd">
<!-- Creator: CorelDRAW 2018 (64-Bit) -->
<svg xmlns="http://www.w3.org/2000/svg" xml:space="preserve" width="31.6727mm" height="43.1826mm" version="1.1" style="shape-rendering:geometricPrecision; text-rendering:geometricPrecision; image-rendering:optimizeQuality; fill-rule:evenodd; clip-rule:evenodd"
viewBox="0 0 3015.44 4111.26"
 xmlns:xlink="http://www.w3.org/1999/xlink">
 <defs>
  <style type="text/css">
   <![CDATA[
    .fil2 {fill:#232323;fill-rule:nonzero}
    .fil1 {fill:#589B9F;fill-rule:nonzero}
    .fil0 {fill:#C5CDC0;fill-rule:nonzero}
    .fil3 {fill:black;fill-rule:nonzero}
   ]]>
  </style>
 </defs>
 <g id="Layer_x0020_1">
  <metadata id="CorelCorpID_0Corel-Layer"/>
  <g id="_2540104582192">
   <path class="fil0" d="M1007.35 1866.21c0,0 -198.35,233.03 -313.09,631.45 -114.74,398.41 -66.5,895.48 87.64,1149.86 154.13,254.36 278.28,423.68 614.66,451.6 373.51,31.01 590.61,4.21 882.07,-162.1 291.46,-166.31 396.46,-255.06 470.68,-395.09 74.21,-140.04 154.41,-304.14 103.51,-618.52 -50.9,-314.39 -117.18,-420.45 -267.57,-675.04 -150.38,-254.59 -251.94,-303.96 -308.57,-420.91 -56.64,-116.96 -342.07,-399.75 -389.77,-462.89 -47.7,-63.12 -338.71,-392.21 -338.71,-392.21l-268.53 -279.28 27.76 -117.86 -168.8 135.24 -282.81 -118.81 -185.17 -43.01c0,0 -81.05,147.69 -84.14,159.41 -3.09,11.72 52.72,260.12 53.46,260.27 0.73,0.13 95.26,287.89 89.37,289.08 -5.89,1.18 -75.68,56.05 -75.68,56.05l182.29 268.39c0,0 -60.1,79.29 -38.48,101.42 21.62,22.14 209.87,182.96 209.87,182.96z"/>
   <path class="fil0" d="M1473.68 170.64c0,0 -17.67,-120.34 -280.52,-117.75 -262.86,2.59 -385.62,45.07 -477.41,122.78 -91.8,77.71 -301.26,164.46 -359.85,234.12 -58.59,69.65 -92.32,109.7 -147.71,142.5 -55.4,32.8 -135.47,53.08 -152.07,89.81 -16.59,36.73 -36.8,264.91 73.19,323.98 109.98,59.07 141.46,63 208.04,50.14 66.6,-12.87 122.06,-108.88 122.06,-108.88l25.45 -124.83 11.82 -140.4c0,0 58.44,-90.38 63.31,-89.81 4.89,0.57 100.59,-39.31 100.59,-39.31l104.15 10.96c0,0 111.01,39.08 117.52,43.28 6.5,4.2 69.55,-35.69 71.21,-39.26 1.65,-3.57 48.69,-87.75 48.69,-87.75l43.24 -52.23 41.57 -105.27c0,0 -3.11,-31.09 29.38,-66.24 32.48,-35.16 52.03,-62.48 107.93,-59.96 55.91,2.52 164.3,2.28 208.24,8.18 43.95,5.88 41.19,5.97 41.19,5.97z"/>
   <path class="fil1" d="M926.86 574.01c0,0 44.18,144.5 217.86,106.1 173.69,-38.4 213.21,-205.05 213.21,-205.05 0,0 0.27,99.7 31.79,167.03 31.54,67.33 149.65,265.27 213.63,323.84 63.98,58.57 259.81,290.98 259.81,290.98 0,0 130.69,166 217.74,245.42 87.06,79.42 242.64,338.53 384.57,360.65 141.91,22.14 505.78,45.36 523.71,44.81 17.92,-0.54 45.56,-102.93 -58.1,-397.42 -103.65,-294.48 101.61,-579.78 36.96,-612.51 -64.64,-32.73 -722.08,51.97 -722.08,51.97l-43.49 -178.82c0,0 -189.44,-141.94 -291,-264.52 -101.56,-122.59 -213.9,-226.11 -308.11,-265.16 -94.21,-39.05 -264.04,-49.24 -315.84,-26.56 -51.79,22.66 57.57,90.18 11.68,83.76 -45.9,-6.42 -39.96,-106.3 -113.24,-68.07 -73.28,38.22 -77.35,100.24 -111.44,160.04 -34.1,59.8 -147.67,183.49 -147.67,183.49z"/>
   <path class="fil1" d="M728.31 532.35c0,0 -77.36,89.82 34.87,91.29 112.22,1.48 173.88,12.82 217.38,29.15 43.51,16.32 59.69,27.63 108.6,27.32 48.91,-0.31 94.24,-16.41 94.81,4.27 0.58,20.67 35.69,88.79 -35.37,142.68 -71.07,53.91 -357.32,61.8 -386.05,66.63 -28.74,4.84 -133.73,20.44 -200.28,-68.38 -66.56,-88.8 -28.66,-171.88 -6.2,-195.8 22.47,-23.93 81.73,-65.41 98.97,-80.8 17.24,-15.39 7.25,-51.34 73.26,-16.37z"/>
   <path class="fil1" d="M668.39 893.69c0,0 -96.18,124.25 -54.92,213.46 41.25,89.22 55.07,157.57 322.79,109.72 267.72,-47.85 377.8,-99.33 408.46,-123.87 30.66,-24.55 126.12,-78.86 77.91,-188.91 -48.23,-110.04 -162.34,-73.91 -250.78,-37.78 -88.44,36.13 -429.23,76.87 -456.09,64.31 -26.86,-12.56 -47.37,-36.93 -47.37,-36.93z"/>
   <path class="fil1" d="M707.77 1261.47c0,0 23.98,2.61 181.25,-5.21 157.26,-7.81 354.42,-82.24 435.89,-114.45 81.47,-32.21 133.23,-28.47 165.22,9.15 31.98,37.63 55.94,182.76 -37.77,219.7 -93.71,36.95 -230.34,5.83 -295.67,53.09 -65.34,47.25 -224.44,125.26 -267.67,120.16 -43.25,-5.1 -140.51,-49.36 -166.75,-96.6 -26.25,-47.22 -48.36,-120.74 -31.43,-153.29l16.93 -32.55z"/>
   <path class="fil1" d="M831.93 1627.98c0,0 -17.7,-11.72 79.77,-35.15 97.47,-23.44 148.03,-79.55 230.38,-100.83 82.34,-21.29 212.37,-130.87 267.25,-72.63 54.9,58.24 31.01,188.38 -114.27,275.64 -145.28,87.26 -195.92,139.99 -239.93,136.09 -44,-3.9 -146.32,-59.04 -185.99,-82.25 -39.65,-23.21 -32.85,-79.85 -37.23,-120.86z"/>
   <path class="fil2" d="M1051.11 798.9c-0.7,0.43 -1.4,0.79 -2.1,1.17 1.64,-0.13 3.27,-0.33 4.88,-0.59 -0.94,-0.36 -1.89,-0.7 -2.86,-1.1 0.03,0.18 0.07,0.33 0.08,0.52z"/>
   <path class="fil2" d="M1132.41 812.42c7.7,-1.21 10.23,-8.3 14.82,-13.03l0 0c2.64,-1.96 5.28,-3.91 7.92,-5.87 0.3,-1.35 0.23,-2.68 -0.22,-3.98 0.75,-1.69 1.44,-3.38 2.1,-5.06 -3.43,5.77 -7.52,11.08 -13.47,15.08 -7.6,10.42 -17.66,17.28 -28.86,22.51 0.92,-0.22 1.86,-0.41 2.78,-0.64 4.97,-3 9.95,-6 14.92,-9z"/>
   <path class="fil2" d="M1456.65 964.45c-2.27,-0.19 -5.06,-0.57 -8.55,-1.09 1.72,2.71 4.24,3.61 8.55,1.09z"/>
   <path class="fil2" d="M1557.1 612.35c1.78,-0.35 3.66,-0.51 5.54,-0.62 1.76,-0.81 3.56,-1.43 5.39,-1.98 -0.31,0.03 -0.62,0.06 -0.91,0.09 -2.73,0.87 -5.46,1.7 -8.31,2.09 -0.56,0.14 -1.13,0.28 -1.7,0.43z"/>
   <path class="fil2" d="M1429.76 923.88c-22.23,-75.26 -79.1,-97.07 -150.06,-98.02 -38.53,-0.51 -76.23,5.57 -113.96,11.97 -8.24,1.4 -16.53,2.39 -27.9,4.02 15.37,-19.83 26.94,-38.84 31.75,-60.85 -3.41,5.76 -6.63,11.7 -12.31,15.31 -12.26,11.43 -24.78,22.53 -41.31,27.52 -8.75,3.79 -17.71,6.99 -26.8,9.81 -36.36,15.57 -75.17,22.25 -114.24,26.89 -77.05,9.14 -152.81,27.57 -230.43,32.23 -29.14,1.74 -58.4,1.86 -86.88,-6.65 -38.27,-18.68 -75.57,-38.83 -105.08,-70.55 -3.57,-3.84 -6.75,-8.04 -10.11,-12.06 -11.42,-5.82 -14.05,-17.5 -18.76,-27.84 -5.37,-10.7 -5.64,-22.77 -9.18,-33.98 -1.67,-13.14 -4.27,-26.42 4.79,-38.2 1.4,-0.77 2.78,-1.29 4.13,-1.69 -6.27,-6.39 -4.41,-13.91 -2.47,-21.23 6.1,-22.94 15.17,-43.68 29.08,-60.8 -8.07,7.99 -15.76,16.38 -22.67,25.52 -6.09,9.14 -13.31,17.94 -17.89,27.56 1.15,-7.21 3.79,-13.87 7.17,-20.3 2.13,-4.45 4.11,-8.96 6.03,-13.51 -2.62,2.88 -5.23,5.79 -7.79,8.74 -11.82,18.15 -23.63,36.28 -24.46,58.97 -0.26,0.21 -0.4,0.45 -0.62,0.67 1.09,0.18 2.39,0.57 3.97,1.22 5.07,12.05 6.55,23.85 -2.29,34.95 -0.59,9.75 0.18,19.2 2.88,28.27 0.39,-4.76 0.78,-9.51 1.16,-14.27 11.98,-16.09 1.72,-35.54 7.89,-52.53 0.73,-3.33 1.26,-6.7 1.75,-10.08 0.35,3.74 1.22,7.65 2.87,11.79 1.05,12.19 -2.86,24.51 1,36.61 -1.19,0.87 -2.36,1.89 -3.47,3.24 -2.82,13.74 -0.83,25.95 8.81,35.78 -0.2,0.62 -0.4,1.25 -0.57,1.95 -0.34,3.42 0.01,6.77 1.07,10.03 6.7,13.92 12.02,28.83 26.75,36.92 29.56,31.89 62.21,59.26 105.85,69.47 10.83,2.54 8.56,6.18 4.71,13.99 -13.36,27.15 -26.03,54.66 -38.69,82.15 16.16,-19.88 26.52,-43.05 34.75,-66.9 6.9,-20.01 17.37,-26.98 37.1,-19.6 6.17,0.05 12.33,0.09 18.5,0.12 109.69,-7.43 218.56,-23.79 328.53,-28.55 53.21,-2.3 102.7,-25.67 155.06,-33.51 43.47,-6.52 87.29,-7.89 130.67,2.46 15.38,2.1 29.56,7.83 43.16,14.9 75.38,39.2 85.79,133.62 19.83,187.44 -34.36,28.05 -73.42,45.11 -118.72,50.71 -39.39,4.87 -76.06,22.79 -113.9,35.05 -21.81,7.05 -43.04,16.01 -65.84,19.78 -7.16,3.4 -14.46,6.22 -22.61,5.6 -28.77,10.11 -58.17,17.73 -88.27,22.68 -62.55,22.36 -127.25,33.89 -193.45,36.17 -53.86,1.87 -100.86,-52.94 -95.66,-109.09 2.28,-24.66 3.58,-49.39 1.59,-74.52 -11.67,35.66 -26.66,70.27 -21.4,109.56 -24.34,-13.1 -43.61,-36.59 -54.54,-62.86 8.79,42.35 26.33,81.09 58.05,114.03 5.39,11.79 14.62,17.95 27.5,18.78 7.16,3.11 14.83,9.68 21.39,8.72 23.9,-3.51 11.83,6.32 7.07,13.67 70.83,-6.68 141.51,-15.12 212.74,-16.84 41.79,-1.02 81.1,-13.88 121.48,-22.75 64.08,-14.07 122.46,-44.68 186.63,-56.84 10.62,-5.22 21.96,-7.31 33.65,-8.04 2.76,-0.31 5.51,-0.62 8.26,-0.93 6.9,-5.44 15.52,-4.2 23.35,-5.98 7.25,-5.56 15.68,-2.5 23.58,-3.3 4.64,-1.61 9.27,-3.21 13.92,-4.82 0.84,0.26 1.69,0.51 2.53,0.77 2.18,-0.81 4.36,-1.64 6.54,-2.44 6.06,0 12.09,-0.01 18.13,0 0.51,-0.62 1.02,-1.26 1.56,-1.85 7,0.08 14,0.14 20.99,0.22 0.38,0.54 0.8,1.04 1.2,1.56 9.25,-0.14 19.03,1.97 26.42,-6.39 0.97,-0.26 1.88,-0.68 2.76,-1.17 -9.63,-1.51 -19.27,-3.04 -28.91,-4.57 -14.03,-3.97 -28.38,-3.64 -42.74,-3.05 -2.35,-1.56 -9.33,-1.85 -2.27,-6.32 8.3,-5.26 16.66,-10.65 25.58,-14.67 38.29,-17.23 64.05,-44.95 74.05,-86.33 2.73,-6.26 4.48,-12.54 5.52,-18.84 -7.73,6.26 -15.62,12.37 -23.14,18.84 0.98,-24.77 2.18,-49.55 -4.4,-73.88z"/>
   <path class="fil2" d="M1125.43 798.17c0.48,-0.44 0.95,-0.89 1.44,-1.32 2.42,-1.84 4.89,-3.54 7.85,-3.67 -0.38,-1.77 -0.6,-3.54 -0.51,-5.36 0.46,-1.18 0.83,-2.36 1.22,-3.54 -0.88,0.02 -1.72,0.1 -2.59,0.19 -4.43,3.56 -6.39,8.39 -7.4,13.71z"/>
   <path class="fil2" d="M1069.24 821.13c9.64,-1.58 19.33,-4.74 29.4,-2.99 0.59,0.21 1.15,0.42 1.72,0.64 1.6,-5.13 6.83,-6.83 10.97,-9.56 4.92,-2.55 8.93,-6.26 12.93,-9.98 -2.99,-0.21 -5.97,-0.42 -8.96,-0.64 -1.77,-3.11 -0.06,-9.48 -7.44,-7.27 -5.76,1.73 -11.61,3.28 -17.64,3.63 -2.21,0.27 -4.43,0.48 -6.65,0.66 -8.16,7.86 -17.91,7.99 -28.43,4.34 -2.73,0.41 -5.47,0.81 -8.21,1.22 -3.49,1.7 -7.04,2.95 -10.64,3.72 2.41,1.25 5.28,1.97 7.8,3.1 2.65,0.3 5.29,0.62 7.95,0.91 15,-0.21 30.02,-0.43 45.02,-0.64 -14.96,6.81 -30.97,7.85 -47.03,8.58 -6.1,-0.05 -12.21,-0.08 -18.32,-0.1 -10,0.9 -19.89,0.87 -29.32,-3.28l0 0c-4.08,0.14 -8.16,0.28 -12.22,0.42 -8.5,-0.12 -12.81,-6 -18.09,-13.62 8.7,-4.26 17.17,-2.8 25.53,-2 0.01,0 0.02,0 0.03,0 13.58,-4.18 27.58,-4.45 41.61,-4.47 1.48,-0.38 2.97,-0.84 4.39,-1.11 9.91,-2.53 19.82,-5.06 29.74,-7.59 17.3,-15.85 41.99,-14.67 60.78,-28.16 2.51,4.83 2.31,9.14 1.43,13.23 1.31,-0.41 2.44,-0.61 3.45,-0.68 2.78,-17.6 0.57,-35.18 -2.34,-52.74 -2.48,3.15 -5.43,5.76 -8.84,7.91 -3.07,4.67 -9.96,7.02 -22.55,10.16 -44.02,11 -89.29,12.48 -134.04,18.01 -3.67,0.45 -6.33,0.44 -8.33,-0.06 -0.59,4.85 -0.77,9.75 -0.38,14.6 1.97,24.38 9.67,46.01 36.05,54.82 0.18,0.18 0.39,0.31 0.57,0.49 23.23,4.79 46.57,2.29 70.09,-1.56z"/>
   <path class="fil2" d="M292.56 1011.37c0.34,0.3 0.77,0.61 1.38,0.92 -0.12,-0.72 -0.66,-0.94 -1.38,-0.92z"/>
   <path class="fil2" d="M606.46 839.32c-3.31,-2.25 -6.57,-4.54 -9.81,-6.88 2.63,3.25 6.04,5.33 9.81,6.88z"/>
   <path class="fil2" d="M3013.11 1875.81c-13.03,-7.73 -27.52,-8.64 -42.15,-9.12 -50.67,-1.69 -101.34,-3.45 -152.02,-5.18 -21.92,-4.49 -44.35,0.65 -66.29,-3.42 -33.91,1.6 -67.57,-2.31 -101.15,-5.85 -87.33,-9.21 -173.63,-23.5 -254.43,-60.23 -109.18,-49.63 -174.9,-131.71 -189.3,-252.87 -9.63,-80.93 3.89,-159.34 21.95,-237.55 7.08,-30.68 13.59,-61.5 19.88,-92.35 2.14,-10.55 1.49,-10.68 -8.59,-8.27 -4.01,2.47 -7.05,5.82 -9.08,10.31 0.15,2.11 -0.29,2.29 -1.43,0.73 0,0 0.34,-0.43 0.91,-1.1 3.19,-4.47 3.38,-10.11 4.81,-15.36 4.14,-18.37 18.02,-33.47 19.04,-53.75 -2.49,0.87 -4.37,0.91 -5,1.83 -5.69,8.2 -11.45,16.37 -16.66,24.87 -52.78,86.32 -93.96,177.39 -112.87,277.51 -2.43,3.21 -2.43,6.57 -0.67,10.05 -2.12,-2.77 -2.42,-6.43 -4.53,-9.24 -1.28,-1.72 -2.21,-3.71 -3.71,-5.3 -16.75,-29.12 -34.09,-57.71 -65.78,-73.42 -8.58,-4.26 -17.77,-13.02 -26.91,-4.5 -8.21,7.65 -3.86,18.29 -0.09,27.51 1.41,3.45 3.27,6.7 4.91,10.05 2.51,9.39 7.83,17.17 13.8,24.55 -5.62,1.95 -10.68,-1.42 -15.69,-4.68 -6.81,-4.45 -13.33,-9.39 -21.29,-11.74 -6.04,-5.75 -13.15,-10.72 -17.95,-17.37 -38.05,-52.73 -77.58,-104.3 -119.68,-153.87 -5.86,-1.9 -11.56,-3.58 -17.66,-0.08 -7.4,3.42 -11.65,-1.88 -15.65,-6.26 -22.77,-24.93 -45.16,-50.22 -69.54,-73.62 40,43.79 79.32,88.17 116.68,134.29 3.49,14.25 15.16,21.2 25.88,28.98 1.99,3.01 3.98,6.01 5.97,9.01 1.71,4.69 4.89,7.82 9.75,9.16 39.96,42.97 79.93,85.93 119.88,128.9 64.94,72.16 120.46,151.48 175.97,230.83 3.07,4.39 6.06,9.97 10.46,12.08 44.04,21.05 65.9,61.21 86.25,101.71 14.31,28.49 34.6,43.02 66.08,49.76 103.2,22.09 207.89,32.86 312.32,45.95 10.66,4.84 22.59,-1.63 33.19,3.76 7.65,0.11 15.31,-0.12 22.93,0.4 62.01,4.21 123.94,9.64 186.2,8.57 28.49,-0.49 54.6,-6.78 75.54,-27.6 6.79,-4.47 10.89,-9.81 5.72,-18.07z"/>
   <path class="fil2" d="M736.6 520.97c1.12,-0.52 2.25,-1.06 3.37,-1.58 -1.29,0.17 -2.45,0.62 -3.37,1.58z"/>
   <path class="fil2" d="M1441.52 1115.56c-1.14,2.42 -2.23,4.84 -2.93,7.34 3.45,-0.67 4.34,-3.09 2.93,-7.34z"/>
   <path class="fil2" d="M759.35 521.66c-7.58,0.13 -15.17,-0.42 -22.74,-0.7 -6.01,1.25 -11.42,0.88 -19.19,-8.44l37.21 0c3.17,-0.58 6.03,-0.19 7.69,2.98 1.76,3.32 0.89,6.09 -2.96,6.16zm712.07 -10.79c-0.94,1.09 -1.57,2.44 -1.71,4.19 -0.3,-0.23 -0.56,-0.49 -0.89,-0.7 -1.92,-0.7 -3.92,-1.16 -5.98,-1.26 -0.78,0.08 -1.57,0.14 -2.35,0.22 3.58,-1.29 7.18,-2.42 10.93,-2.46zm245.29 527c-3.53,-8.97 -0.86,-18.26 1.36,-27.2 -1.53,-10.63 -11.4,-8.54 -17.82,-11.37 -28.71,-12.61 -58.43,-23.58 -78.12,-50.23 -0.17,-1.57 -0.49,-3.03 -0.75,-4.51 -12.16,-8.47 -21.98,-19.18 -30.19,-31.44 -0.43,-0.1 -0.79,-0.26 -1.23,-0.36 -3.08,-1.26 -5.2,-3.42 -6.24,-6.61 -0.05,-0.89 -0.09,-1.77 -0.12,-2.65 -5.58,-5.89 -9.66,-12.69 -11.74,-20.7 -10.37,-10.27 -6.83,-30.66 -31.08,-35.32 21.92,-5.8 39.49,-10.79 57.47,-11.72 2.45,-2.28 4.94,-4.54 7.5,-6.76 25.89,-7.8 52.37,-11.38 79.35,-11.42 2.97,0.35 5.95,0.28 8.92,0.05 0.18,-0.1 0.37,-0.22 0.55,-0.33 -40.22,0.2 -80.36,4.57 -120.66,-2.31 -46.74,-7.98 -81.31,-41.14 -88.3,-87.42 -1.89,-12.57 7.25,-21.39 8.84,-32.5 -3.42,-3.87 -6.91,-3.86 -10.35,-2.96 -1.44,0.76 -2.8,1.21 -4.11,1.33 -0.87,0.3 -1.73,0.59 -2.57,0.8 -10.05,2.55 -20.64,5.17 -26.49,-6.04 -6.38,-12.23 1.45,-20.11 11.26,-26.3 3.66,-1.67 7.36,-3.28 10.66,-5.48 -3.65,1.55 -7.32,3.08 -11.18,4.09 -4.28,0.06 -8.48,6.54 -12.07,2.3 -3.94,-4.67 -1.7,-10.39 3.64,-13.44 9.32,-5.35 19.03,-9.87 29.81,-11.39 0.53,-1.76 1.29,-3.45 2.74,-4.87 9.97,-8.15 21.7,-10.48 34.17,-10.36 3.18,-0.08 6.21,0.15 9.17,0.52 6.11,-2.24 12.53,-3.45 19.11,-4.09 -0.02,-0.31 -0.09,-0.58 -0.08,-0.91 1.8,-3.05 4.27,-4.61 7.07,-5.46 -30.82,7.74 -61.75,13.04 -93.12,2.72 -16.16,-5.31 -28.99,-14.48 -29.69,-33.45 -0.74,-20.12 -1.2,-40.49 22.11,-50.15 11.23,-3.3 19.9,-13.41 32.72,-12.6 0.62,0.3 1.23,0.64 1.83,0.97 5.46,-4.68 10.91,-9.37 16.38,-14.05 -0.19,-0.73 -0.33,-1.47 -0.4,-2.23 1.14,-11.1 11.32,-15.79 16.72,-23.64 0.76,-0.66 1.23,-1.04 1.23,-1.04 -0.22,-1.89 -1.01,-2.15 -2.55,-0.73 -1.81,0.47 -3.47,0.61 -5.26,0.57 -2.69,-0.92 -5.28,-1.75 -7.83,-2.2 -8.81,11.85 -20.44,17.26 -33.68,18.59 -8.84,3.52 -18.63,4.65 -28.97,4.21 -3.28,-0.13 -6.5,-0.03 -9.58,0.48 -1.1,1.89 -1.84,4.29 -2.07,7.42 1.49,1.5 3.04,2.88 4.64,4.09 0.02,0 0.04,0.01 0.07,0.02 0,0 0,0 0,-0.01 7.7,-2.2 15.46,-8.36 22.98,0.39 -2.91,1.31 -5.82,2.63 -8.72,3.94 -1.63,0.06 -3.25,0.11 -4.87,0.17 -12.52,6.15 -24.45,5.56 -35.9,-0.41 -1.26,0.41 -2.55,0.72 -3.95,0.84 -4.45,0.13 -8.41,-1.11 -11.79,-4.05 -1.61,-1.82 -3.41,-3.37 -5.37,-4.69 -2.25,-0.46 -4.34,-1.31 -6.08,-3.08 -0.25,-0.09 -0.48,-0.21 -0.73,-0.3 -0.44,-0.41 -0.81,-0.87 -1.14,-1.32 -7.01,-1.84 -14.1,-3.69 -24.24,-6.34 17.12,-10.92 31.43,-22.06 43.55,-35.3 0.25,-3.35 0.33,-6.77 0.1,-10.33 14.74,-33.18 15.57,-66.72 4.13,-101.12 -4.59,-13.81 -4.69,-28.84 -8.59,-42.9 -1.72,-6.22 -3.9,-14.68 -11.09,-14.6 -1.29,4.42 1.03,9.61 3.64,15.5 15.85,35.91 16.85,72.95 5.54,110.18 -2.36,7.78 -3.83,17.99 -15.34,20.56 0.66,-4.08 0.95,-8.09 1,-12.07 -0.99,1.85 -2.06,3.67 -3.26,5.45 -3.07,4.51 -7.05,8.61 -13.16,7.77 -7.55,-1.04 -6.52,-7.62 -6.81,-12.66 -1.07,-19.27 -7.31,-37.71 -8.91,-56.9 -0.47,-5.55 -0.59,-12.88 -8.09,-13.35 -3.37,4.32 -5.27,9.78 -5.13,16.58 0.3,15.36 -1.04,31.23 2.33,45.96 10.42,45.51 -0.76,84.81 -29.89,120.05 -37.08,37.29 -78.45,66.12 -128.76,77.13 -21.5,6.08 -46.66,10.41 -78.45,14.27 0.3,0.69 0.7,1.3 1.19,1.88 12.21,3.11 20.9,1.97 29.65,0.48 21.18,-3.63 42.39,-7.15 63.77,-9.43 5.98,-0.64 13.49,-1.58 15.96,5.44 0.1,0.3 0.1,0.56 0.17,0.86 5.35,-0.7 10.69,-1.38 16.03,-2.1 -7.15,4.99 -14.38,9.39 -21.65,13.41 -1.08,0.9 -2.2,1.76 -3.24,2.61 -6.59,5.4 -14.18,9.16 -22.12,12.16 -60.21,22.81 -120.91,27.24 -182.32,4.8 -27.29,-11.83 -51.8,-26.81 -65.11,-55.28 -11.76,-25.12 -7.71,-32.08 19.54,-30.79 40.1,1.89 79.69,-0.5 118.67,-10.96 23.23,-6.24 38.74,-19.22 46.79,-42.83 1.14,-3.33 2.28,-6.66 3.42,-10 -9.94,20.02 -26.05,34.15 -46.49,41.01 -10.62,5.7 -23.03,9.28 -37.48,10.65 -17.52,1.67 -35.36,1.75 -52.92,0.56 -14.99,-1.03 -29.76,-4.9 -48.36,-8.17 27.94,-35.27 33.25,-76.91 46.99,-115.25l-0.78 0.82c-13.19,20.74 -23.98,42.44 -32.49,65.65 -9.75,26.59 -24.63,41.74 -44.78,46.1 -19.91,10.95 -45.81,9.79 -75.79,-3.89 -8.88,-1.18 -17.07,-3.52 -21.1,-12.75 -0.01,-0.03 -0.01,-0.06 -0.01,-0.09 -2.83,1.81 -5.86,-0.1 -8.87,-1.09 -5.17,-2.92 -9.11,-7.44 -13.95,-10.82 -6.16,-3.83 -8.21,-10.82 -12.38,-16.19 -4.13,-5.13 -7.99,-10.66 -14.42,-12.65 -1.53,0.32 -3.08,0.56 -4.61,0.79 -5.57,11.25 -16.66,6.64 -25.22,6.52 -42.47,-0.54 -84.54,0.98 -124.51,14.34 -19.85,8.07 -38.95,18.62 -57.23,31.91 -6.74,4.96 -12.57,10.94 -18.6,16.68 -31.3,29 -49.57,65.49 -60.85,105.97 -1.72,8.23 -2.96,16.58 -5.31,24.67 -2.15,17.29 -2.93,34.55 0.58,51.81 0.96,1.73 2.46,3.44 3.92,5.14 -1.91,4.59 -1.93,9.12 0.41,13.6 0.17,0.1 0.34,0.19 0.52,0.28 -1,0.77 -2.17,1.53 -3.68,2.33 -2.95,7.57 -2.95,15.14 0.09,22.71 0.16,1.54 1.19,2.51 2.52,3.28 -8.92,17.46 -13.52,35.33 -4.83,54.46 -1.33,9.97 -2.66,19.94 -3.99,29.91 -0.37,0.32 -0.73,0.65 -1.15,0.96 -6.47,5.71 -10.4,13.04 -13.33,20.97 -10.83,29.19 -28.21,53.71 -52.33,73.45 -13.51,10.56 -27.97,19.34 -44.69,23.88 -5.49,2.2 -11.12,3.87 -16.82,5.26 -7.09,3.99 -14.57,6.45 -22.45,7.25 -0.65,0.63 -1.32,1.21 -1.9,1.89 -1.4,-0.61 -2.8,-1.11 -4.19,-1.59 -1.26,-0.01 -2.52,-0.03 -3.8,-0.11l-1.47 1.22 -1.82 -0.59c-0.38,1.18 -0.93,2.27 -1.66,3.27 -15.29,0.22 -30.58,0.43 -45.87,0.65 -9.94,-6.71 -23.2,-1.25 -32.87,-8.97 -40.54,-6.36 -74.54,-25.83 -98.97,-57.85 -58.73,-76.97 -89.81,-190.28 -29.49,-293.44 19.85,-33.94 48.33,-54.2 83.38,-67.89 20.54,-23.08 49.64,-37.76 64.78,-66.12 4.94,-12.21 12.37,-22.87 20.44,-33.14 1.94,-2.98 3.88,-5.96 5.83,-8.94 0,0 0,0 0.01,0 -0.01,0 -0.01,0 -0.01,0 7.11,-15.23 15.68,-29.49 27.51,-41.6 39.84,-62.48 97.69,-101.96 165.11,-129.21 14.75,-5.97 29.44,-12.1 44.15,-18.16 58.46,-15.93 116.55,-33.49 177.26,-39.24 50.86,-4.84 101.28,-5.4 150.63,11.23 4.55,1.52 9.01,3.33 13.39,5.34 60.18,19.98 88.28,64.97 82.83,133.2 -0.18,2.3 0.14,4.6 0.53,6.87 2.96,9.6 8.63,15.7 16.14,19.4 3.59,-1.12 7.18,-2.24 10.76,-3.35 16.57,-13.56 6.48,-30.12 5.16,-45.71 -11.22,-46.49 -39.08,-81.66 -74.17,-112.78 -14.75,-13.08 -27.32,-29.1 -38.82,-45.26 -22.86,-32.11 -51.7,-50.92 -90.58,-50.37 -1.31,0.84 -2.62,1.71 -3.9,2.64 -0.74,0.43 -1.3,1.05 -1.83,1.69 -0.33,-0.34 -0.68,-0.69 -1.02,-1.04 0.32,-0.25 0.64,-0.52 0.88,-0.83 1.34,-0.79 2.66,-1.59 3.96,-2.41 -2.22,0.07 -4.45,0.16 -6.73,0.35 -4.61,1.61 -9.21,3.22 -13.81,4.83 -4.06,0.75 -6.04,-0.54 -4.84,-4.94 11.28,-5.86 18.54,-16.12 27.11,-24.93 2.08,-16.11 -14.34,-12.31 -22.55,-21.13 36.79,-25.75 76.65,-42.42 120.09,-51.06 19.47,-7.37 39.48,-12.27 60.33,-13.46 140.31,-25.51 280.62,-50.22 421.78,-5.11 9.96,3.18 20.32,5.34 29.21,11.13 2.19,0.75 4.39,1.51 6.57,2.3 2.11,0.43 4.13,1.06 5.93,2.2 0.35,0.13 0.71,0.27 1.07,0.4 5.31,2.1 10.92,3.37 16.06,5.92 9.79,5.43 20.11,9.96 28.42,17.72 5.25,4.72 10.29,9.64 14.29,15.51 9.08,9.7 6.98,27.3 22.84,32.2 14.27,12.02 20.99,8.47 23.53,-9.84 1.05,-7.61 -1.27,-13.35 -3.67,-19.46 -10.54,-26.71 -28.46,-48.07 -49.39,-67.18 -1.95,-6.85 -8.8,-6.57 -13.58,-9.3 -23.12,-10.22 -46.19,-20.5 -71.69,-23.49 -161.15,-18.87 -321.72,-19.69 -481.18,15.16 -3.7,1.28 -8.48,-0.1 -10.87,4.43 -24.85,13.32 -50.15,25.89 -74.45,40.12 -59.21,34.68 -108.54,82.12 -160.55,126.07 -1.91,0.94 -3.24,2.44 -4.02,4.42 0.03,0.67 -0.04,1.24 -0.05,1.86 -5.65,3.65 -10.4,8.28 -14.51,13.6 -0.64,-0.04 -1.23,-0.01 -1.91,-0.1 -7.76,1.89 -11.96,8.16 -16.78,13.66 -17.12,18.02 -40.87,25.78 -60.91,39.28 -93.97,31.64 -175.22,81.01 -231.14,165.74 -10.51,15.93 -21.01,31.87 -31.51,47.8 -10.55,10.63 -20.63,21.55 -23.38,37.09 -8.57,19.67 -25.71,30.29 -43,40.74 -20.89,4.9 -41.65,10.4 -62.67,14.61 -64.8,13 -101.21,53.82 -115.66,116.59 -7.88,34.26 -7.37,68.56 -0.93,103.02 23.74,127.21 126.73,222.44 248.26,229.3l0.01 0c23.66,5.6 47.31,6.2 70.96,1.29 2.09,-0.26 4.16,-0.67 6.22,-1.35 49.38,-3.84 89.03,-25 118.71,-65.19 18.62,-25.22 26.32,-54.82 36.33,-83.59 5.18,-8 8.32,-16.31 9.23,-24.97 -3.81,4.65 -7.45,9.48 -11.33,13.97 -4.57,5.27 -7.51,11.21 -15.5,11.01l4.7 -45.98c-4.44,-5.42 -5.62,-11.67 -4.78,-18.44 5.77,-16.52 0.89,-34.24 5.55,-50.86 1.6,-3.12 3.13,-4.77 4.64,-5.34 -0.51,-18.74 -2.89,-37.59 3.69,-55.86 -1.05,-11.02 0.4,-21.56 5.98,-31.33 0.68,-7.58 3.05,-14.53 7.69,-20.63 -0.4,-4.92 1.72,-8.68 5.42,-11.72 22.37,-52.66 67.07,-77.99 121.6,-100.25 -3.37,7.97 -7.78,13.86 -12.37,18.9 5.31,-2.7 10.75,-5.3 16.31,-7.83 -5.12,11.07 -16.22,16.25 -17.66,26.82 -10.13,-1.9 -15.58,5.87 -21.93,11.49 -4.17,3.68 -8.36,7.35 -12.54,11.03 4.93,-3.41 10.21,-6.55 15.95,-9.36 2.28,-0.54 4.94,-0.93 7.27,-0.71 1.57,-1.86 3.14,-3.72 4.72,-5.59 17.51,-9.55 29.45,-25.86 45.33,-37.4 10.24,-5.46 10.21,-27.76 29.67,-18.12 -7.33,7.46 -14.66,14.93 -21.99,22.39 0.37,3.21 -0.29,5.86 -1.55,8.15 6.98,-5.28 13.18,-11.63 20.71,-16.15 6.26,-3.74 11.61,-11.21 20.37,-5.22 2.32,1.01 4.65,2.03 6.96,3.03 2.14,-1.36 4.5,-2.38 7.26,-2.8 1,1.07 1.96,2.19 2.91,3.34 5.72,4.09 11.66,7.74 17.97,10.62 3.48,0.13 6.94,0.26 10.41,0.39 1.43,0.79 2.14,1.8 2.12,3.04 0,0.17 -0.01,0.3 -0.01,0.45 0.96,-0.21 1.82,0 2.59,0.61 0.61,-0.66 1.25,-1.31 1.99,-1.74 4.27,0.01 8.29,0.51 12.13,1.44l0.3 -0.06c0.04,0.07 0.09,0.1 0.12,0.16 1.09,0.28 2.17,0.56 3.23,0.91 0.13,-0.08 0.26,-0.1 0.4,-0.21 10.3,3.95 20.59,7.89 30.9,11.83 0.14,0.29 0.3,0.53 0.46,0.82 0.83,1.84 1.72,3.63 2.79,5.36 3.64,3.99 8.42,8.01 -0.17,11.69 -0.14,0.5 -0.2,1.03 -0.3,1.54 -9.61,0.99 -17.43,6.32 -25.63,10.78 3.53,-0.9 7.28,-1.12 11.41,-0.23 37,-9.17 74.73,-0.34 111.94,-4.48 4.07,-0.46 10.55,-2.03 11.33,4.26 0.06,0.4 0.15,0.76 0.21,1.16 5.28,1.16 10.13,4.26 13.94,11.35 18.28,34.01 51.73,47.21 85.5,59.43 0.84,-0.25 1.67,-0.5 2.48,-0.78 0.5,6.78 6.65,8.3 11.55,10.98 -0.97,0.67 -2.12,1.2 -3.27,1.74 2.51,1.15 5.04,2.23 7.59,3.19 0.71,-0.63 1.44,-1.25 2.19,-1.81 2.21,1.13 4.38,2.34 6.55,3.55 1.69,0.99 3.46,1.81 5.23,2.58 21.93,5.45 44.65,5.19 67.48,3.94 8.19,-0.45 16.65,-2.89 21.71,6.56 0.04,0.16 0.07,0.3 0.1,0.47 2.26,0.1 4.5,0.23 6.75,0.43 -0.08,-0.52 -0.17,-1.07 -0.27,-1.6 -0.96,-18.59 15.22,-8.48 22.69,-12.99 6.65,-4.02 10.37,3.19 13.02,8.52 0.63,-0.09 1.26,-0.16 1.85,-0.19 0.3,-5.51 1.27,-10.81 3.48,-15.72 8.37,-18.46 35.44,-21.01 52.21,-34.43 12.21,-9.76 23.61,-21.78 39.63,-26.2 0.59,0.11 1.09,0.3 1.64,0.44 15.15,-16.7 27.06,-36.37 45.91,-49.65 -0.96,12.98 -5.17,24.99 -9.68,36.9 7.33,-7.5 13.25,-16.3 19.16,-25.12 -1.83,12.05 -7.75,23 -10.97,34.71 -2.56,9.28 -8.39,14.4 -17.3,15.8 -1.98,4.81 -4.87,6.73 -8.31,6.78 -11.15,14.93 -10.53,35.1 3.75,52.33 15.19,18.31 31.59,35.85 51.74,49.02 27.98,18.29 51.12,41.04 71.55,67.72 29.42,38.4 63.17,73.26 96.08,108.74 5.79,6.23 12.03,11.92 20.61,14.15 54.88,52.62 109.76,105.24 164.65,157.85 5.41,6.33 10.6,12.85 16.25,18.95 9,9.68 17.97,19.38 26.92,29.1 -5.26,-9.39 -7.67,-20.1 -8.67,-30.9 -2.07,-22.34 -4.66,-44.28 -12.94,-65.36z"/>
   <path class="fil2" d="M2131.48 1238.23c2.89,-7.55 7.93,-13.47 14.11,-18.53 1.76,11.1 -1.81,18.15 -14.11,18.53zm17.69 -244.69c-2.5,0.03 -5.01,0.07 -7.5,0.1 -1.33,-4.8 0.02,-10.26 4.67,-10.05 5.66,0.26 3.41,6.07 2.83,9.96zm-803.27 -834.92c-43.63,-0.79 -87.34,2.94 -130.9,-3.31 -14.23,-2.04 -27.29,0.79 -39.84,5.47 -6.01,3.08 -11.93,6.52 -17.82,10.17 3.78,-0.52 7.71,-0.42 11.92,0.76 1.29,0.89 2.6,1.65 3.92,2.31 11.44,-3.33 22.37,-2.46 32.73,2.97 1.33,-0.12 2.67,-0.24 4.01,-0.34 2.09,0.36 4.07,0.99 5.97,1.81 4.19,0.42 8.36,0.87 12.52,1.47 2.41,3.92 6.52,4.31 10.47,5.02 10.77,7.52 19.18,18.39 32.25,22.66 8.96,8.73 18.05,17.35 26.95,26.15 -6.35,-13.75 -14.47,-24.78 -21.96,-36.2 -5.04,-7.68 -11.06,-16.24 -2.31,-24.84 8.18,-8.04 18.33,-7.68 27.7,-2.12 0.83,0.5 1.6,1.06 2.42,1.57 2.01,-0.1 4.07,-0.02 6.06,0.32 8.07,1.37 13.62,6.84 18.97,12.36 16.01,16.56 31.6,33.52 47.95,49.73 0.56,0.55 1.13,1.12 1.71,1.7 0.67,-0.32 1.32,-0.74 2,-1.32 6.58,-5.76 2.42,-12.85 -1.42,-18.68 -5.48,-8.34 -12.69,-15.44 -18.17,-23.77 -4.4,-6.67 -14.29,-12.6 -9.08,-21.61 4.69,-8.12 15.13,-5.94 23.39,-5.99 40.24,-0.2 79.2,8.89 118.11,17.56 16.43,3.66 32.58,8.85 48.6,14.3 1.3,0.44 2.6,0.91 3.89,1.36 49.36,14.96 94.79,37.84 128.55,84.03 1.59,2.18 5.11,2.96 7.73,4.4 13.5,12.38 33.05,12.36 48.2,21.66 -3.66,7.81 -10.62,7.67 -15.51,10.8 -4.82,-0.06 -8.84,1.49 -12.43,4.52 0.61,0.08 1.23,0.08 1.85,0.2 4.1,1.22 8.19,2.51 12.26,3.86 0.94,-0.11 1.89,-0.19 2.83,-0.21 11.58,3.93 22.94,8.58 34.32,13.21 23.39,8.37 46.91,16.34 71.79,20.14 3.7,0.57 7.12,1.74 10.28,3.37 14.86,3.2 25.71,11.21 34.4,23.73 95.85,138.19 191.51,276.52 284.53,416.66 9.58,14.42 8.14,24.91 -1.76,36.93 -5.74,6.98 -17.89,15.85 -13.18,22.56 14.65,20.85 -2.27,26.84 -12.91,37.64 -8.92,9.06 -10.18,21.86 -10.22,34.45 -0.09,27.66 -0.48,55.32 -0.74,82.99 -8.37,17.18 -8.23,37.98 -22.44,52.66 -6.64,3.93 -4.43,12.53 -9.19,17.44 -7.34,18.73 -17.72,36.15 -26.51,55.01 2.01,-3.12 3.96,-6.29 5.94,-9.45 4.21,-6.65 5.31,-16.76 16.39,-16.92 6.31,-0.22 11.62,0.52 16.06,2.19 0.51,-0.73 1.01,-1.48 1.55,-2.19 -0.71,-4.55 1.23,-7.96 3.76,-11.12 -4.24,-2.31 -9.23,-3.44 -15.53,-2.48l13.01 -28.08c2.84,5.91 8.15,10.35 6.39,18.62 -0.56,2.7 0.53,4.73 2.35,6.3 6.95,-6.45 8.23,-15.55 8.87,-24.93 2.12,-14.36 15.04,-23.13 18.93,-36.57 12.2,-13.08 19.87,-28.51 23.76,-45.91 2.45,-4.17 4.94,-4.13 7.5,-0.1 2.15,35.11 12.14,70.36 4.09,105.35 -13.66,59.38 -34.77,115.97 -71.43,165.7 -3.67,4.97 -8.54,10.01 -9.18,17.52 1.3,-1.5 2.95,-2.84 4.33,-4.31 1.15,1.15 2.45,2.28 2.79,2.73 20.53,-11.19 35.09,-28.04 51.71,-42.29 8.04,-3.64 11.3,-10.91 14.11,-18.53 9.08,-15.59 18.16,-31.17 27.24,-46.76 3.52,-1.95 4.61,-5.1 4.44,-8.9 26.95,-69.03 44.78,-140.26 51.08,-214.2 1.35,-15.78 10.05,-24.81 23.66,-31.08 27.53,-12.7 56.96,-18.13 86.51,-22.74 104.3,-16.3 209.62,-19.63 314.86,-23.69l18.58 1.52 9.21 -0.06c6.69,1.06 13.41,1.31 20.15,0.76 11.88,6.85 23.69,7.44 35.39,-1.29 18.47,-0.56 36.93,-3.84 55.42,-0.27 35.45,-0.23 70.91,-0.45 106.36,-0.68 16.92,1.87 33.84,3.73 50.75,5.6 9,-0.04 16.45,-3.79 23.06,-9.59 1.44,-1.69 2.78,-3.48 4.32,-5.07 4.67,-4.84 12,-9.01 9.89,-16.72 -2.5,-9.17 -11.52,-5.01 -17.61,-5.67 -20.36,-2.21 -40.82,-3.58 -61.25,-5.27 -21.2,-0.11 -42.4,-0.23 -63.61,-0.34 -3.66,-1.56 -7.61,-2.01 -11.34,-1.58 -4.27,-0.59 -8.56,-1.19 -12.82,-1.78 -13.58,-11.28 -27.59,-5.8 -41.6,-1.1 -12.31,2.05 -24.64,2.64 -36.99,0.32 -52.4,0.32 -104.79,0.66 -157.18,0.98 -133.57,-2.15 -261.23,-25.56 -373.56,-104 -2.28,-3.84 -5.46,-6.45 -9.94,-7.3 -66.63,-54.15 -125.96,-115.2 -175.21,-185.75 -4.26,-13.35 -10.69,-25.04 -24.06,-31.41 -5.29,-6.48 -10.82,-12.8 -15.85,-19.47 -51.42,-68.11 -100.44,-138.27 -164.55,-195.66 -33.88,-30.34 -70.01,-57.41 -113.93,-71.99 -0.4,-0.2 -0.78,-0.44 -1.17,-0.65 -17.03,-10.07 -36.23,-13.75 -55.24,-17.02 -93.78,-16.16 -187.65,-31.69 -281.5,-47.44 -5.86,-0.06 -11.72,-0.14 -17.58,-0.24 -0.01,0.08 -0.03,0.14 -0.04,0.24 -6.09,7.65 -14.94,7.34 -23.2,7.2z"/>
   <path class="fil2" d="M1086.95 241.35c2.89,-4.1 6.7,-7.79 11.9,-10.82 0.06,-3.97 0.61,-7.58 1.54,-10.92 -2.92,3.13 -5.37,6.74 -7.78,10.39 -1.63,3.86 -4.1,7.49 -5.66,11.36z"/>
   <path class="fil2" d="M765.6 1160.81c0.01,-0.43 0.7,-0.47 2.1,-0.09 64.74,17.73 127.41,9.06 188.93,-14.75 7.79,-3.02 14.97,-8.02 23.8,-7.88 1.52,1.13 2.88,2.16 4.27,3.19 0.13,-0.62 0.26,-1.22 0.37,-1.82 -0.71,-2.89 -0.24,-5.22 0.91,-7.21 -0.68,-0.17 -1.38,-0.3 -2.06,-0.48 -3.32,6.12 -9.05,4.47 -15.16,1.64 -0.09,0.63 -0.19,1.28 -0.35,1.96 -22.5,18.38 -51.08,19.41 -77.39,26.22 -41.9,10.84 -88.23,9.24 -124.82,-1.58 -2.94,-0.9 -0.64,3.87 -0.61,0.79z"/>
   <path class="fil2" d="M1194.41 974.97c6.48,7.22 7.85,16.54 8.58,25.38 2.44,29.06 17.69,47.42 44.69,56.84 2.25,1.33 4.54,2.17 6.85,2.78 1.35,-0.76 0.96,-2.7 -3.61,-7.5 -4.19,-4.4 -1.4,-6.61 2.61,-8.01 40.45,-14.09 78.06,-34.66 117.82,-52.81 5.88,17.32 1.71,26.57 -14.76,34.32 -28.57,13.42 -58.51,22.65 -88.12,33.56 0.18,0.55 0.38,1.03 0.62,1.47 3.8,-0.18 7.62,-0.5 11.41,-0.48 27.7,-3.48 54.13,-10.61 78.35,-25.17 12.29,-7.39 18.17,-16.7 18.41,-31.7 0.48,-28.88 -3.68,-56.22 -14.66,-83.21 -12.21,-29.99 -32.24,-49.82 -62.25,-59.3 -0.09,0.04 -0.17,0.08 -0.25,0.12 -1.65,0.84 -3.28,1.68 -4.82,2.69 -0.46,0.33 -0.77,0.75 -1.16,1.14 0.14,4.17 4.98,5.87 8.89,7.77 10.38,5.02 20.7,10 28.88,18.45 12.99,13.44 27.32,29.3 27.83,46.47 0.61,20.9 -25.25,18.46 -39.06,26.5 -15.72,9.15 -33.32,15.92 -50.94,20.57 -9.55,2.52 -22.82,17.35 -31.71,-3.87 -2.38,-5.68 -9.55,6.54 -17.42,2.21 -0.75,-25.87 18.79,-41.19 33.05,-59.28 6.64,-17.73 28.78,-20.29 36.24,-37.11 0,-0.05 -0.01,-0.1 -0.02,-0.13 -4.38,3.15 -8.75,6.31 -13.13,9.47 -6.14,4.74 -10.57,13.36 -20.66,9.12 3.03,-7.31 9.43,-10.54 16.14,-13.41 1.51,-2.81 3.04,-5.62 4.56,-8.42 -1.68,0.98 -3.36,1.94 -5.06,2.89 -34.63,16.32 -59.53,40.99 -68.54,79.43 -1.05,4.48 -2.68,8.73 -7.43,10.7 -1.82,-2.42 -3.69,-3.96 -5.59,-4.96 1.11,1.36 2.46,2.56 4.27,3.47z"/>
   <path class="fil2" d="M1187.51 1746.15c4.42,-3.86 8.69,-7.94 13.38,-11.41 -15.34,5.66 -26.31,20.67 -44.19,20.62 6.15,-7.6 13.24,-14.63 18.22,-22.94 6.47,-10.78 14.62,-7.59 23.26,-5.02 2.47,1.58 4.32,5.29 3.44,6.77 1.93,-1.4 3.94,-2.69 6.08,-3.79 -4.33,8.46 -12.28,12.07 -20.19,15.76zm-65.84 53.22c-3.84,2.99 -8.68,5.12 -9.18,10.93 0.01,0.02 0.01,0.03 0.01,0.05 -2.47,-1.25 -4.67,-1.65 -6.65,-1.29 4.09,-2.3 7.91,-5.26 12.04,-7.45 2.27,-1.34 4.43,-2.91 6.67,-4.27 -0.94,0.71 -1.89,1.42 -2.9,2.02zm-16 2.33c-3.11,3.12 -6.24,6.24 -9.36,9.35 -6.07,1.9 -12.17,3.81 -18.24,5.71 -3.7,-0.49 -7.41,-0.97 -14.93,-1.96 14.61,-6.88 26.12,-12.31 37.64,-17.73 4.75,-3.42 8.15,-11.62 15.88,-4.47 -3.67,3.04 -7.33,6.07 -11,9.1zm-8.96 13.89c-0.18,-0.31 -0.32,-0.6 -0.56,-0.92 -0.96,-1.76 -4.06,1.04 -4.3,-2.08 3.47,0.32 6.54,-0.3 9.43,-1.4 -1.61,1.18 -3.09,2.74 -4.56,4.4zm195.58 -440.22c-10.65,-0.12 -20.88,0.02 -30.87,1.91 -6.29,3.42 -12.67,6.61 -19.81,7.84 -3.53,2.34 -7.43,3.85 -11.62,4.63 -7.18,2.79 -14.45,5.36 -21.75,7.85 -12.01,4.61 -24.22,8.68 -36.42,12.79 -13.23,5.08 -26.16,10.92 -38.36,18.58 -0.34,1.4 -0.71,2.64 -1.11,3.75 -0.62,-0.27 -1.29,-0.49 -1.73,-0.93 -0.44,-0.45 -0.91,-1.62 -0.71,-1.84 1.99,-2.09 3.87,-4.21 5.66,-6.37 -6.94,2.84 -13.82,5.83 -20.54,9.26 -0.84,-0.54 -1.52,-1.08 -2.12,-1.6 -1.3,1.39 -2.58,2.79 -3.93,4.16 0.16,0.3 0.34,0.59 0.5,0.89 -1.44,-0.61 -2.88,-1.13 -4.27,-1.46 -9.58,1.39 -15.93,8.65 -23.86,13.06 -22.02,12.23 -38.33,32.99 -62.88,41.43 -9.54,3.28 -19.14,6.4 -28.76,9.41 -30.57,12.86 -62.86,21.97 -96.63,27.85 -20.54,3.57 -41.13,6.35 -59.97,-6.46 -18.41,-7.36 -31.88,-20.6 -43.2,-36.38 -32.38,-32.8 -55.15,-70.51 -61.21,-117.15 -0.47,-3.56 0.01,-8.59 -1.24,-12.22 -1.9,3.21 -3.15,7.05 -4.27,10.69 -5.71,18.57 -2.55,36.34 5.67,53.53 4.9,7.15 11.28,13.44 13.15,22.9 -7.3,-4.74 -9.41,-12.23 -12.68,-18.93 -3.48,-5.1 -5.05,-11.07 -7.08,-16.78 -4.45,-12.52 -8.44,-25.03 -11.47,-37.51 -2.88,17.31 -0.89,34.36 6.77,50.47 9.92,8.71 11.82,21.67 17.18,33.54 -12.95,-4.04 -24.26,-9.2 -26.12,-24.73 -22.74,-42.85 -32.13,-87.86 -23.6,-136.31 2.51,-14.26 11.9,-24.75 18.51,-36.64 -16.07,14.13 -24.42,33.81 -26.33,54.82 -6.01,65.94 9.23,126.13 61.52,172.12 23.05,20.27 50.88,33.51 75.47,51.53 1.21,4.75 6.53,2.66 8.96,5.39 11.07,5.06 22.15,10.12 33.45,15.27 -0.41,0.47 -0.77,0.94 -1.18,1.41 2.54,-0.4 5.22,-0.5 7.96,-0.3 33.61,2.39 64.61,-7.2 92.01,-25.13 52.44,-34.34 111.57,-51.56 170.44,-69.02 31.78,-9.43 61.26,-24.81 93.44,-32.69 1.41,0.1 2.8,0.26 4.17,0.46 36.58,-27.37 79.54,-27.51 122.7,-26.59 3.52,0.09 8.05,1.08 10.34,3.39 0.77,0.77 1.48,1.57 2.23,2.35 5.82,-0.39 10.82,2.6 14.6,7.23 26.24,32.11 42.11,66.15 32.13,110.09 -6.55,28.85 -25.38,48.1 -41.34,70.12 -13.66,13.39 -30.46,24.8 -40.35,40.56 -9.16,14.59 -22.38,21.49 -36.38,23.01 -20.79,12.64 -53.6,5.12 -75.34,-14.11 -0.45,16.01 -5.72,30.92 -15.36,44.84 -4.58,3.57 -9.16,7.14 -13.75,10.71 -3.45,4.53 -10.35,4.05 -13.37,9.2 -11.13,8.56 -23.4,14.85 -36.93,18.67 -1.3,-0.17 -2.59,-0.44 -3.87,-0.75 -3.75,1.07 -7.61,1.94 -11.47,2.79 -1.1,-0.37 -2.2,-0.81 -3.29,-1.27 -5.64,4.36 -9.55,2.13 -12.82,-2.58 -0.9,0.19 -1.84,0.47 -2.79,0.9 -24.48,-4.77 -45.71,-15.02 -64.16,-29.89 3.54,5.53 7.62,10.76 11.48,16.11 16.9,13.12 34.99,24.25 54.62,32.83 2.03,2.37 4.27,4.11 6.65,5.46 8.04,2.42 16.28,3.99 25.33,0.29 -1.38,1.68 -2.8,3.3 -4.23,4.9 3.62,0.5 7.21,1.09 10.63,2.18 -14.56,9.96 -28.63,19.36 -38.47,33.64 -6.92,8.17 -15.99,10.03 -25.25,11.31 -10.39,6.08 -22.9,6.86 -34.83,9.11 -12.21,-1.1 -24.77,0.83 -36.65,-2.38 -12.81,-3.47 -28.24,-4.87 -26.66,-24.93 0.56,-7.18 -7.54,-8.93 -12.26,-12.39 -11.92,-8.75 -24.12,-17.15 -31.21,-30.65 -2.48,-0.85 -4.97,-1.57 -7.47,-2.24 0,0.12 0.05,0.24 0.04,0.36 0.79,6.23 -3.22,8.97 -8.07,7.89 -20.56,-4.58 -41.5,-6.78 -62.24,-10.22 8.55,16.45 21.04,29.77 37.91,37.67 35.5,16.61 65.92,41.89 101.75,57.65 8.69,3.83 11.76,6.62 4.96,16.13 -41,57.31 -76.79,117.98 -112.91,178.42 -7.29,2.39 -6.48,9.38 -8.43,14.81 -2.49,14.21 -18.56,21.05 -19.62,36.05 -6.81,7.05 -12.34,14.75 -12.24,25.16 -50.02,97.03 -87.57,199.16 -123.05,302.1 -22.99,66.72 -42.94,134.29 -53.52,204.28 -1.69,4.59 -3.39,9.19 -5.07,13.79 -1.38,12.09 -2.76,24.19 -4.14,36.29 -0.88,0.82 -1.55,1.82 -1.99,3.08 -0.11,0.7 -0.15,1.37 -0.14,2 -0.53,0.17 -1.07,0.35 -1.61,0.5 -6.49,2.93 -2,9.94 -5.21,14.09 -0.24,0.98 -0.15,1.91 0.1,2.83 -1.39,0.86 -2.67,2.19 -3.8,4.23 -2.95,7.65 -2.52,15.7 -2.63,23.69 0.4,8.08 -1.48,16.33 1.66,24.23 -5.44,52.73 -9.63,105.61 -16.57,158.14 -16.92,128.27 -14.74,255.98 5.4,383.76 17.67,112.24 48.76,220.08 98.82,322.24 2.22,6.68 4.09,13.55 9.87,18.31 39.62,60.69 79.26,121.4 118.88,182.09 24.51,44.98 56.1,84.24 97.13,115 45.98,34.48 92.7,68.02 139.52,101.38 43.5,31.01 90.39,54.78 144.06,62.43 27.27,3.87 54.62,7.04 81.93,10.52 15.52,6.32 32.25,-1.03 47.84,4.26 30.07,-0.9 59.62,4.56 89.32,7.71 130.35,13.84 260.33,14.7 390.25,-5.89 73.63,-11.67 145,-31.66 216.11,-53.08 13.21,2.16 24.16,-1.75 32.75,-12.09 16.89,-7.08 33.92,-13.86 50.64,-21.32 207.55,-92.62 399.91,-207.48 553.93,-378.48 11.21,-6.2 19.5,-14.85 23.07,-27.48 44.13,-57.73 82.91,-118.87 116.06,-183.54 6.65,-4.52 7.26,-11.87 8.87,-18.77 5.66,-5.56 7.41,-12.83 8.87,-20.24 -1.18,-6.68 1.44,-11.96 6.11,-16.46 3.75,-6.16 6.22,-12.82 7.99,-19.77 1.11,-4.41 1.94,-8.93 3.39,-13.23 32.55,-96.24 48.73,-195.04 49.18,-296.76 0.3,-65.69 -7.8,-130.48 -15.59,-195.39 -4.78,-15.27 1.37,-31.81 -5.44,-46.83 -1.55,-3.05 -3.79,-5.43 -6.67,-7.18 3.93,-5.78 2.74,-11.33 -1.81,-16.74l0.16 0.38c-0.33,-1.02 -0.74,-1.56 -1.2,-1.85 2.07,-6.85 0.04,-12.86 -3.88,-18.47 -1.85,-2.09 -3.52,-4.23 -5.02,-6.41 -1.03,-6.7 -2.05,-13.4 -3.07,-20.1 -1.07,-1 -1.33,-2.17 -0.79,-3.53 -0.39,-0.15 -0.8,-0.22 -1.19,-0.35 0.26,-0.98 0.46,-1.95 0.84,-2.97 0.91,-8.24 -0.69,-15.57 -7.64,-20.96 -1.88,-5.03 -3.93,-10 -5.57,-15.11 -52.51,-162.93 -131.26,-312.49 -230.11,-451.81 -50.79,-78.76 -109.8,-151.2 -171.13,-221.83 -5.78,-8.95 -10.76,-18.77 -27.96,-24.68 7.64,14.71 14.03,23.18 22.28,30.46 14.27,20.69 28.55,41.38 42.83,62.07 4.44,13.57 10.96,25.71 23.42,33.7 28.68,41.82 57.34,83.65 86.01,125.48 38.44,67.29 78.51,133.68 112.3,203.57 41.1,85.05 80.45,170.75 105.93,262.08 5.52,12.05 2.07,26.62 10.65,37.8 1.51,0.46 2.69,1.08 3.73,1.78 3.04,15.19 6.07,30.37 9.11,45.56 -0.84,2.09 -1.44,4.57 -1.89,7.17 -2.15,18.16 3.33,35.33 6.89,52.73 2.88,7.14 5.44,14.34 6.69,22 17.38,106.92 19.56,213.8 1.35,320.96 -13.9,81.75 -42.6,158.5 -75.7,234.09 -1.41,1.75 -1.07,4.18 -2.78,5.6 0.69,-2.07 1.46,-4.09 2.4,-6.06 0.94,-1.96 1.65,-4.02 2.26,-6.06 18.18,-52.71 27.92,-106.98 29.34,-162.76 -2.62,-13.66 -2.35,-27.04 3.7,-39.84 2.97,-74.51 4.87,-149.07 -6.38,-223.13 -5.28,-34.79 -7.33,-70.42 -22.44,-103.12 -1.72,-1.81 -3.39,-3.31 -5,-4.41 0.08,-1.91 0.15,-3.84 0.23,-5.76 -9.4,-10.63 -5.2,-26.05 -13.13,-37.19 0.43,-3.73 -0.07,-7.15 -3.16,-9.73 -1.97,-9.06 -3.95,-18.14 -5.93,-27.21 -2.53,-3.64 -6.16,-3.87 -10.01,-3.41 0,4.23 -0.01,8.44 -0.01,12.66 3.09,6.22 6.19,12.43 9.29,18.64 -0.69,6.95 -0.67,13.74 4.41,19.38 -0.16,12.78 7.43,24.45 6.15,37.38 -0.3,0.72 -0.6,1.49 -0.89,2.34 -0.3,6.83 -0.52,13.61 4.07,19.38 6.54,30.14 8.58,60.78 9.84,91.47 5.74,139.16 -13.52,275.64 -44.22,410.9 -12.11,53.31 -26.9,105.4 -61.51,149.4 -28.51,19.53 -41.86,51.81 -64.09,76.71 -12.44,13.94 -27.56,26.88 -31.91,46.68 0.08,0.54 0.12,1.03 0.19,1.55 -7.45,8.26 -14.92,16.52 -22.37,24.78 -1.61,0.03 -3.29,0.04 -5.11,0.02 -18.54,16.57 -39.9,24.92 -64.92,22.81 9.72,-14.01 22.42,-25.88 30.05,-41.4 0.2,0.12 0.39,0.26 0.59,0.37 7.94,-0.65 11.75,-6.46 15.58,-12.3 28.14,-43.03 55.07,-86.76 75.49,-134.14 1.46,-4.27 1.74,-8.64 1.11,-13.07 3.64,-11.63 6.92,-23.39 10.99,-34.88 18.57,-52.53 32.18,-105.77 21.57,-162.09 -6.29,-33.37 -10,-67.52 -26.59,-104.91 -7.71,28.47 -8.13,51.39 -10.39,74.07 -3.12,31.28 -5.81,62.64 -10.45,93.69 -2.08,13.87 -5.24,30.2 -26.18,28.03 -4.51,3.33 -12.21,1.3 -14.4,8.54 -4.72,12.49 -9.43,24.98 -14.16,37.48 -5.36,6.18 0.03,14.24 -3.62,20.73 0.83,58.48 -10.74,113.73 -42.32,163.83 -16.71,24.83 -33.42,49.65 -50.14,74.47 -58.22,70.62 -126,129.5 -208.77,169.95 0.46,1.89 0.18,3.52 -0.5,5 0.1,-1.69 0.21,-3.38 0.5,-5 -27.77,11 -55.53,21.99 -83.31,32.98l0 0 0 0c-107,24.94 -215.08,42.7 -324.95,48.52 -73.63,3.9 -147.17,5.91 -219.76,-11.1 -7.01,-5.86 -16.49,0.66 -23.6,-4.7 -6.25,-0.75 -13.28,2.68 -18.48,-3.54 -12.02,-8.61 -25.07,-14.54 -40.08,-15.27 -2.54,0.45 -5.03,1.09 -7.49,1.85 -11.82,-4.71 -23.64,-9.43 -35.45,-14.15 -4.44,-1.78 -8.87,-3.57 -13.3,-5.36 -3.23,-1.55 -6.45,-3.11 -9.67,-4.67 -4.43,-3.33 -8.84,-6.66 -13.27,-9.99 -7.72,-3.72 -15.44,-7.45 -23.17,-11.17 -0.64,-2.68 -2.42,-3.28 -4.87,-2.67 -51.12,-35.05 -96.39,-76.22 -132.51,-126.92 -100.72,-141.33 -137.2,-304.99 -163.86,-472.06 -4.2,-7.68 -0.29,-18.68 -8.61,-24.68 0.04,-0.06 0.09,-0.11 0.12,-0.17 -0.07,-1.27 -0.13,-2.54 -0.2,-3.81 0.57,-0.52 1.09,-1.13 1.52,-1.89 0.31,-2.51 -0.7,-4.76 -1.86,-6.97 0.08,-3.42 -0.47,-6.7 -2.69,-9.58 0.15,-0.67 0.37,-1.34 0.74,-2.06 0.3,-1.95 0.38,-3.94 0.13,-5.9 -1.15,-5.61 -1.22,-11.6 -4.08,-16.62 -0.08,-1.01 -0.16,-2.03 -0.24,-3.04 -0.95,-0.16 -1.86,-0.43 -2.74,-0.82 -5.81,-50.3 -9.85,-100.8 -11.7,-151.53l-5.93 0.5 0 149.39c2.03,7.05 -2.92,14.12 0.1,21.16 2.58,6.65 2.53,15.39 5.69,21.57 0.79,10.92 1.59,21.84 2.38,32.77 1.47,3.46 2.91,6.92 4.37,10.39 6.85,51.27 3.69,102.82 4.36,154.27 0.32,25.45 3.47,50.65 8.11,75.59 34.08,183.04 138.11,320.14 283,430.3 0.18,1.31 0.46,2.61 0.86,3.88 6.34,7.4 11.47,16.78 23.73,14.42 0.09,-0.11 0.15,-0.25 0.24,-0.37 4.64,4.02 8.69,9.01 15.09,10.19 0,0.15 -0.04,0.27 -0.03,0.41 2.78,7.3 5.35,14.92 15.27,12.07 1.02,2.62 3.49,3.86 6.28,4.81 11.23,6.63 22.48,13.26 33.71,19.9 -11.64,3.92 -21.5,4.32 -31.3,3.86 -96.28,-4.53 -190.08,-23.24 -282.1,-50.99 -83.87,-25.28 -162.29,-60.78 -223.6,-126.32 -21.43,-22.91 -43.12,-45.59 -64.68,-68.37 -5.4,-7.29 -10.72,-14.64 -16.2,-21.87 -44.85,-59.08 -88.21,-119.06 -114.57,-189.32 -2.85,-8.09 1,-19.22 -10.62,-23.32 -2.68,-6.14 -5.48,-12.22 -8.01,-18.42 -43.69,-107.35 -58.47,-220.49 -68.47,-334.85 -8.85,-101.23 -15.58,-202.31 -4.31,-303.75 8.53,-10.8 -1.88,-23.51 3.5,-34.61 2.11,-64.49 14.19,-127.73 24.09,-191.24l4.67 -9.8c1.32,-13.74 2.65,-27.48 3.97,-41.22 0.21,0.1 0.42,0.19 0.62,0.28 1.31,-1.49 2.22,-3.19 2.79,-5.06 0.36,-0.12 0.73,-0.17 1.09,-0.32 5.66,-5.75 4.03,-11.96 1.13,-18.24 0.91,-9.83 1.84,-19.64 2.74,-29.46 0.62,-0.48 1.22,-0.99 1.76,-1.62 3.98,-4.57 4.49,-9.83 3.07,-15.47 1.32,-9.84 2.05,-19.81 4.07,-29.52 13.4,-64.75 35.16,-127.14 55.62,-189.77 51.33,-157.08 130.61,-300.81 215.35,-441.7 15.61,-25.97 29.12,-56.52 67.69,-55.3 4.15,0.55 7.95,0.15 10.38,-3.9 11.96,-1.64 21.55,-8.28 31.19,-14.8 24.57,-11.02 45.38,-27.38 64.69,-45.82 31.14,-19.83 64.45,-35.52 97.89,-50.93 30.38,-13.99 55.76,-34.5 80.41,-57.1 40.01,-36.67 62.29,-82.9 79.48,-132.69 9.65,-5.93 2.13,-15.81 5.34,-23.23 5.18,-39.69 3.55,-77.78 -28.18,-108.64 85.44,-26.63 134.85,-112.4 110.68,-193.4 -10.86,-36.39 -29.49,-69.41 -73.06,-76.52 -1.89,14.92 10.88,21.01 18.56,29.78 61.67,70.44 43.94,156.26 -40.59,188.45 -1.96,0.74 -3.96,1.36 -5.93,2.07 -42.87,19.38 -89.07,23.95 -135.72,23.41z"/>
   <path class="fil2" d="M1111.73 1001.06c-7.61,5.02 -2.67,15.39 -0.25,23.54 6.88,23.18 19.65,44.32 23.86,68.41 8.11,-10.14 0.69,-19.76 -3.36,-29.17 -7.25,-16.85 -15.92,-33.32 -11.99,-52.56 1.83,-8.94 3.42,-19.56 13.45,-22.32 11.3,-3.1 15.1,8.04 20.32,15.02 8.25,11.08 14.92,23.05 16.45,37.19 0.12,4.25 0.29,8.51 1.35,14.29 0.96,-4.84 -1.01,-7.93 -0.87,-11.18 -2.01,-23.42 -13.5,-45.44 -11.24,-69.45 -0.49,-0.11 -0.97,-0.21 -1.46,-0.4 -18.82,-6.2 -38.03,-11.74 -49.22,-31.83 -5.06,8.48 -0.81,12.96 2.34,16.44 12.68,14 23.89,26.66 0.61,42.02z"/>
   <path class="fil2" d="M1135.67 423.89c0.99,19.19 -0.01,38.19 -4.03,56.76 4.84,-15.64 9.06,-31.45 11.73,-47.71 4.79,-29.26 -2.55,-39.23 -31.37,-44.13 -18.85,-3.2 -37.08,-9.53 -56.6,-9.47 -12.27,0.03 -19.12,-6.25 -13.45,-19.4 7.56,-17.57 12.12,-36.49 23.51,-52.33 1.57,-1.33 3.17,-2.44 4.79,-3.43 1.23,-5.67 2.45,-11.36 3.67,-17.02 2.43,-9.18 3.33,-19.06 5.61,-28.3 -13.97,15.19 -16.59,36.43 -25.27,54.42 -5.52,14.12 -13.83,27.77 -15.76,42.51 -2.92,22.39 -13.83,39.34 -27.93,55.56 -1.36,1.57 -3,3.15 -4.47,4.85 8.04,-6.99 15.67,-14.58 25.09,-19.99 14.63,-8.4 27.44,-10.52 43.35,-5.66 3.89,1.18 7.69,2.76 11.53,4.28 8.07,0.07 16.27,1.51 24.57,4.34 0.48,-0.07 0.92,-0.06 1.4,-0.15 4.97,-0.94 8.12,1.27 10.01,4.86 1.68,0.82 3.35,1.66 5.05,2.58 7.38,4.06 8.24,10.41 8.59,17.45z"/>
   <path class="fil2" d="M486.15 720.11c-0.1,0.01 -0.16,0 -0.25,0.01 -0.06,0.34 -0.11,0.69 -0.18,1.04 1.11,-0.11 2.4,-1.4 0.43,-1.05z"/>
   <path class="fil2" d="M1094.86 1507.41c-7.83,3.84 -15.27,8.57 -22.48,13.92 2.84,-0.73 5.81,-3 13.13,-7.65 10.27,-6.53 19.61,-2.45 27.7,4.24 6.24,-3.76 10.02,0.56 16.85,7.15 12.85,12.4 25.36,25.07 37.29,38.25 -3.55,-11.21 -8.35,-21.91 -14.14,-32.16 -14.92,-26.39 -29.2,-32.11 -58.35,-23.75z"/>
   <path class="fil2" d="M1288.72 878.78c-0.03,-1.41 -0.75,-2.58 -1.47,-3.74 -0.1,0.13 -0.17,0.29 -0.27,0.41 -2.58,2.98 -5.68,5.2 -8.95,7.21 4.42,1.5 7.15,-2.48 10.68,-3.87z"/>
   <path class="fil2" d="M1017 656.37c-31.99,-17.22 -62.61,-35.67 -69.65,-77.35 37.59,2.34 73.59,3.88 109.63,-1.22 44.43,-6.28 80.62,-19.98 91.06,-71.53 5.43,-26.83 17.7,-52.51 20.39,-80.18 1.66,-16.93 1.76,-38.85 -19.7,-40.76 -30.12,-2.68 -57.9,-20 -93.72,-9.77 16.73,-23.09 21.75,-45.8 31.75,-66.37 4.25,-7.05 10.42,-13.29 9.23,-22.54 -0.66,-2.1 -0.8,-4.36 -0.7,-6.67 7.73,-16.78 10.14,-36.05 22.93,-50.51 6.94,-19.73 23.39,-31.44 37.79,-44.87 10.54,-3.58 19.83,-11.29 31.93,-9.75 9.24,1.88 18.6,2.67 27.95,3.6 -1.9,-0.82 -3.88,-1.45 -5.97,-1.81 -1.34,0.1 -2.68,0.23 -4.01,0.34 -10.36,-5.43 -21.28,-6.3 -32.73,-2.97 -1.32,-0.68 -2.63,-1.42 -3.92,-2.31 -4.21,-1.18 -8.15,-1.29 -11.92,-0.76 -2.12,1.32 -4.24,2.65 -6.36,4 -17.14,8.64 -27.02,25.14 -40.71,37.54 -3.98,1.68 -7.14,4.19 -9.87,7.12 -0.93,3.34 -1.49,6.95 -1.54,10.92 -5.2,3.04 -9.01,6.72 -11.9,10.82 -1.4,3.47 -2.07,7.12 -0.62,11.31 -2.55,1.92 -4.8,3.99 -6.82,6.19 -2.28,9.24 -3.18,19.13 -5.6,28.3 -1.23,5.66 -2.45,11.35 -3.67,17.02 -1.61,0.99 -3.22,2.09 -4.79,3.43 -11.39,15.84 -15.95,34.77 -23.51,52.33 -5.66,13.16 1.18,19.43 13.44,19.4 19.53,-0.06 37.76,6.27 56.61,9.47 28.82,4.9 36.16,14.87 31.36,44.13 -2.66,16.26 -6.88,32.07 -11.73,47.71 -1.32,6.15 -2.99,12.26 -5.03,18.33 -1.46,4.35 -3.16,8.49 -5.11,12.41 -1.13,3.33 -2.28,6.66 -3.42,10 -8.06,23.61 -23.57,36.6 -46.8,42.83 -38.97,10.45 -78.56,12.84 -118.66,10.96 -27.26,-1.29 -31.28,5.66 -19.54,30.79 13.31,28.47 37.83,43.44 65.1,55.28 61.43,22.44 122.12,18.01 182.34,-4.8 7.93,-3 15.52,-6.76 22.11,-12.15 1.04,-0.85 2.15,-1.72 3.25,-2.62 -59.69,32.98 -123.08,33.92 -188.87,14.7z"/>
   <path class="fil2" d="M1406.37 242.36c11.9,-10.78 1.44,-21.43 -4.92,-30.13 -10.13,-13.88 -21.85,-26.6 -35.02,-42.35 37.45,-1.1 70.77,2.9 103.63,9.85 25.63,5.42 51.24,10.92 75.88,18.38 -1.29,-0.46 -2.59,-0.92 -3.89,-1.37 -16.02,-5.44 -32.17,-10.63 -48.6,-14.29 -38.91,-8.66 -77.87,-17.76 -118.11,-17.56 -8.26,0.05 -18.7,-2.13 -23.39,5.99 -5.21,9.02 4.68,14.93 9.08,21.61 5.48,8.34 12.69,15.43 18.17,23.77 3.84,5.83 8,12.93 1.42,18.68 -0.68,0.59 -1.33,1 -2,1.31 7.65,7.63 16.7,16.11 27.75,6.09z"/>
   <path class="fil2" d="M1150.83 640.02c12.81,-2.29 25.64,-4.6 38.51,-6.56 7.37,-1.13 14.76,-2.11 22.15,-3.08 -0.07,-0.29 -0.07,-0.55 -0.17,-0.86 -2.47,-7.02 -9.98,-6.07 -15.96,-5.44 -21.38,2.29 -42.59,5.81 -63.78,9.44 -8.74,1.49 -17.43,2.63 -29.64,-0.49 1.56,1.81 3.89,3.11 6.03,4.14 13.81,6.65 28.31,5.43 42.86,2.84z"/>
   <path class="fil2" d="M1112.03 399c-0.48,0.1 -0.92,0.09 -1.4,0.15 3.78,1.29 7.58,2.85 11.41,4.7 -1.89,-3.59 -5.04,-5.8 -10.01,-4.86z"/>
   <path class="fil2" d="M2063.74 1134.72c-1.99,3.15 -3.94,6.32 -5.96,9.44 -4.97,10.64 -9.44,21.73 -12.57,33.79 30.21,-10.28 36.6,-37.64 50.96,-57.98 -4.44,-1.66 -9.75,-2.4 -16.06,-2.18 -11.07,0.16 -12.18,10.26 -16.38,16.93z"/>
   <path class="fil2" d="M1320.2 150.94c-23.73,0.47 -48.13,5.15 -70.98,-0.84 -28.06,-7.35 -51.66,-0.86 -74.06,10.67 12.56,-4.67 25.6,-7.52 39.84,-5.46 43.56,6.25 87.27,2.51 130.9,3.3 8.26,0.14 17.11,0.46 23.2,-7.21 0,-0.08 0.03,-0.14 0.04,-0.23 -16.33,-0.26 -32.65,-0.56 -48.95,-0.24z"/>
   <path class="fil2" d="M1111.4 621.89c-4.32,0.11 -9.96,-0.75 -11.1,5.18 -0.3,1.58 -0.08,2.91 0.45,4.09 31.79,-3.87 56.94,-8.19 78.45,-14.27 -10.69,2.34 -21.77,3.92 -33.32,4.55 -11.47,0.63 -22.98,0.15 -34.47,0.45z"/>
   <path class="fil2" d="M1370.57 70.47c-1.8,-1.15 -3.82,-1.77 -5.93,-2.21 1.98,0.72 3.96,1.45 5.93,2.21z"/>
   <path class="fil2" d="M1323.55 251.51c6.07,-4.27 3.41,-8.94 1.14,-14.06 -7.23,-16.29 -17.78,-30.41 -27.86,-44.91 -3.08,-4.44 -11.85,-8.73 -6.23,-14.92 3.07,-3.37 8.05,-5.17 13.31,-5.46 -0.82,-0.51 -1.59,-1.08 -2.42,-1.57 -9.37,-5.56 -19.52,-5.92 -27.7,2.12 -8.75,8.59 -2.72,17.16 2.31,24.84 7.49,11.42 15.61,22.45 21.95,36.2 4.41,4.34 8.77,8.73 13.02,13.22 3.92,4.16 5.98,9.07 12.45,4.53z"/>
   <path class="fil2" d="M1472.15 675.68c3.28,-5.9 8.29,-10.89 15.74,-11.96 6.27,-2.93 13.11,-5.14 16.05,-12.4 -8.62,-2.8 -14.54,1.64 -20.44,6.12 -0.88,-0.36 -1.81,-0.67 -2.72,-0.99 -0.78,-0.26 -1.51,-0.46 -2.09,-0.89 -0.55,-0.43 -1.43,-1.45 -1.32,-1.59 6.26,-8.56 19.06,-7.05 24.96,-16.22 11.41,-4.73 22.79,-9.5 35.34,-10.25 9.63,-3.23 21.54,1.41 29.27,-8.44 3.65,-4.04 8.47,-5.14 13.61,-5.42l22.81 -4.62 -4.44 -4.46c-6.19,0.99 -13.15,-1.38 -18.26,4.24 -4.22,0.22 -8.43,0.54 -12.63,0.93 -1.83,0.55 -3.63,1.17 -5.39,1.98 -1.89,0.1 -3.76,0.27 -5.54,0.62 0.57,-0.14 1.14,-0.29 1.7,-0.43 2.85,-0.38 5.58,-1.21 8.31,-2.09 -25.77,2.42 -51.49,6.97 -77.45,1.93 -15.95,-3.09 -33.68,-6.64 -34.47,-26.89 -0.77,-19.84 -1.98,-42.01 23.76,-50.21 9.16,-4.71 18.32,-9.43 27.48,-14.14 10.42,-0.81 15.01,-8.39 19.19,-16.47 6.35,-7.44 12.72,-14.86 19.08,-22.3 3.85,-3.22 11.22,-7.28 7.86,-11.41 -3.84,-4.71 -9.93,0.48 -14.01,4.46 -1.21,0 -2.36,0.14 -3.54,0.24 -8.23,-1.64 -15.78,-16.09 -25.63,-0.91 -0.66,1.01 -1.34,1.94 -2.03,2.87 2.54,0.45 5.13,1.28 7.83,2.2 1.79,0.04 3.45,-0.1 5.26,-0.57 1.54,-1.42 2.34,-1.15 2.55,0.73 0,0 -0.47,0.38 -1.23,1.04 -5.4,7.85 -15.58,12.54 -16.72,23.64 0.07,0.76 0.21,1.49 0.39,2.23 -5.46,4.68 -10.91,9.37 -16.37,14.05 -0.61,-0.33 -1.21,-0.67 -1.82,-0.97 -12.83,-0.82 -21.51,9.29 -32.73,12.6 -23.31,9.66 -22.86,30.04 -22.11,50.15 0.7,18.97 13.54,28.13 29.69,33.45 31.38,10.32 62.32,5.02 93.13,-2.72 -2.8,0.85 -5.27,2.41 -7.07,5.46 -0.01,0.33 0.07,0.6 0.08,0.91 -6.58,0.65 -12.99,1.86 -19.11,4.09 -2.95,-0.37 -5.99,-0.6 -9.17,-0.52 -12.47,-0.12 -24.19,2.21 -34.18,10.36 -1.43,1.43 -2.2,3.11 -2.72,4.87 -10.79,1.51 -20.5,6.04 -29.82,11.39 -5.34,3.06 -7.59,8.78 -3.64,13.44 3.59,4.24 7.8,-2.25 12.07,-2.3 3.86,-1.02 7.52,-2.54 11.19,-4.09 -3.31,2.2 -7.01,3.82 -10.67,5.48 -9.82,6.19 -17.63,14.06 -11.25,26.3 5.84,11.21 16.41,8.59 26.48,6.04 0.85,-0.21 1.7,-0.5 2.58,-0.8 -2.44,0.22 -4.71,-0.68 -7.05,-2.94 -4.93,-4.77 -3.21,-10.45 -0.78,-14.82z"/>
   <path class="fil2" d="M1356.17 347.02c-6.52,2.13 -11.88,5.47 -15.53,10.16 7.51,0.47 7.64,7.8 8.09,13.35 1.61,19.19 7.85,37.64 8.92,56.9 0.28,5.05 -0.75,11.62 6.81,12.66 6.1,0.84 10.09,-3.26 13.15,-7.76 1.21,-1.78 2.27,-3.61 3.27,-5.46 0.34,-24.79 -9.45,-47.89 -9.49,-72.05 -0.02,-10.32 -8.56,-9.98 -15.21,-7.81z"/>
   <path class="fil2" d="M1452.88 494.89c-6.93,-0.99 -14.24,-0.58 -17.75,5.39 3.07,-0.5 6.29,-0.62 9.57,-0.48 10.34,0.44 20.14,-0.69 28.97,-4.21 -6.58,0.67 -13.56,0.33 -20.79,-0.7z"/>
   <path class="fil2" d="M1423.44 512.69c-3.09,-1.35 -6.19,-2.7 -9.29,-4.05 -2.87,-6.25 -9.64,-2.15 -13.73,-5.2l0.07 0.03c-5.11,-5.19 -10.07,-10.87 -18.81,-6.35 19.24,-8.06 33.72,-21.03 41.81,-40.46 32.4,-55.39 3.4,-108.56 -6.47,-162.26 -1.75,-9.54 -9.89,-14.61 -21.52,-9.94 -5.81,2.34 -8.54,5.1 -9.46,8.24 7.19,-0.09 9.37,8.38 11.09,14.6 3.89,14.06 4,29.09 8.58,42.9 11.44,34.4 10.62,67.94 -4.11,101.12 0.23,3.56 0.14,6.98 -0.1,10.33 -12.12,13.24 -26.44,24.38 -43.55,35.3 10.14,2.65 17.23,4.5 24.24,6.33 0.33,0.47 0.7,0.91 1.14,1.33 0.26,0.09 0.48,0.21 0.73,0.3 1.74,1.77 3.84,2.63 6.07,3.08 1.97,1.32 3.77,2.88 5.38,4.69 3.38,2.92 7.35,4.18 11.79,4.05 1.4,-0.11 2.69,-0.43 3.94,-0.84 11.46,5.97 23.39,6.56 35.91,0.41 1.63,-0.06 3.25,-0.11 4.87,-0.18 2.9,-1.3 5.82,-2.62 8.72,-3.93 -7.52,-8.75 -15.28,-2.59 -22.98,-0.39 0,0.01 -0.01,0.01 -0.01,0.01 -0.01,-0.01 -0.04,-0.02 -0.06,-0.02 1.28,0.96 2.58,1.83 3.96,2.51 -6.07,-0.03 -12.15,-0.46 -18.21,-1.62z"/>
   <path class="fil2" d="M1716.59 327.57c-4.07,-1.33 -8.16,-2.63 -12.26,-3.85 -0.62,-0.12 -1.24,-0.12 -1.85,-0.2 -0.96,0.81 -1.91,1.68 -2.82,2.71 5.91,3.42 11.48,1.92 16.93,1.33z"/>
   <path class="fil2" d="M1835.82 364.08c-3.17,-1.63 -6.58,-2.8 -10.28,-3.36 -24.89,-3.8 -48.4,-11.78 -71.8,-20.15 24.2,9.85 48.41,19.64 74.72,22.33 2.56,0.26 5.01,0.68 7.36,1.18z"/>
   <path class="fil2" d="M861.48 548.55c-5.12,-1.69 -10.15,-3.48 -15.66,-2.18 -0.52,0.11 -0.94,0.35 -1.41,0.53 -5.54,-4.22 -11.09,-8.42 -16.64,-12.63 -3.17,-0.89 -6.35,-1.78 -9.52,-2.68 -5.18,-2.67 -5.98,-10.81 -13.37,-10.71 -2.68,-3.96 -5.65,-7.61 -9.47,-10.31 -0.29,-1.74 -0.67,-3.48 -1.29,-5.17 -4.74,-9.73 -11.57,-15.95 -23.33,-13.89 -4,1.7 -8.04,2.9 -12.12,3.77 6.44,1.99 10.29,7.52 14.42,12.65 4.17,5.37 6.22,12.36 12.38,16.19 4.84,3.39 8.78,7.9 13.95,10.82 3.01,1 6.05,2.9 8.87,1.09 0,0.03 0,0.06 0.01,0.08 4.03,9.24 12.21,11.58 21.1,12.77 29.98,13.67 55.89,14.83 75.79,3.88 -12.51,2.71 -27.07,1.29 -43.72,-4.22z"/>
   <path class="fil2" d="M998.21 556.7c-32.24,-2.65 -32.37,-4.14 -19.13,-33.73 12.75,-28.47 23.82,-57.7 25.15,-89.48 -9.48,-5 -15.29,0.71 -20.99,6.71 -13.75,38.34 -19.05,79.97 -46.99,115.25 18.59,3.27 33.37,7.14 48.36,8.17 17.56,1.19 35.4,1.1 52.92,-0.56 14.45,-1.37 26.87,-4.95 37.48,-10.65 -7.4,2.48 -15.35,4.06 -23.8,4.55 -17.63,1.04 -35.37,1.2 -52.99,-0.25z"/>
   <path class="fil2" d="M308.35 1010.25c-0.46,0.36 -0.82,0.82 -1.24,1.22 7.88,-0.8 15.36,-3.27 22.45,-7.25 -4.94,1.21 -9.92,2.2 -14.94,3.07 -2.24,0.67 -4.37,1.64 -6.27,2.97z"/>
   <path class="fil2" d="M718.39 496.88c-40.33,-0.84 -78.41,5.56 -114.05,20.05 39.96,-13.36 82.03,-14.88 124.5,-14.34 8.56,0.11 19.65,4.73 25.21,-6.52 -11.75,1.77 -23.76,1.06 -35.66,0.81z"/>
   <path class="fil2" d="M968.89 426.35c17.46,-13.57 11.52,-30.38 6.49,-47.04 -9.76,-42.29 -29.72,-78.32 -62.9,-107.07 -22.05,-19.11 -40.21,-41.99 -58.17,-64.97 -23.89,-30.56 -55.06,-45.4 -94.3,-41.44 -3.94,0.63 -7.36,2.34 -10.61,4.4 38.88,-0.54 67.72,18.26 90.58,50.38 11.49,16.16 24.08,32.17 38.83,45.25 35.07,31.12 62.94,66.29 74.16,112.79 1.32,15.58 11.41,32.13 -5.16,45.69 -3.58,1.12 -7.17,2.25 -10.76,3.37 4.25,2.09 9.05,3.44 14.34,4.18 6.27,-0.5 12.14,-2.23 17.51,-5.54z"/>
   <path class="fil2" d="M770.9 145.14c0.47,-14.15 -6.39,-19.52 -21.07,-17.75 10.58,-6.34 20.03,-14.01 31.03,-19.04 27.79,-12.7 56.58,-22.76 85.98,-31 20.34,-3.7 39.99,-10.97 60.85,-12.07 96.71,-11.32 191.86,-38.13 290.87,-27.01 47.47,5.34 94.35,12.2 139.53,27.69 -8.91,-5.79 -19.26,-7.95 -29.22,-11.13 -141.16,-45.11 -281.48,-20.39 -421.78,5.11 -20.84,1.19 -40.86,6.09 -60.32,13.46 -43.46,8.64 -83.32,25.31 -120.11,51.06 8.23,8.82 24.65,5.02 22.56,21.13 -8.57,8.82 -15.82,19.07 -27.11,24.93 -1.2,4.4 0.78,5.69 4.84,4.94 4.61,-1.61 9.21,-3.22 13.8,-4.83 2.28,-0.19 4.52,-0.29 6.74,-0.35 9.93,-6.25 18.6,-13.79 23.41,-25.14z"/>
   <path class="fil2" d="M266.47 1014.68c-8.94,-10.62 -22.79,-7.44 -33.92,-11.87 -42.48,-10.4 -79.29,-30.38 -104.05,-67.3 -27.77,-41.41 -45.38,-87.32 -51.71,-136.98 -10.59,-83.11 29.64,-161.01 103.09,-201.25 3.41,-1.87 6.39,-4.26 8.76,-7.35 0.49,-1.35 1.05,-2.71 1.6,-4.08 26.87,-13.93 48.11,-33.97 63.7,-60.17 5.98,-12.25 13.98,-23.21 21.64,-34.39 2.16,-3.55 4.14,-7.21 6.13,-10.84 8.48,-14.41 17.82,-28.26 27.85,-41.62 17.76,-21.13 34.27,-43.08 55.57,-61.37 38.06,-32.69 82.25,-53.42 128.12,-71.73 7.03,-2.81 16.75,-2.75 19.83,-11.53 0.9,0.35 1.87,0.7 2.92,1.04 29.28,-2.81 56.31,-14.52 84.68,-21.06 70.11,-16.17 140.34,-26.61 212.11,-12.45 8.81,1.73 17,3.95 24.74,6.51 -4.38,-2.01 -8.84,-3.82 -13.38,-5.34 -49.36,-16.63 -99.78,-16.07 -150.64,-11.24 -60.7,5.76 -118.8,23.33 -177.26,39.25 -14.71,6.06 -29.4,12.19 -44.15,18.15 -67.42,27.27 -125.25,66.74 -165.11,129.22 -11.82,12.11 -20.4,26.36 -27.51,41.6 0,0 0,0 0.01,0 -0.01,0 -0.01,0 -0.01,0 -1.94,2.98 -3.88,5.96 -5.83,8.94 -8.07,10.26 -15.5,20.94 -20.44,33.15 -15.14,28.35 -44.24,43.03 -64.78,66.1 -35.06,13.7 -63.53,33.96 -83.37,67.9 -60.33,103.16 -29.25,216.46 29.49,293.44 24.43,32.02 58.43,51.49 98.97,57.85 9.67,7.72 22.94,2.26 32.87,8.96 15.29,-0.21 30.58,-0.42 45.87,-0.64 0.72,-1 1.28,-2.09 1.66,-3.27 -0.61,-0.31 -1.04,-0.61 -1.39,-0.92 0.73,-0.02 1.26,0.2 1.39,0.92l1.82 0.59 1.47 -1.22c1.28,0.09 2.54,0.1 3.8,0.11 -11.59,-3.99 -23.12,-3.79 -34.55,2.9z"/>
   <path class="fil2" d="M1829.85 1231.71c4,4.38 8.25,9.67 15.65,6.26 6.1,-3.51 11.82,-1.84 17.67,0.07 -0.03,-0.03 -0.04,-0.05 -0.06,-0.07 -25.1,-26.7 -47.67,-56.56 -76.05,-79.12 -25.2,-20.02 -34.58,-43.48 -35.58,-72.79 -0.5,-14.8 -2.39,-29.23 -9.31,-42.14 -6.97,-13.01 -6.43,-24.63 1.59,-36.46 -1.1,-7.96 -1.1,-8 -6.42,-9.08 -37.44,-7.66 -69.1,-25.97 -96.35,-52.39 -8.95,-14.03 -19.2,-26.83 -33.88,-35.38l-3.54 -4.6c-1.85,-9.5 -4.52,-18.5 -14.13,-23.3 -1.63,-2.66 -1.5,-5.69 -1.92,-8.65 -1.64,-11.44 -3.43,-22.9 -18.74,-23.47 0,3.08 -1.95,-2.87 0.38,-1.89 18.7,-1.54 36.31,-5.57 53.03,-13.12 27.03,-7.79 54.81,-11.16 82.7,-13.95 2.82,-5.42 14.48,4.08 13.4,-7.93 -30,-0.42 -60.01,-1.09 -90.01,-1.22 -52.09,-0.21 -96.32,-12.7 -112.68,-70.19 -0.4,-1.43 -1.39,-2.76 -2.35,-3.95 -8.76,-10.75 -7.23,-20.41 1.45,-30.85 4.51,-5.43 13.76,-11.99 8.62,-19.44 -6.01,-8.73 -16.78,-4.02 -25.5,-2.1 -4.4,0.96 -8.69,3.15 -12.58,5.53 -0.39,0.25 -0.77,0.43 -1.15,0.63 3.43,-0.89 6.93,-0.91 10.35,2.97 -1.59,11.1 -10.74,19.93 -8.84,32.49 7,46.28 41.57,79.44 88.3,87.42 40.3,6.88 80.44,2.51 120.66,2.31 -0.18,0.11 -0.37,0.23 -0.55,0.33 -2.97,0.23 -5.95,0.3 -8.92,-0.06 -26.98,0.05 -53.47,3.62 -79.35,11.43 -2.56,2.21 -5.06,4.47 -7.51,6.75 -17.97,0.93 -35.54,5.92 -57.46,11.72 24.26,4.67 20.72,25.05 31.08,35.32 2.08,8.02 6.16,14.8 11.74,20.7 0.04,0.88 0.08,1.76 0.12,2.65 1.04,3.18 3.15,5.35 6.24,6.61 0.44,0.1 0.8,0.26 1.23,0.36 8.21,12.25 18.03,22.96 30.19,31.44 0.27,1.49 0.58,2.93 0.75,4.5 19.69,26.66 49.4,37.63 78.12,50.24 6.43,2.83 16.29,0.72 17.82,11.37 -2.22,8.94 -4.89,18.23 -1.36,27.2 8.28,21.08 10.87,43.03 12.94,65.36 1,10.8 3.42,21.52 8.67,30.9 7.35,7.97 14.68,15.96 21.99,23.95 24.39,23.4 46.77,48.69 69.54,73.62z"/>
   <path class="fil2" d="M1031.18 396.19c-9.42,5.42 -17.05,13.01 -25.09,19.99 -3.38,3.9 -5.86,8.41 -1.99,14.68 13.21,3.67 19.25,-7.16 27.05,-13.8 17.66,-15.03 35.97,-22.42 54.91,-22.26 -3.83,-1.52 -7.64,-3.1 -11.53,-4.28 -15.91,-4.85 -28.71,-2.73 -43.35,5.66z"/>
   <path class="fil2" d="M1143.97 700.41c-1.42,6.68 -3.9,12.02 -7.28,16.34 2.91,17.57 5.12,35.14 2.34,52.75 7.18,-0.46 7.75,7.18 8.53,15.19 0.05,0.11 0.11,0.22 0.17,0.33 -6.01,1.88 -7.58,6.48 -6.84,12.51 -2.01,-1.37 -4.39,-1.7 -7,-1.38 -0.13,0.04 -0.24,0.1 -0.37,0.13 2.26,-3.93 10.11,-4.76 7.23,-11.64 -1.81,-0.34 -3.58,-0.41 -5.34,-0.37 -0.39,1.18 -0.77,2.36 -1.22,3.54 -0.09,1.81 0.13,3.6 0.51,5.35 -2.95,0.14 -5.43,1.85 -7.85,3.67 -0.49,0.44 -0.96,0.89 -1.44,1.33 1.01,-5.32 2.97,-10.15 7.4,-13.71 -9.22,1.03 -17.78,5.86 -27.11,5.86 -4.88,2.85 -10.13,3.98 -15.48,4.62 6.04,-0.35 11.88,-1.89 17.65,-3.62 7.37,-2.2 5.66,4.16 7.43,7.28 2.98,0.21 5.97,0.42 8.96,0.64 -4,3.71 -8.01,7.42 -12.93,9.96 -4.13,2.75 -9.37,4.44 -10.98,9.57 -0.55,-0.22 -1.12,-0.43 -1.7,-0.64 -10.08,-1.76 -19.76,1.4 -29.41,2.99 -23.52,3.86 -46.86,6.35 -70.09,1.56 6.41,5.9 14.9,7.09 22.74,7.92 31.45,3.3 62.29,-1.36 92.83,-8.56 11.2,-5.23 21.25,-12.09 28.86,-22.5 5.96,-4.01 10.04,-9.32 13.47,-15.09 11.39,-29 9.77,-57.45 -5.11,-85.33 7.05,-3.48 12.65,-5.55 17.21,-6.17 -2.67,-5.34 -6.38,-12.54 -13.02,-8.52 -7.46,4.5 -23.65,-5.61 -22.68,12.99 0.09,0.53 0.17,1.07 0.27,1.61 3.33,0.3 6.65,0.74 9.96,1.38 0.1,0.01 0.2,-0.01 0.3,0z"/>
   <path class="fil2" d="M1448.1 963.36c3.49,0.52 6.28,0.9 8.55,1.09 -4.31,2.51 -6.83,1.62 -8.55,-1.09zm5.23 -37.74c-24,-69.71 -61.88,-100.26 -132.04,-104.5 -40.58,-2.45 -81.09,-0.81 -121.14,7.48 -8.55,1.77 -17.23,5.13 -27.19,2.96 5.64,-19.49 20.56,-34.1 20.1,-54.25 -0.32,-2.39 -0.81,-4.67 -1.8,-6.65 3.82,-8.55 4.58,-17.9 5.4,-27.22 2.6,-18.99 4.62,-38.02 -2.69,-56.45 -2.47,-6.22 -1.78,-9.74 4.98,-12.21 32.86,-12 58.99,-34.28 85.24,-56.35 7.99,-3.56 14.4,-8.57 20.02,-14.32 4.5,-11.92 8.71,-23.93 9.67,-36.9 -18.85,13.28 -30.77,32.95 -45.91,49.65 -0.54,-0.14 -1.05,-0.31 -1.64,-0.44 -16.02,4.43 -27.43,16.44 -39.63,26.2 -16.78,13.41 -43.85,15.97 -52.2,34.43 -2.23,4.91 -3.19,10.21 -3.49,15.72 10.12,-0.47 14.2,7.66 15.82,26.46 0.46,5.29 0,10.65 1.13,15.88 0.69,1.94 1.29,3.95 2.31,5.54 -2.04,8.56 -4.07,17.12 -6.1,25.69 -7.16,2.72 -10.97,8.59 -14.57,14.66 -4.82,22 -16.39,41.01 -31.75,60.85 11.37,-1.63 19.67,-2.63 27.9,-4.02 37.74,-6.4 75.42,-12.48 113.96,-11.97 70.97,0.95 127.84,22.76 150.06,98.02 6.58,24.32 5.38,49.11 4.4,73.88 7.52,-6.47 15.4,-12.58 23.14,-18.83 2.9,-17.67 0,-35.47 -3.98,-53.32z"/>
   <path class="fil2" d="M1126.94 698.6c-0.03,-0.16 -0.07,-0.3 -0.1,-0.47 -5.05,-9.45 -13.51,-7.01 -21.7,-6.56 -22.83,1.24 -45.56,1.5 -67.48,-3.94 7.93,3.42 16.46,4.96 24.78,7.34 21.23,6.08 43,2.7 64.5,3.63z"/>
   <path class="fil2" d="M1295.07 629.51c-0.79,0.12 -1.57,0.27 -2.42,0.33 -2.24,2 -4.2,4.16 -5.89,6.45 3.44,-0.05 6.33,-1.98 8.31,-6.78z"/>
   <path class="fil2" d="M1011.19 688.43c5.52,1.09 8.98,-2.09 12.49,-5.12 -2.54,-0.96 -5.06,-2.04 -7.58,-3.19 -3.28,1.54 -6.48,3.14 -4.91,8.31z"/>
   <path class="fil2" d="M753.59 614.61c7.92,5.72 12.56,-2.53 18.69,-4.41 9.04,-4.47 18.08,-8.94 27.11,-13.41 0.72,0.74 1.54,1.42 2.56,1.94 27.94,-1.68 55.86,2.38 83.87,-0.59 6.64,-0.7 13.68,-2.14 20.08,-0.73 -0.06,-0.4 -0.15,-0.76 -0.21,-1.17 -0.78,-6.27 -7.26,-4.7 -11.33,-4.26 -37.22,4.14 -74.95,-4.67 -111.94,4.49 -4.12,-0.89 -7.87,-0.67 -11.41,0.23 -2.6,1.41 -5.23,2.73 -7.98,3.81 -2.43,5.17 -11.66,5.8 -9.44,14.1z"/>
   <path class="fil2" d="M1065.6 811.39c-5.42,0.04 -10.83,-0.01 -16.26,0.02 -9.55,0.19 -19.08,0.1 -28.4,-2.32 -4.61,-0.22 -9.07,-0.06 -12.24,3.65 -9.93,-17.63 9.87,-4.97 11.89,-10.43 9.31,-2.43 18.95,-1.45 28.42,-2.22 0.7,-0.39 1.41,-0.75 2.1,-1.18 -0.01,-0.19 -0.05,-0.34 -0.07,-0.52 0.95,0.41 1.9,0.74 2.86,1.09 1.28,-0.21 2.56,-0.43 3.83,-0.76 10.88,-3.41 22.59,-3.56 33.07,-8.56 12.4,-7.96 26.89,-11.26 39.8,-17.86 1.89,-0.96 3.53,-1.65 5,-2.11 0.89,-4.08 1.09,-8.42 -1.43,-13.23 -18.8,13.49 -43.49,12.31 -60.79,28.16 -9.91,2.53 -19.82,5.06 -29.73,7.59 -1.43,0.28 -2.93,0.73 -4.4,1.12 -14.02,0.01 -28.03,0.28 -41.61,4.46 -0.01,0 -0.02,0 -0.03,0 -8.37,-0.8 -16.82,-2.25 -25.52,2.01 5.26,7.62 9.58,13.49 18.07,13.61 4.08,-0.13 8.15,-0.28 12.22,-0.43l0.01 0c9.43,4.15 19.33,4.19 29.32,3.28 6.1,0.04 12.21,0.07 18.32,0.1 16.06,-0.72 32.08,-1.76 47.03,-8.56 -15,0.21 -30.02,0.42 -45.03,0.62 0.65,0.08 1.29,0.15 1.93,0.23 3.88,1.14 7.76,1.8 11.63,2.26z"/>
   <path class="fil2" d="M1029.41 805.12c-0.13,0.25 0.35,1.24 0.63,1.27 4.67,0.57 9.37,1.09 14.05,1.62 -2.51,-1.14 -5.39,-1.86 -7.8,-3.11 3.61,-0.77 7.16,-2.02 10.64,-3.72 -5.34,0.79 -10.66,1.59 -16,2.38 -0.52,0.51 -1.18,0.95 -1.52,1.57z"/>
   <path class="fil2" d="M1055.14 799.95c10.52,3.66 20.27,3.52 28.43,-4.34 -5.31,0.44 -10.62,0.88 -15.7,2.45 -4.24,0.63 -8.48,1.26 -12.73,1.89z"/>
   <path class="fil2" d="M971.25 752.84c44.75,-5.53 90.02,-7.02 134.04,-18.01 12.6,-3.14 19.49,-5.48 22.55,-10.16 -6.17,3.88 -13.81,6.31 -22.69,7.93 -34.84,6.37 -70.05,8.56 -105.08,12.72 -14.8,1.75 -14.76,-5.4 -10.32,-16.66 3.94,-10.03 15.85,-18.07 8.85,-31.24 -17.96,7.62 -32.67,30.8 -35.69,55.36 2,0.5 4.67,0.5 8.33,0.06z"/>
   <path class="fil2" d="M762.56 554.88c-1.06,-0.35 -2.14,-0.64 -3.23,-0.91 0.79,1.44 1.88,1.69 3.23,0.91z"/>
   <path class="fil2" d="M520.96 680.54c-1.95,7.32 -3.8,14.84 2.48,21.23 -1.36,0.4 -2.73,0.92 -4.14,1.69 -9.05,11.78 -6.45,25.06 -4.79,38.2 3.55,11.21 3.81,23.28 9.19,33.98 4.69,10.34 7.34,22.02 18.75,27.84 3.36,4.03 6.54,8.23 10.11,12.06 29.51,31.72 66.81,51.87 105.08,70.55 28.48,8.52 57.73,8.4 86.88,6.65 77.63,-4.66 153.38,-23.09 230.43,-32.23 39.07,-4.64 77.88,-11.32 114.24,-26.89 -6.98,2.16 -14.01,4.12 -21.15,5.83 -83.68,20 -169.57,26.36 -254.11,41.15 -44,7.69 -88.56,5.93 -132.95,1.24 -8.43,-1.01 -17.08,-1.37 -24,-7.12 -15.8,-13.12 -33.51,-23.81 -50.52,-35.4 -3.76,-1.56 -7.18,-3.65 -9.81,-6.89 -12.96,-9.4 -25.18,-19.74 -35.43,-32.6 -1.33,-0.48 -2.55,-1.1 -3.84,-1.66 -3.78,-7.53 -7.56,-15.07 -11.35,-22.6 -2.88,-10.71 -5.77,-21.42 -8.64,-32.12l0 0 0 0c1.1,-13.82 -2.38,-28.09 3.87,-41.42 5.32,-48.36 26.01,-86.97 70.27,-110.57 1.08,-3.78 8.59,-2.12 8.74,-6.68 19.41,-7.48 33.27,-22.34 47.73,-36.42 3.14,-2.61 5.82,-5.91 8.63,-9.01 -2.29,3.28 -4.16,6.97 -5.63,11.05 -2.6,6.08 -10.3,9.43 -9.27,17.45 10.85,0.66 15.02,-9.43 22.6,-14.01 6.51,-3.95 10.82,-11.22 17.21,-15.31 -2.31,-1.02 -4.64,-2.03 -6.96,-3.04 -8.77,-5.99 -14.11,1.48 -20.37,5.23 -7.53,4.49 -13.73,10.85 -20.71,16.14 1.27,-2.29 1.92,-4.93 1.55,-8.14 7.33,-7.47 14.66,-14.94 21.99,-22.41 -19.46,-9.63 -19.42,12.67 -29.67,18.13 -15.88,11.54 -27.82,27.86 -45.33,37.41 -1.58,1.87 -3.15,3.71 -4.72,5.58 -2.33,-0.22 -4.99,0.17 -7.27,0.71 -5.74,2.8 -11.02,5.96 -15.95,9.36 -8.2,7.24 -16.32,14.57 -24.07,22.25 -13.91,17.12 -22.96,37.86 -29.08,60.8z"/>
   <path class="fil2" d="M757.39 554.22c0.52,-0.13 1.02,-0.24 1.52,-0.35 -3.83,-0.92 -7.86,-1.43 -12.13,-1.44 -0.74,0.43 -1.38,1.09 -2,1.75 -0.76,-0.63 -1.62,-0.82 -2.59,-0.62 0.01,-0.15 0.02,-0.28 0.02,-0.46 0.02,-1.23 -0.7,-2.24 -2.12,-3.03 -3.48,-0.12 -6.93,-0.26 -10.41,-0.39 4.63,2.11 9.45,3.83 14.57,4.93 4.39,0.47 8.77,0.3 13.14,-0.4z"/>
   <path class="fil2" d="M1240.94 1385.27c-3.62,1.57 -7.27,3.05 -10.95,4.48 4.19,-0.79 8.07,-2.29 11.62,-4.64 -0.23,0.04 -0.44,0.12 -0.67,0.15z"/>
   <path class="fil2" d="M1171.82 1410.38c12.21,-4.09 24.42,-8.18 36.43,-12.78 -12.18,4.16 -24.42,8.17 -36.43,12.78z"/>
   <path class="fil2" d="M1135.57 1423.58c24.48,-29.47 31,-65.63 34.71,-102.73 0.6,-6.04 4.69,-18.56 -9.83,-8.78 0.67,46.62 -16.4,85.83 -47.55,119.16 0.61,0.53 1.29,1.07 2.12,1.62 6.71,-3.44 13.6,-6.44 20.54,-9.27z"/>
   <path class="fil2" d="M1396.88 1120.27c-0.4,-0.52 -0.82,-1.03 -1.2,-1.56 -6.99,-0.07 -13.99,-0.14 -20.99,-0.22 -0.54,0.59 -1.05,1.23 -1.56,1.85 -6.04,-0.01 -12.07,0 -18.13,0 -2.18,0.8 -4.36,1.63 -6.54,2.44 -0.85,-0.26 -1.69,-0.51 -2.53,-0.77 -4.64,1.61 -9.28,3.22 -13.92,4.82 -7.89,0.8 -16.34,-2.26 -23.58,3.3 -7.84,1.78 -16.45,0.54 -23.34,5.98 -2.76,0.3 -5.51,0.62 -8.27,0.93 -11.68,0.73 -23.03,2.83 -33.65,8.04 -64.17,12.17 -122.55,42.78 -186.63,56.85 -40.39,8.87 -79.71,21.74 -121.48,22.75 -71.22,1.72 -141.91,10.16 -212.74,16.84 -0.28,0.43 -0.54,0.85 -0.76,1.26 -6.85,3.27 -12.83,7.25 -18.03,11.82 -6.61,11.88 -15.99,22.37 -18.51,36.64 -8.52,48.46 0.86,93.45 23.6,136.32 1.87,15.53 13.19,20.69 26.12,24.73 -5.36,-11.87 -7.25,-24.83 -17.17,-33.54 -7.68,-16.12 -9.67,-33.16 -6.77,-50.48 -9.27,-38.25 -9.27,-76.26 15.91,-113.54 2.17,-3.22 2.26,-7.2 0.83,-10.98 -0.09,-0.12 -0.18,-0.18 -0.27,-0.3 6.65,4.35 14.06,1.93 21.22,1.84 59.92,-0.79 119.19,-14.16 178.83,-13.37 89.04,1.17 170.11,-29.32 252.63,-54.91 26.34,-8.17 52.04,-18.57 78.72,-26.01 11.37,-3.84 22.99,-6.56 34.81,-8.55 2.41,-0.37 4.8,-0.84 7.17,-1.4 0.06,-0.01 0.1,-0.02 0.15,-0.03 0.95,-0.23 1.9,-0.42 2.85,-0.69 7.45,-2.57 15.35,-2.84 22.94,-4.67 7.46,-2.19 15.22,-2.87 22.74,-4.74 5.36,-1.67 10.76,-3.16 16.16,-4.68 8.95,-3.08 18.23,-1.93 27.41,-2.09 7.36,-0.04 14.75,0.1 22.11,-0.1 3.61,-0.82 7.85,-0.51 11.3,-1.57 2.61,0.11 5.21,0.24 7.8,0.51 1.82,0.19 3.29,0.15 4.5,-0.08 0.7,-2.5 1.79,-4.93 2.93,-7.34 -0.18,-0.54 -0.36,-1.08 -0.61,-1.69 -2.73,-0.04 -5.46,-0.07 -8.18,-0.1 -2.22,-0.35 -4.46,-0.7 -6.67,-1.06 -0.89,0.49 -1.79,0.89 -2.76,1.16 -7.39,8.36 -17.17,6.25 -26.42,6.39z"/>
   <path class="fil2" d="M789.9 1483.73c11.33,15.79 24.79,29.03 43.2,36.39 18.84,12.82 39.43,10.03 59.98,6.46 33.77,-5.87 66.05,-14.99 96.62,-27.85 -24.67,7.75 -49.56,14.69 -74.68,20.9 -20.56,5.09 -40.85,5.46 -60.78,-2.91 -17.07,-9.97 -33.35,-20.83 -44.12,-38.07 -30.25,-31.95 -50.66,-68.85 -57.76,-112.8 -1.25,-7.77 -2.41,-18.52 -13.63,-18.38 -5.57,0.07 -8.93,2.98 -11.27,6.9 1.25,3.64 0.77,8.67 1.23,12.23 6.07,46.63 28.85,84.34 61.21,117.13z"/>
   <path class="fil2" d="M1302.71 1369.18c-14.44,-0.88 -27.38,-0.09 -39.76,7.27 -0.51,0.29 -1.03,0.55 -1.53,0.83 9.98,-1.89 20.21,-2.05 30.86,-1.92 46.67,0.54 92.85,-4.03 135.73,-23.4 -40.16,14.32 -82.51,19.81 -125.29,17.22z"/>
   <path class="fil2" d="M2105.38 1094.73c1.75,-8.27 -3.57,-12.71 -6.4,-18.62l-13.01 28.08c6.3,-0.95 11.3,0.17 15.52,2.48 0.67,-0.84 1.37,-1.67 2.09,-2.48 1.59,-0.95 2.92,-2.02 4.13,-3.15 -1.81,-1.58 -2.91,-3.6 -2.33,-6.3z"/>
   <path class="fil2" d="M2131.48 1238.23c12.3,-0.38 15.87,-7.43 14.11,-18.53 -6.18,5.06 -11.22,10.98 -14.11,18.53z"/>
   <path class="fil2" d="M2094.6 1277.78c-1.38,1.48 -3.03,2.81 -4.33,4.31 -0.06,0.68 -0.13,1.35 -0.11,2.08 2.51,-1.11 4.89,-2.37 7.24,-3.66 -0.34,-0.45 -1.64,-1.59 -2.79,-2.73z"/>
   <path class="fil2" d="M2146.34 983.58c-4.66,-0.21 -6.02,5.26 -4.67,10.05 2.5,-0.03 5,-0.07 7.5,-0.1 0.58,-3.88 2.84,-9.7 -2.83,-9.96z"/>
   <path class="fil2" d="M841.78 1710.52c-0.21,-17.65 0.66,-35.4 -0.87,-52.93 -2.78,-31.98 6.48,-60.77 20.85,-88.42 2.43,-4.69 3.22,-12.12 12.68,-9.84 37.41,9 69.73,-6.25 100.25,-24.34 43.26,-25.66 89.21,-44.44 137.15,-58.54 42.67,-12.55 85.11,-25.52 125.24,-45.03 7.49,-1.19 15.62,-0.4 22.08,-5.15 29.72,-21.82 65.2,-12.92 97.94,-18.52 0.53,-0.09 1.04,-0.1 1.56,-0.14 -0.75,-0.78 -1.46,-1.58 -2.23,-2.35 -2.28,-2.31 -6.82,-3.3 -10.34,-3.39 -43.16,-0.92 -86.12,-0.77 -122.7,26.59 -1.37,-0.2 -2.76,-0.36 -4.17,-0.46 -32.18,7.88 -61.66,23.26 -93.44,32.69 -58.87,17.45 -118,34.67 -170.44,69.02 -27.4,17.94 -58.4,27.52 -92.01,25.13 -2.74,-0.2 -5.42,-0.1 -7.96,0.29 -28.33,32.56 -35.64,71.75 -36.55,112.38 -0.38,17.27 2.81,35.38 22.94,43.01z"/>
   <path class="fil2" d="M1231.58 1638.32c-6.26,-6.16 -9.25,-16.49 -20.09,-17.48 0.66,-6.78 -1.3,-12.66 -6.02,-17.61 -9.9,-25.64 -19.07,-51.61 -29.98,-76.81 -7.8,-18.02 -21.57,-30.21 -42.77,-29.15 -13.76,0.69 -26.22,4.43 -37.86,10.15 29.15,-8.35 43.44,-2.63 58.36,23.75 5.78,10.24 10.57,20.95 14.13,32.16 11.66,12.89 22.75,26.27 33.07,40.36 3.09,7.14 6.18,14.28 9.26,21.41 0.14,0.76 0.42,1.53 1.02,2.34 1.03,5.83 1.44,11.5 1.29,17.05 21.74,19.23 54.54,26.75 75.34,14.11 -20.25,2.19 -42.14,-6.87 -55.75,-20.28z"/>
   <path class="fil2" d="M1030.97 1672.5c-2.65,-5.85 -3.3,-13.54 -12.84,-13.51 -3.72,9.05 2.72,13.78 7.67,19.08 1.56,7.05 4.67,13.22 8.39,19.05 18.45,14.86 39.68,25.12 64.16,29.89 0.95,-0.44 1.89,-0.71 2.79,-0.89 3.28,4.7 7.19,6.93 12.82,2.57 1.09,0.46 2.19,0.89 3.29,1.27 3.87,-0.85 7.72,-1.72 11.47,-2.8 -3.81,-0.95 -7.5,-2.38 -11.35,-3.19 -33.57,-9.15 -61.59,-27.63 -86.41,-51.46z"/>
   <path class="fil2" d="M1085.52 1513.69c-7.32,4.65 -10.29,6.91 -13.14,7.64 -2.76,2.06 -5.49,4.19 -8.2,6.4 14.64,0.99 34.85,5.04 41.32,-2.59 3.04,-3.58 5.52,-5.88 7.71,-7.21 -8.08,-6.68 -17.42,-10.77 -27.7,-4.24z"/>
   <path class="fil2" d="M1009.11 1801.91c-5.38,-2.39 -15.95,-9.04 -9.57,-12.48 13.66,-7.39 4.75,-8.26 -0.82,-12.01 -16.94,-11.39 -34.64,-21.87 -46.97,-38.83 -0.74,-4.67 -3.08,-7.41 -7.93,-7.07 1.55,-4.23 -1.84,-6.21 -5.21,-8.22 -3.85,-1.64 -6.87,-8.15 -11.01,-5.18 -5.37,3.87 0.83,7.37 3.1,10.23 2.6,3.28 6.26,5.72 9.45,8.53 -0.97,2.64 4.22,10.03 -1.66,7.64 -1.7,-0.7 -3.43,-1.33 -5.16,-1.93 7.09,13.51 19.29,21.9 31.22,30.65 4.71,3.48 12.81,5.22 12.25,12.4 -1.58,20.07 13.85,21.46 26.66,24.92 11.88,3.21 24.45,1.29 36.64,2.39 11.94,-2.26 24.45,-3.03 34.84,-9.1 -5.49,0.75 -11.05,1.3 -16.29,2.85 -16.49,-2.06 -33.68,2.28 -49.56,-4.77z"/>
   <path class="fil2" d="M1132.28 1751.81c-9.05,3.69 -17.29,2.12 -25.33,-0.3 6.36,3.57 13.79,4.19 21.12,5.2 1.42,-1.61 2.84,-3.23 4.22,-4.9z"/>
   <path class="fil2" d="M925.93 1740.73c0,-0.12 -0.05,-0.24 -0.05,-0.36 -24.72,-6.54 -50.8,-5.08 -75.19,-12.69 1.45,3.71 3.13,7.26 4.93,10.72 20.73,3.45 41.67,5.65 62.24,10.23 4.85,1.08 8.85,-1.67 8.07,-7.89z"/>
   <path class="fil2" d="M1198.18 1727.42c-8.64,-2.57 -16.78,-5.75 -23.26,5.02 -4.99,8.3 -12.07,15.33 -18.23,22.93 17.89,0.07 28.86,-14.96 44.19,-20.61 0.26,-0.18 0.49,-0.39 0.74,-0.56 0.89,-1.48 -0.97,-5.19 -3.44,-6.77z"/>
   <path class="fil2" d="M485.72 721.16c0.07,-0.34 0.12,-0.7 0.18,-1.04 0.09,0 0.15,0 0.26,-0.01 1.96,-0.36 0.68,0.93 -0.44,1.05zm5.76 22.41c8.84,-11.1 7.37,-22.9 2.3,-34.95 -1.6,-0.65 -2.89,-1.04 -3.98,-1.22 0.22,-0.21 0.37,-0.46 0.62,-0.67 0.84,-22.69 12.63,-40.82 24.46,-58.97 2.56,-2.94 5.17,-5.85 7.79,-8.74 0.15,-0.35 0.32,-0.7 0.47,-1.05 18.53,-38.63 49.36,-62.93 86.78,-82 4.59,-5.04 9,-10.93 12.36,-18.9 -54.52,22.26 -99.21,47.59 -121.59,100.26 -3.69,3.03 -5.83,6.78 -5.42,11.71 -4.65,6.1 -7.02,13.05 -7.7,20.63 -5.57,9.76 -7.02,20.32 -5.97,31.33 -6.59,18.27 -4.21,37.12 -3.7,55.86 -1.49,0.57 -3.04,2.22 -4.63,5.34 -4.67,16.62 0.22,34.34 -5.55,50.85 -0.84,6.78 0.34,13.03 4.78,18.45l-4.7 45.98c7.99,0.2 10.92,-5.73 15.51,-11.02 3.88,-4.47 7.5,-9.31 11.31,-13.97 0.7,-6.65 0.1,-13.5 -2.09,-20.6 -0.84,-0.33 -1.6,-0.62 -2.39,-0.92 0.29,-5.96 0.57,-11.92 0.87,-17.89 1.12,-13.75 2.24,-27.51 3.36,-41.26 -2.7,-9.06 -3.48,-18.52 -2.88,-28.27z"/>
   <path class="fil2" d="M1100.77 1797.08c-11.51,5.42 -23.02,10.84 -37.64,17.73 7.52,0.99 11.22,1.49 14.93,1.97 6.08,-1.91 12.17,-3.82 18.24,-5.72 3.12,-3.11 6.25,-6.24 9.37,-9.35 3.66,-3.03 7.32,-6.06 10.98,-9.1 -7.73,-7.16 -11.12,1.06 -15.88,4.47z"/>
   <path class="fil2" d="M754.61 512.52l-37.19 0c7.77,9.32 13.18,9.69 19.18,8.45 0.92,-0.97 2.09,-1.42 3.37,-1.59 -1.12,0.53 -2.25,1.06 -3.37,1.59 7.58,0.27 15.17,0.82 22.74,0.69 3.87,-0.07 4.73,-2.85 2.97,-6.16 -1.68,-3.17 -4.52,-3.57 -7.7,-2.98z"/>
   <path class="fil2" d="M2263.9 1461.88c-13.6,49.12 -7.69,96.15 15.91,142.38 15.66,-13.74 29.86,-27.03 34.8,-46.35 2.28,-8.91 6.72,-10.01 14.15,-10.87 25.99,-3.03 51.7,-5.49 77.98,-0.85 48.37,8.56 96.84,16.96 145.6,22.69 31.4,3.68 62.73,17.27 95.03,4.53 9.24,-1.35 17.88,-3.89 23.68,-12.02 23.81,-18.38 49.65,-9.34 75.12,-5.61 12.77,1.87 26.5,6.91 35.44,-8.18 -29.27,-17.09 -59.99,-26.25 -91.1,-34.28 -94.95,-24.5 -190.2,-47.75 -286.21,-67.78 -5.84,-4.9 -12.67,-4.59 -19.6,-3.73 -6.16,0.1 -12.32,0.19 -18.48,0.29 -11.51,0.74 -23.1,1.43 -14,18.11 6,6.7 14.71,7.28 22.47,10 -3.62,12.02 -11.86,4.58 -18.38,4.37 -20.2,-3.97 -30.82,-34.25 -57.5,-21.07 -0.91,0.46 -3.54,-2.54 -5.37,-3.95 -17.03,-13.17 -25.17,-3.38 -29.52,12.32z"/>
   <path class="fil2" d="M1586.98 3636.68c53.45,-54.38 115.69,-98.48 172.79,-148.55 14.05,-3.95 22.3,-14.3 29.09,-26.29 3.16,-3.34 6.07,-6.94 9.5,-9.96 83.21,-73.23 158.92,-153.9 233.54,-235.64 5.23,-5.72 15.51,-11.58 6.5,-20.81 -8.58,-8.8 -15.26,-0.88 -20.82,5.54 -33.85,39.21 -75.82,69.52 -113.83,104.17 -113.04,103.04 -221.97,210.24 -325.43,322.95 -4.27,4.66 -14.48,10.08 -9,16.19 8.05,8.94 13.13,-3 17.65,-7.6z"/>
   <path class="fil2" d="M1895.98 3792.59c2.69,-1.47 5.18,-3.3 7.73,-5.03 95.89,-65.04 181.83,-141.65 259.91,-226.93 32.58,-35.58 59.68,-75.78 86.21,-116.15 -2.23,-11.4 -9.19,-10.56 -16.97,-6.23 -10.56,5.9 -15.95,15.73 -19.27,26.93 -5.9,6.96 -11.19,14.59 -17.81,20.77 -79.77,74.49 -160.03,148.46 -239.51,223.28 -24.59,23.15 -47.29,48.34 -70.57,72.86 -3.67,3.87 -11.99,8.13 -5.81,14.6 5.64,5.89 11.01,-1.35 16.08,-4.11z"/>
   <path class="fil2" d="M781.9 2863.78c6.76,7.5 9.7,0.42 13.46,-3.53 65.76,-123.24 149.37,-233.72 241.42,-338.18 53.7,-60.95 103.48,-125.47 164.42,-179.78 14.79,-6.83 22.94,-20.45 33.01,-32.13 4.06,-4.48 8.84,-8.51 12.02,-13.56 5.5,-8.76 25.52,-14.99 14.85,-25.81 -12.29,-12.45 -20.64,7.08 -28.01,14.31 -73.23,71.78 -145.5,144.5 -215.55,219.42 -13.67,4.36 -19.44,15.35 -23.38,27.87 -3.28,10.29 -14.49,13.78 -19.4,22.66 -11.96,6.13 -17.8,16.87 -21.8,28.99 -45.73,63.19 -88.93,128.03 -128.08,195.53 -15.82,27.28 -31.76,54.55 -42.96,84.22z"/>
   <path class="fil2" d="M1368.45 3620.41c30.49,-26.95 60.67,-54.25 90.93,-81.43 7.06,-2.23 12.73,-6.02 15.04,-13.52 24.8,-23.97 49.2,-48.37 74.48,-71.83 89.61,-83.18 170.81,-174.68 257.41,-260.82 4.4,-4.38 13.49,-9.65 7.24,-16.65 -7.45,-8.33 -13.41,0.52 -18.87,5.56 -2.82,2.6 -5.46,5.4 -8.27,8.03 -82.96,77.67 -167.57,153.59 -248.08,233.87 -8.97,3.1 -12.52,11.57 -17.95,18.17l-0.36 0.35c-4.85,4.16 -9.43,8.57 -13.4,13.6 -48.83,52.14 -97.74,104.21 -146.39,156.52 -3.59,3.87 -12.95,7.77 -6.19,14.46 6.69,6.63 10.47,-2.82 14.4,-6.3z"/>
   <path class="fil2" d="M1278.82 2389.99c4.11,-4.73 12.41,-9.57 7.37,-17.38 -5.31,-8.24 -10.4,0.18 -15.45,2.16 -9.96,6 -19.44,12.41 -21.89,25 -5.68,7.19 -11.11,14.6 -17.08,21.54 -113.87,132.28 -219.27,270.75 -307.23,421.86 -22.57,38.8 -46.57,76.89 -64.73,118.13 -26.88,43.19 -43.78,90.88 -62.51,137.75 -2.05,5.14 -4.58,11.38 1.53,14.21 8.52,3.96 9.68,-4.57 12.11,-9.73 12.06,-25.59 23.96,-51.26 35.92,-76.9 5.27,-3.34 7.32,-8.28 7.1,-14.35 6.43,-15.25 12.85,-30.49 19.29,-45.76 68.66,-131.57 151.28,-254.12 240.73,-372.27 52.85,-69.78 107.45,-138.15 164.84,-204.28z"/>
   <path class="fil2" d="M1327.43 3527.91c-1.88,3.62 -7.32,7.84 -2.33,12.06 6.81,5.79 9.03,-2.31 12.18,-5.62 13.27,-13.9 27.2,-27.32 39.1,-42.35 84.78,-107.03 181.62,-202.47 281.84,-294.67 9.63,-8.84 19.3,-17.64 28.7,-26.71 3.88,-3.73 8.22,-8.44 2.47,-13.58 -4.21,-3.77 -8.62,-0.89 -12.21,2.28 -4.61,4.07 -9.08,8.29 -13.64,12.42 -35.84,32.48 -70.08,66.78 -108.95,95.81 -5.26,0.5 -8.87,3.23 -10.84,8.12 -55.59,55.06 -112.72,108.61 -162.55,169.24 -21.09,25.68 -38.51,53.62 -53.76,83z"/>
   <path class="fil2" d="M2590.49 1385.57c-71.88,-5.77 -138.55,-20.7 -205.82,-32.05 -24.58,-7.9 -49.26,-0.48 -73.89,-0.46 -4.65,2.67 -12.95,-0.64 -14.01,9.68 78.97,25.43 159.18,46.04 241.94,54.62 21.74,2.26 38.43,-10.1 51.78,-31.8z"/>
   <path class="fil2" d="M1189.21 2046.09c-8.31,-8.87 -13.6,1.54 -18.52,6.09 -36.07,33.4 -71.82,67.17 -107.68,100.83 -6.76,5.47 -14.04,10.44 -18.25,18.45 -32.55,37.84 -68.54,72.61 -98.78,112.52 -19.53,25.78 -37.58,52.5 -54.07,80.3 -2.76,4.65 -5.86,10.24 1.13,13.7 5.55,2.72 8.14,-2.59 10.7,-6.17 7.16,-10.01 13.68,-20.5 21.15,-30.26 76.93,-100.56 164.12,-191.6 256.95,-277.43 4.92,-4.55 15.78,-9.05 7.36,-18.04z"/>
   <path class="fil2" d="M882.58 3501.06c1.31,-5.14 2.2,-10.45 4.02,-15.41 35.48,-97.04 88.6,-185.14 139.33,-274.44 11.1,-3.6 11.47,-13.96 14.35,-22.74 1.85,-3.08 3.67,-6.16 5.51,-9.24 8.31,-4.06 10.37,-11.98 12.3,-19.97 3.87,-7.25 7.78,-14.48 11.55,-21.79 2.44,-4.71 5.46,-10.12 -0.98,-13.6 -5.66,-3.08 -9.77,0.3 -12.92,5.37 -4.72,7.61 -9.81,14.98 -14.74,22.45 -4.75,1.26 -2.69,6.54 -5.35,9.04 -4.72,8.66 -8.89,17.69 -14.27,25.94 -58.08,89.28 -115.04,179.12 -143.39,283.45 -7.87,7.29 -10.31,16.51 -7.5,26.46 1.54,5.45 4.93,11.52 12.09,4.49z"/>
   <path class="fil2" d="M1045.69 1713.25c-0.01,0 -0.02,-0.01 -0.02,-0.02 -0.01,-0.01 -0.03,-0.02 -0.04,-0.03l0.06 0.05z"/>
   <path class="fil2" d="M968.95 3085.99c20.94,-36.31 41.86,-72.62 62.8,-108.94 9.47,-6.8 11.61,-18.58 18.47,-27.16l0 0c1.82,-3.16 3.13,-6.81 5.59,-9.36 3.44,-3.55 6.75,-7.73 2.01,-11.03 -4.42,-3.09 -7.85,0.79 -9.59,5.59 -1,2.77 -2.76,5.27 -4.19,7.89 -5.8,9.41 -11.59,18.81 -17.38,28.22 -24.19,37.19 -48.38,74.36 -72.59,111.54 -9.45,2.6 -7.54,11.89 -10.68,18.2 -14.47,27.77 -29.7,55.17 -43.24,83.39 -25.78,53.74 -52.11,107.42 -59.34,167.78 -6.56,13.82 -4.51,28.04 -0.57,42.59 1.77,-11.84 3.54,-23.68 5.31,-35.52 28.55,-88.64 65.67,-173.49 112.53,-254.02 6.65,-4.67 10.19,-11.11 10.87,-19.17z"/>
   <path class="fil2" d="M1086.14 2272.42c-26.05,25.88 -52.06,51.77 -78.12,77.64 -52.15,51.76 -66.5,69.83 -67.03,86.89 24.41,-23.15 47.54,-45.08 70.67,-67.02 7.81,-1.76 12.62,-6.5 14.26,-14.4 21.99,-24.15 44.86,-47.39 70,-68.34 0.1,-1.2 0.15,-2.4 0.18,-3.6 11.67,-10.96 24.17,-21.18 34.77,-33.09 9.22,-10.37 24.91,-16.02 25.77,-32.96 -15.56,-1.49 -25.25,7.81 -34.13,18.57 -12.48,7.28 -24.2,15.23 -27.45,30.76 0.02,0.42 0.05,0.84 0.08,1.26 -3.68,-1.91 -6.19,1.95 -9,4.27z"/>
   <path class="fil2" d="M1437.02 2922.94c-10.24,6.37 -7.84,15.19 -3.66,24.04 18.54,16.97 33.12,38.18 55.2,51.35 0.91,-10.93 -0.91,-22.25 4.63,-32.51 -6.79,-7.26 -13.58,-14.53 -20.36,-21.79 -4.24,-4.3 -8.57,-8.51 -12.69,-12.92 -6.33,-6.79 -12.36,-14.85 -23.12,-8.17z"/>
   <path class="fil2" d="M1774.87 3688.04c6.14,-7.12 12.29,-14.24 18.43,-21.36 4.7,-5.38 9.4,-10.76 14.09,-16.13l13.39 -14.08c1.18,-0.27 2.38,-0.43 3.59,-0.48 11.13,-18.19 29.43,-29.73 42.68,-45.95 2.92,-1.89 5.85,-3.78 8.78,-5.66 2.26,-0.36 3.59,-1.67 4.01,-3.92 3.29,-3.82 6.6,-7.65 9.9,-11.46 1.09,-0.2 2.14,-0.39 3.17,-0.5 8.93,-3.23 15.62,-9.51 22.18,-16 9.45,-9.91 19.08,-19.62 28.95,-29.07 12.39,-15.29 31.09,-25.17 38.28,-44.89 46.6,-51.91 91,-105.81 140.54,-155.05 4.7,-4.67 12.72,-9.34 7.7,-16.98 -5.91,-9 -11.72,0.57 -17.54,2.35 -9.85,2.43 -16.02,8.81 -19.41,18.16 -1.49,1.51 -3,3.03 -4.5,4.54 -11.32,4.64 -19.63,12.05 -22.66,24.38 -7.54,7.5 -14.69,15.45 -22.67,22.43 -61.8,54 -119,112.49 -171.73,175.36 -4.91,5.89 -9.83,11.77 -14.75,17.66 -16.66,17.21 -32.21,35.35 -45.87,55.06 -4.49,4.94 -8.99,9.87 -13.47,14.81 -1.12,0.11 -2.24,0.3 -3.35,0.52 -5.29,12.77 -16.86,20.68 -24.49,31.64 -4.86,6.98 -9.01,13.69 4.74,14.61z"/>
   <path class="fil2" d="M2767.19 2796.72c0.17,-0.02 0.34,-0.04 0.53,-0.06l0 -0.54 -0.53 0.6z"/>
   <path class="fil2" d="M2679.22 2637.79c2.08,-10.25 -6.14,-14.05 -12.07,-19.28 -3.4,-4.12 -6.82,-8.24 -10.22,-12.37 -2.81,0.53 -8.04,0.99 -8.06,1.61 -0.3,9.22 7.85,11.9 13.58,16.51 3.94,6.56 8.24,12.67 16.78,13.53z"/>
   <path class="fil2" d="M2709.75 2674.53c4.67,-3.25 -2.2,-9.51 -6.74,-12.92 -0.06,-1.53 -0.11,-3.08 -0.17,-4.61 -2.48,-3.17 -4.98,-6.34 -7.46,-9.51 -2.58,-1.22 -5.76,-4.04 -7.6,-3.33 -4.71,1.78 -3.11,5.63 -0.54,8.49 3.84,4.26 7.98,8.24 11.99,12.34 1.95,5.26 3.56,14.4 10.53,9.54z"/>
   <path class="fil2" d="M2767.21 2796.69c-0.02,0.03 0.5,-0.57 0.5,-0.57 -0.1,-0.1 -0.18,-0.23 -0.29,-0.34 -0.09,0.31 -0.12,0.61 -0.22,0.91z"/>
   <path class="fil2" d="M2762.72 2767.99l0 0 0 0c-1.07,-6.45 -3.07,-12.46 -7.86,-17.18 0,0 0,-0.01 -0.01,-0.01 0.56,-4.69 -1.02,-8.41 -4.99,-11.04 -2.44,-4.75 -4.87,-9.5 -7.31,-14.25 -3.08,-6.9 -4.32,-15.29 -14.28,-18.93 0.37,9.19 5.14,14.1 8.77,19.55 2.88,6.09 5.75,12.19 8.63,18.28 2.75,6.51 5.5,13.02 8.25,19.54 0.1,3.77 0.76,7.26 4.47,9.31 1.6,8.08 3.08,16.22 9.05,22.53 2.74,-9.95 0.25,-19.06 -4.71,-27.78z"/>
   <path class="fil2" d="M2712.4 2680.1c2.49,11.39 6.64,18.53 17.89,25.72 -4.13,-12.11 -7.29,-19.93 -17.89,-25.72z"/>
   <path class="fil2" d="M1661.24 336.58c-17.12,-3.28 -26.13,9.85 -29.1,26.01 -1.8,9.83 -3.25,19.75 -4.35,29.67 -5.66,51.02 -21.68,98.58 -47.23,143.01 -12.81,12.1 -25.76,24.06 -41.45,32.52l0 0c-6.41,2.28 -14.19,2.41 -17.46,11.05 7.62,4.07 12.55,-0.93 17.9,-3.92 18.5,-7.24 36.66,-15.04 50.67,-29.9 5.16,-4.43 10.82,-8.39 15.4,-13.35 42.69,-46.26 56.16,-104.61 66.38,-163.96 1.92,-11.22 5.15,-28.09 -10.76,-31.12z"/>
   <path class="fil2" d="M2127.13 2592.92c-1.1,-3.23 -6.82,-6.34 -10.76,-6.82 -8.76,-1.09 -8.25,6.62 -9.42,12.33 3.3,2.38 6.62,4.77 9.92,7.16 2.13,-5.47 12.98,-4.71 10.25,-12.67z"/>
   <path class="fil2" d="M1346.49 1513.94c-1.3,17.4 -11.94,25.24 -29.39,29.96 1.7,-20.43 19.29,-21.48 29.39,-29.96zm-140.27 17.56c-0.89,-1.2 -1.59,-2.36 -2.2,-3.49 3.86,13.29 14.91,24.58 32.64,32.75 12.56,3.9 25.74,5.05 39.5,2.68 13.53,-2.32 26.83,-5.92 40.53,-7.3 4.1,0.53 7.59,1 10.64,1.49 21.64,-9.61 40.98,-21.55 41.66,-50.34 0.86,-35.86 -15.69,-62.8 -44.96,-82.34 -3.29,-2.21 -6.71,-4.23 -10.35,-5.59 -0.07,0.14 -0.15,0.25 -0.2,0.41 -1.69,5.01 2.97,8.29 6.42,11.11 10.67,8.71 22.81,15.88 29.51,28.71 13.88,25.3 13.93,25.37 -11.27,39.98 -24.04,13.92 -50.14,23.27 -75.86,33.39 -3.11,1.22 -6.31,2.28 -9.47,2.91 -3.97,1.58 -7.93,3.17 -11.88,4.79 -13.63,5.58 -25.43,3.32 -34.71,-9.17z"/>
   <path class="fil2" d="M1258.99 1437.52c-11.56,11.02 -23.85,21.38 -34.57,33.19 -14.13,15.57 -21.31,30.68 -21.92,44.33 1.89,-5.91 7.04,-10.88 11.71,-15.42 16.48,-16.07 34.34,-30.72 52.33,-46.57 -2.27,-7.06 -10.99,0.62 -14.15,-5.35 3.7,-9.8 16.68,-12.81 18.93,-23.94 -4.94,2.93 -8.9,7.84 -12.34,13.78z"/>
   <path class="fil2" d="M1369 1507.3c-0.7,28.79 -20.03,40.73 -41.68,50.34 -3.05,-0.5 -6.53,-0.96 -10.63,-1.49 -13.7,1.39 -27,4.98 -40.53,7.3 -13.76,2.36 -26.94,1.22 -39.5,-2.68 4.75,2.18 9.95,4.16 15.65,5.87 28.97,8.7 55.83,-1.08 83.49,-5.07 21.03,-3.21 40.31,-9.33 50.59,-30.42 19.01,-39.01 -10.43,-104.2 -52.42,-116.09 -2.23,-0.64 -4.48,-1.22 -6.79,-1.19 -5.26,0.06 -11.27,-0.15 -13.5,5.5 3.65,1.36 7.06,3.38 10.36,5.58 29.27,19.56 45.81,46.5 44.97,82.35z"/>
   <path class="fil2" d="M1252.4 1447.69c3.16,5.97 11.88,-1.71 14.15,5.35 -17.99,15.86 -35.85,30.5 -52.33,46.57 -4.67,4.55 -9.82,9.53 -11.72,15.43 -0.2,4.49 0.31,8.83 1.52,12.96 0.61,1.14 1.3,2.3 2.2,3.5 9.28,12.49 21.08,14.75 34.71,9.17 3.95,-1.62 7.91,-3.21 11.88,-4.78 -8.15,1.65 -16.03,0.44 -21.5,-8.51 -7.82,-12.78 1.66,-22.2 9.96,-29.9 11.24,-10.42 23.01,-20.36 35.05,-29.94 4.84,-3.85 12.17,-10.43 8.59,-14.65 -8.19,-9.65 -0.68,-12.99 4.05,-18.37 3.3,-3.76 4.23,-8.09 1.12,-12.58 -7.62,-2.12 -13.69,-1.19 -18.74,1.81 -2.25,11.14 -15.23,14.15 -18.94,23.94z"/>
   <path class="fil2" d="M1346.49 1513.94c-10.1,8.48 -27.69,9.53 -29.39,29.96 17.45,-4.72 28.09,-12.56 29.39,-29.96z"/>
   <path class="fil2" d="M919.46 1712.28c1.15,0.29 4.27,-2.08 4.2,-3.03 -0.39,-4.62 -3.23,-7.75 -6.78,-9.13 -3.48,-0.89 -5.48,0.56 -5.13,2.78 0.71,4.39 3.08,8.24 7.71,9.38z"/>
   <path class="fil2" d="M1455.28 1204.71c8.65,17.16 7.31,21.33 -11.07,25.15 -16.39,3.42 -32.89,6.74 -49.46,8.87 -24.7,3.18 -49.24,11.59 -74.58,4.39 -0.4,-0.14 -0.74,-0.21 -1.12,-0.33 16.77,-42.31 45.94,-71.57 91.2,-83.88 0.1,-0.08 0.2,-0.15 0.29,-0.22 3.64,9.37 11.15,11.76 21.01,9.91 5.39,13.71 17.2,23.13 23.74,36.1zm-40.98 -54.09c-4.58,-1.72 -9.16,-3.45 -13.74,-5.17 -13.27,-5.4 -23.28,0.39 -32.33,9.43 -8.81,5.83 -17.6,11.64 -26.4,17.47 -5.9,-14.8 -13.44,-4.58 -20.52,-1.34 -6.46,2.94 -13.96,4.38 -17.25,11.9 -29.76,20.04 -34.66,41.89 -20.45,91.2 1.4,-3.27 6.52,-4.45 5.22,-9.18 -8.13,-29.69 2.37,-54.92 18.84,-78.7 6.61,0.04 9.27,-6.31 14.32,-8.82 5.57,-1.38 11.15,-2.76 16.72,-4.13 -21.65,19.96 -35.73,43.28 -35.04,73.13 -1.29,1.62 -2.41,3.63 -3.33,6.02 -3.24,22.64 6.37,38.88 25.14,50.56 37.4,23.8 78.73,26.01 121.25,22.63 9.81,-0.78 14.91,-6.65 20.08,-13.54 39.39,-52.45 28.23,-110.95 -28.4,-148.58 -6.51,-7.14 -14.62,-11.31 -24.12,-12.89z"/>
   <path class="fil2" d="M1201.23 1337.85c0.21,-4.1 0.25,-8.19 0.17,-12.25 -0.04,0.1 -0.06,0.19 -0.09,0.3 -1.35,7.93 -2.74,15.86 -4.07,23.79 0.96,-3.31 2.04,-6.5 4.28,-8.64 -0.14,-1.04 -0.25,-2.1 -0.3,-3.19z"/>
   <path class="fil2" d="M1186.14 1204c7.61,14.54 -3.24,28.11 3.46,42.65 0.1,0.21 0.19,0.43 0.29,0.64 -0.5,-2.7 -1.01,-5.4 -1.48,-8.11 0.61,-2.06 1.72,-4.58 3.16,-7.29 -4.86,-6.45 1.17,-12.4 3.23,-18.1 2.2,-6.06 3.97,-11.95 3.48,-17.97 -0.34,-0.15 -0.68,-0.3 -1.02,-0.45 -6.85,3.18 -12.31,6.33 -11.11,8.64z"/>
   <path class="fil2" d="M1215.96 1215.97c4.05,-9.72 9.85,-19.47 -2.08,-27.96 -4.57,2.17 -11.05,4.78 -16.63,7.37 0.34,0.14 0.69,0.3 1.02,0.44 0.5,6.03 -1.29,11.91 -3.48,17.97 -2.07,5.71 -8.08,11.65 -3.23,18.11 -1.44,2.71 -2.55,5.24 -3.16,7.29 0.47,2.7 0.98,5.41 1.48,8.11 11.16,24.3 21.11,50.28 11.52,78.31 0.08,4.07 0.04,8.15 -0.17,12.25 0.06,1.09 0.17,2.15 0.3,3.2 -2.25,2.13 -3.32,5.32 -4.27,8.64 -0.78,4.67 -1.57,9.33 -2.22,14.01 -0.58,4.27 -1.09,10.54 3.98,11.68 3.5,0.79 8.31,-2.25 11.97,-4.5 12.12,-7.46 7.19,-22.28 13.45,-32.35 2.24,-35.75 -4.61,-70.33 -13.45,-104.65 -5.74,-8.01 2.57,-12.17 4.97,-17.91z"/>
   <path class="fil2" d="M1299.14 1299.26c0.7,-9.04 -4.46,-16.04 -8.25,-23.52 -8.37,11.75 -0.02,17.62 8.25,23.52z"/>
   <path class="fil2" d="M1469.23 2003.24c6.09,-6.36 8.84,-13.77 0.74,-21.07 -6.46,7.28 -12.92,14.57 -19.38,21.84 6.5,6.96 13.19,4.92 18.64,-0.77z"/>
   <path class="fil2" d="M763.64 445.29c-29.61,-7.47 -60.11,-8.27 -90.47,-9.37 24.93,8.62 53.15,4.26 76.83,17.18 9.1,2.29 18.06,5.26 26.81,9.29 12.31,2.8 22.32,8.72 30.38,18.17 -7.37,-19.83 -23.71,-30.25 -43.56,-35.26z"/>
   <path class="fil2" d="M793.98 443.4c-35.79,-14.72 -73.99,-11.47 -111.57,-11.87 -4.65,-0.05 -10.13,0.5 -10.18,6.57 -0.06,6.74 5.99,5.32 10.25,5.74 22.68,2.2 45.5,3.7 67.53,9.25 -23.69,-12.92 -51.92,-8.55 -76.84,-17.17 30.34,1.09 60.87,1.89 90.47,9.37 19.85,5.03 36.19,15.43 43.56,35.26 1.1,1.29 2.17,2.64 3.2,4.07 5.25,7.24 12.03,15.37 21.59,4.11 1.99,-27.35 -18.16,-37.17 -38.01,-45.34z"/>
   <path class="fil2" d="M470.97 472.51c-22.84,16.52 -44.58,34.23 -58.6,59.48 -7.7,4.61 -12.02,11.05 -12.98,22.36 9.92,-4.91 14.28,-11.06 16.77,-18.85 20.04,-18.57 38.25,-39.19 61.48,-54.13 3.78,-2.43 9.2,-5.54 6.48,-10.32 -4.19,-7.39 -9.46,-1.2 -13.16,1.47z"/>
   <path class="fil2" d="M645.79 852.91c1.93,0.56 3.87,1.12 5.82,1.64 0.45,-0.14 0.95,-0.26 1.39,-0.4 23.69,-3.31 47.56,-0.47 71.28,-1.95 34.62,-2.15 68.34,-9.58 99.85,-19.01 -66.2,9.24 -134.25,14.85 -202.69,4.87 -4.75,-0.7 -9.51,-1.31 -14.05,-2.54 7.68,5.29 15.83,9.41 24.32,12.68 5.02,0.97 10.52,0.99 14.09,4.72z"/>
   <path class="fil2" d="M824.13 833.18c-31.51,9.43 -65.24,16.86 -99.85,19.01 -23.73,1.49 -47.59,-1.37 -71.28,1.95 -0.44,0.14 -0.94,0.26 -1.39,0.4 4.85,1.29 9.75,2.48 14.67,3.58 66.62,2.94 132.81,3.18 194.06,-29.81 -10.55,-1.58 -20.99,-1.59 -31.28,-0.3 -50.42,6.3 -100.97,11.37 -151.78,7.52 -22.65,-1.71 -46.11,-0.99 -67.25,-12 -4.34,0.19 -9.32,-5.47 -12.59,-0.86 -3.68,5.22 2.32,7.25 5.8,9.91 1.35,1.04 2.76,1.94 4.14,2.9 4.54,1.23 9.3,1.85 14.05,2.54 68.44,9.99 136.5,4.37 202.69,-4.87z"/>
   <path class="fil2" d="M645.79 852.91c-3.57,-3.73 -9.07,-3.75 -14.09,-4.72 4.62,1.78 9.32,3.32 14.09,4.72z"/>
   <path class="fil2" d="M920.47 834.25c-38.03,-25.05 -50.12,-58.39 -55.6,-95.28 -19.9,58.42 1.74,100.01 55.6,95.28z"/>
   <path class="fil2" d="M353.22 882.21c-0.11,-1.34 -0.23,-2.68 -0.35,-4.03 -1.91,0.1 -3.92,-0.2 -6.1,-1.13 -29.4,-45.43 -35.51,-96.41 -31.37,-148.34 0.75,-9.48 1.72,-19 3.06,-28.47 -4.39,12.6 -8.09,25.5 -10.82,38.81 -13.29,64.67 6.37,120.87 53.41,152.47 0.15,0.53 0.36,0.97 0.57,1.43 0.7,-4.16 -4.34,-7.37 -8.39,-10.74z"/>
   <path class="fil2" d="M371.75 882.14c0.16,-1.78 -0.26,-3.41 -1.35,-4.88 -10.49,-17.58 -18.64,-36.05 -23.57,-56.09 -16.17,-65.74 -6.27,-129.36 14.78,-192.17 3.04,-4.91 6.09,-9.83 9.14,-14.75 0.46,-4.75 0.9,-9.51 1.36,-14.27 -6.83,-0.3 -6.33,7.66 -11.02,9.78 -1.52,4.58 -3.06,9.17 -4.59,13.75 -15.75,24.28 -28.66,49.76 -38.05,76.74 -1.34,9.47 -2.3,18.98 -3.07,28.47 -4.12,51.94 1.98,102.91 31.37,148.35 2.18,0.92 4.2,1.22 6.11,1.12 0.12,1.34 0.24,2.68 0.35,4.03 4.05,3.37 9.08,6.58 8.39,10.75 2.2,4.93 7.38,5.16 11.9,6.44 0,0 0.21,0.18 0.21,0.18 5.15,-0.86 8.22,-4.07 7.81,-9.1 -0.48,-5.79 -3.95,-8.81 -9.77,-8.33z"/>
   <path class="fil3" d="M1856.6 3075.88c-3.49,-9.42 -14.06,-14.19 -21.22,-22.13 -5.52,-6.11 -11.22,-12.06 -16.87,-18.04 -1.13,-1.2 -2.67,-2.06 -3.66,-3.35 -1.86,-2.39 -3.71,-4.85 -5.04,-7.54 -1.23,-2.48 -1.76,-5.3 -2.66,-8.18 -1.05,0.63 -1.35,0.71 -1.49,0.91 -1.09,1.59 -2.14,3.21 -3.21,4.82 -1.49,-1.65 -3.39,-3.08 -4.4,-4.99 -3.91,-7.39 -7.65,-14.87 -11.25,-22.42 -3.84,-8.04 -7.4,-16.19 -11.15,-24.27 -3.68,-7.95 -7.52,-15.84 -11.15,-23.82 -3.49,-7.7 -6.75,-15.51 -10.21,-23.23 -3.07,-6.85 -6.37,-13.6 -9.37,-20.48 -4.15,-9.54 -8.13,-19.16 -12.15,-28.75 -2.19,-5.24 -4.42,-10.44 -6.42,-15.75 -4.05,-10.77 -8,-21.58 -11.9,-32.4 -2.45,-6.78 -4.83,-13.59 -7.07,-20.43 -3.75,-11.47 -7.25,-23.02 -11.06,-34.47 -5.65,-16.97 -11.48,-33.86 -17.2,-50.8 -4.08,-12.08 -7.91,-24.26 -12.22,-36.25 -2.85,-7.95 -6.4,-15.63 -9.57,-23.46 -2.66,-6.54 -5.03,-13.21 -7.88,-19.66 -3.32,-7.5 -6.87,-14.91 -10.63,-22.2 -6.07,-11.77 -12.84,-23.21 -18.43,-35.2 -2.64,-5.65 -3.43,-12.21 -4.66,-18.45 -1.25,-6.32 -1.39,-12.93 -3.18,-19.07 -1.95,-6.75 0.04,-12.14 3.97,-17.01 1.85,-2.29 4.92,-4.92 7.54,-5.04 8.92,-0.37 17.88,0.28 26.81,0.63 1.03,0.04 2.36,0.41 3,1.11 4.04,4.49 8.07,9 11.79,13.75 2.36,3.02 5.48,2.72 8.35,2.24 6.05,-0.99 12.01,-2.5 17.98,-3.88 4.47,-1.04 8.99,-2.01 13.39,-3.31 6.1,-1.82 12.15,-3.84 18.17,-5.91 7.51,-2.58 14.99,-5.26 22.42,-7.99 9.17,-3.38 18.65,-6.16 27.32,-10.52 8.63,-4.32 16.41,-10.32 24.6,-15.5 9.18,-5.81 15.66,-14.22 22.34,-22.48 0.88,-1.09 1.8,-2.27 2.97,-2.95 5.65,-3.34 6.56,-9.15 7.94,-14.73 0.24,-0.94 0.37,-1.91 0.6,-2.86 0.27,-1.11 0.59,-2.22 0.89,-3.31 -1.32,-0.17 -2.67,-0.61 -3.96,-0.46 -6.28,0.71 -12.56,1.57 -18.83,2.4 -6.27,0.82 -12.54,1.76 -18.82,2.46 -5.62,0.63 -11.29,0.85 -16.91,1.51 -7.85,0.94 -15.67,2.39 -23.54,3.15 -9.19,0.9 -18.57,0.54 -27.61,2.13 -13.96,2.44 -27.91,1.73 -41.89,2.18 -9.74,0.3 -19.39,2.62 -29.12,3.83 -4.91,0.61 -9.89,0.74 -14.85,1.11 -5.21,0.38 -10.42,0.81 -15.62,1.19 -3.84,0.29 -7.67,0.66 -11.51,0.76 -5.09,0.15 -10.21,-0.03 -15.29,0.16 -5.9,0.23 -11.79,0.71 -17.69,1.09 -0.41,0.03 -0.84,0.11 -1.25,0.1 -5.93,-0.08 -11.85,-0.34 -17.77,-0.23 -6.72,0.14 -13.43,0.89 -20.15,0.87 -7.11,-0.03 -14.35,-0.6 -18.99,-7.09 -1.49,-2.09 -1.94,-4.93 -3.23,-8.41 -2.74,-1.01 -4.16,-3.86 -4.56,-8.1 -0.34,-3.58 -2.36,-7.02 -3.74,-10.46 -1.72,-4.3 -1.02,-8.07 0.97,-12.28 1.33,-2.8 1.35,-6.65 0.79,-9.82 -1.19,-6.74 -0.52,-8.17 5.92,-9.23 1.35,-0.22 2.61,-0.98 4.18,-1.59 -0.23,-0.79 -0.5,-1.5 -0.64,-2.25 -0.79,-4.19 0.59,-5.29 4.87,-5.38 10.6,-0.22 21.24,-0.33 31.77,-1.39 11.05,-1.12 22.01,-3.31 33.01,-5.01 8.51,-1.3 17.04,-2.54 25.54,-3.88 9.7,-1.53 19.38,-3.18 29.08,-4.75 6.9,-1.11 13.81,-2.12 20.71,-3.29 5.12,-0.88 10.21,-2.02 15.33,-2.9 2.98,-0.51 6,-0.78 9.01,-1.09 7.78,-0.79 15.57,-1.53 23.35,-2.3 8.62,-0.84 17.25,-1.56 25.85,-2.56 5.86,-0.69 11.66,-1.89 17.53,-2.66 3.66,-0.48 7.38,-0.5 11.05,-0.87 4.23,-0.42 8.43,-1.01 12.65,-1.48 3.4,-0.38 6.81,-0.8 10.23,-0.98 4.38,-0.22 8.79,-0.02 13.17,-0.33 4.36,-0.32 8.7,-1.08 13.06,-1.57 3.12,-0.35 6.26,-0.69 9.41,-0.85 4.24,-0.23 8.49,-0.16 12.72,-0.46 5.74,-0.39 11.47,-0.94 17.18,-1.63 0.62,-0.08 1.66,-1.63 1.51,-2.28 -2.06,-9.35 -4.38,-18.63 -6.45,-27.97 -3.06,-13.83 -9.09,-26.39 -15.67,-38.85 -5.62,-10.63 -11.99,-20.66 -19.52,-30.01 -1.73,-2.13 -3.16,-3.15 -6.32,-2.11 -3.28,1.09 -7.05,0.8 -10.62,0.94 -4.82,0.17 -9.65,0.05 -14.47,0.3 -5.32,0.29 -10.63,0.9 -15.96,1.29 -3.86,0.28 -7.72,0.5 -11.58,0.58 -5.38,0.09 -10.77,-0.16 -16.15,0.07 -5.34,0.23 -10.65,0.91 -15.99,1.29 -3.85,0.28 -7.69,0.47 -11.54,0.53 -5.26,0.1 -10.5,-0.09 -15.75,0.13 -5.47,0.23 -10.94,0.81 -16.41,1.19 -3.7,0.27 -7.42,0.53 -11.12,0.65 -4.83,0.15 -9.65,-0.02 -14.46,0.28 -4.65,0.28 -9.26,1.01 -13.9,1.46 -3.43,0.32 -6.86,0.58 -10.3,0.75 -7.55,0.38 -15.12,0.5 -22.66,1.07 -7.5,0.56 -14.97,1.66 -22.47,2.29 -4.39,0.38 -8.83,0.17 -13.22,0.48 -4.5,0.3 -8.98,0.97 -13.47,1.39 -3.84,0.35 -7.69,0.6 -11.54,0.86 -4.81,0.31 -9.62,0.59 -14.85,0.91 -0.33,1.1 -0.79,2.67 -1.45,4.88 -1.5,-1.09 -2.64,-2.24 -4.02,-2.82 -4.12,-1.75 -8.42,-3.11 -12.5,-4.96 -1.48,-0.67 -3.05,-2.06 -3.7,-3.5 -2.67,-5.92 -2.38,-11.78 1.23,-17.38 0.63,-0.97 1.09,-2.44 0.86,-3.52 -2.35,-11.32 -2.9,-22.71 -1.06,-34.11 0.96,-6 2.26,-11.96 3.86,-17.81 1.18,-4.34 8.56,-6.62 11.75,-3.09 4.25,4.69 8.86,2.18 13.05,1.87 7.75,-0.59 15.4,-2.4 23.1,-3.68 7.83,-1.3 15.63,-2.76 23.49,-3.86 5.84,-0.82 11.74,-1.09 17.59,-1.78 5.99,-0.7 11.96,-1.64 17.94,-2.47 2.98,-0.42 5.95,-0.95 8.95,-1.23 9.04,-0.8 18.09,-1.36 27.11,-2.27 9.57,-0.96 19.09,-2.4 28.66,-3.27 7.41,-0.68 14.88,-0.67 22.31,-1.21 7.8,-0.56 15.58,-1.53 23.38,-2.13 4.54,-0.34 9.12,-0.19 13.66,-0.45 5.36,-0.3 10.69,-0.8 16.03,-1.19 3.71,-0.28 7.43,-0.62 11.15,-0.73 5.1,-0.15 10.23,0.04 15.34,-0.2 4.93,-0.22 9.86,-0.81 14.79,-1.19 3.86,-0.3 7.71,-0.62 11.57,-0.73 5.11,-0.15 10.23,0.06 15.34,-0.19 5.22,-0.25 10.42,-0.91 15.61,-1.29 3.87,-0.27 7.72,-0.45 11.58,-0.52 5.26,-0.12 10.52,0.01 15.78,-0.19 5.77,-0.21 11.54,-0.67 17.3,-1.03 0.56,-0.03 1.11,-0.19 1.67,-0.19 5.95,0.08 11.91,0.37 17.86,0.2 5.64,-0.15 11.26,-0.85 16.89,-1.17 4.42,-0.26 8.84,-0.41 13.25,-0.4 6.37,0.02 12.75,0.41 19.11,0.3 6.21,-0.1 12.41,-0.64 18.6,-0.99 0.42,-0.02 0.83,-0.1 1.26,-0.09 6.93,0.18 13.86,0.59 20.79,0.51 6.19,-0.06 12.37,-0.66 18.55,-1.02 0.42,-0.03 0.84,-0.07 1.26,-0.06 7.07,0.2 14.14,0.64 21.2,0.56 6.18,-0.08 12.34,-0.89 18.52,-1.09 5.81,-0.18 11.63,0.18 17.43,0.01 5.63,-0.17 11.25,-0.68 16.87,-1.09 3.27,-0.25 6.53,-0.57 9.8,-0.92 0.66,-0.07 1.57,-0.18 1.9,-0.62 5.13,-7.01 11.75,-3.43 17.7,-2.13 4.42,0.96 5.83,6.85 4.2,10.98 -1.18,3.02 -1.78,6.64 -1.38,9.84 0.89,7.31 2.82,14.5 3.84,21.79 0.88,6.2 1.48,12.48 1.49,18.74 0.01,9.63 -9.31,19.26 -18.16,20.48 -7.49,1.03 -14.98,2.24 -22.51,2.78 -8.1,0.59 -16.24,0.65 -24.37,0.7 -10.8,0.06 -21.58,-0.14 -32.39,-0.18 -10.53,-0.05 -21.06,-0.1 -31.59,-0.04 -8.62,0.04 -17.24,-0.07 -25.82,0.46 -5.73,0.34 -11.41,1.72 -17.11,2.55 -2.72,0.4 -5.46,0.62 -9.17,1.03 4.21,7.62 8.14,13.93 11.3,20.6 6.36,13.44 12.46,27.02 18.35,40.68 2.89,6.7 5.48,13.6 7.47,20.61 2.06,7.25 3.33,14.71 4.67,22.14 0.48,2.64 1,3.54 4.02,2.89 3.87,-0.84 7.93,-0.85 11.92,-1.03 4.83,-0.2 9.68,-0.07 14.5,-0.33 5.06,-0.29 10.1,-0.89 15.16,-1.31 3.56,-0.3 7.12,-0.66 10.69,-0.75 5.1,-0.14 10.23,0.04 15.34,-0.14 6.3,-0.21 12.6,-0.66 18.91,-1.01 0.41,-0.03 0.84,-0.08 1.26,-0.05 15.58,1.16 31.25,1.71 46.71,3.8 5.66,0.76 13.23,1.76 14.95,9.76 0.69,3.2 0.71,6.55 1.07,9.83 0.57,5.17 1.03,10.36 1.76,15.5 0.49,3.4 2.21,5.88 5.98,6.5 1.07,0.17 2.03,1.02 3.03,1.55 -0.9,0.64 -1.73,1.49 -2.73,1.88 -1.77,0.7 -3.66,1.13 -5.86,1.78 0.7,3.92 0.96,8.04 2.23,11.85 1.24,3.71 1.44,6.86 -0.85,10.19 -0.38,0.55 0.47,1.97 0.74,2.99 0.38,1.39 1.36,2.98 1,4.14 -0.71,2.28 -7.28,4.29 -9.76,3.42 -0.26,-0.1 -0.54,-0.18 -0.82,-0.18 -6.65,0.06 -13.28,0.09 -19.93,0.19 -1.24,0.02 -2.47,0.46 -3.69,0.49 -9.13,0.16 -18.26,0 -27.37,0.48 -8.15,0.42 -16.27,1.6 -24.41,2.3 -9.01,0.77 -18.03,1.31 -27.04,2.09 -7.78,0.66 -15.54,1.63 -23.33,2.23 -4.66,0.35 -9.35,0.38 -14.01,0.33 -5.43,-0.06 -9.19,2.33 -10.26,8.29 -1.56,8.68 -3.97,17.21 -6.06,25.8 -4.23,17.38 -12.31,32.98 -22.2,47.73 -6.95,10.37 -13.87,20.77 -21.28,30.8 -5.55,7.5 -11.22,15.12 -17.98,21.47 -8.44,7.94 -17.45,15.6 -27.29,21.66 -16.97,10.44 -34.55,19.95 -52.29,29.06 -9.64,4.96 -20,8.65 -30.29,12.22 -6.39,2.22 -13.22,3.14 -19.87,4.61 -6.19,1.37 -12.39,2.72 -18.59,4.03 -0.79,0.17 -1.67,-0.07 -2.49,0.02 -3.2,0.3 -6.39,0.64 -10.15,1.03 2.87,6.06 5.3,11.03 7.58,16.06 4.93,10.9 9.92,21.79 14.63,32.8 4.35,10.12 8.62,20.29 12.46,30.61 4.41,11.83 8.41,23.82 12.45,35.79 5.8,17.13 11.49,34.29 17.18,51.46 4.86,14.63 9.63,29.3 14.46,43.95 4.44,13.45 9.36,26.76 13.23,40.38 3.1,10.87 5.15,22.06 7.32,33.19 1.88,9.61 3.53,19.28 4.82,28.98 0.9,6.86 1.05,13.82 1.5,20.75 0.38,5.9 0.72,11.82 1.09,17.73 0.04,0.69 0.12,1.39 0.07,2.09 -1.06,14.75 -2.01,29.49 -3.3,44.22 -0.32,3.69 0,6.79 2.22,9.86 0.93,1.3 1.49,3.49 1.08,4.97 -0.33,1.2 -2.36,1.92 -3.64,2.86 -0.57,-0.25 -1.15,-0.49 -1.72,-0.73 0.31,2.45 0.37,4.95 1.02,7.3 0.71,2.53 2.13,4.86 2.96,7.36 0.44,1.32 0.3,2.85 0.43,4.27 -1.87,-0.14 -3.76,-0.13 -5.59,-0.49 -1.56,-0.3 -3.05,-1.02 -5.67,-1.94z"/>
  </g>
 </g>
</svg>
