<?xml version="1.0" encoding="UTF-8"?>
<!DOCTYPE svg PUBLIC "-//W3C//DTD SVG 1.1//EN" "http://www.w3.org/Graphics/SVG/1.1/DTD/svg11.dtd">
<!-- Creator: CorelDRAW 2018 (64-Bit) -->
<svg xmlns="http://www.w3.org/2000/svg" xml:space="preserve" width="9.849mm" height="9.849mm" version="1.1" style="shape-rendering:geometricPrecision; text-rendering:geometricPrecision; image-rendering:optimizeQuality; fill-rule:evenodd; clip-rule:evenodd"
viewBox="0 0 55.79 55.79"
 xmlns:xlink="http://www.w3.org/1999/xlink">
 <defs>
  <style type="text/css">
   <![CDATA[
    .fil0 {fill:#0E8694}
   ]]>
  </style>
 </defs>
 <g id="Layer_x0020_1">
  <metadata id="CorelCorpID_0Corel-Layer"/>
  <g id="_2540111330960">
   <path class="fil0" d="M27.9 0c-7.42,0 -14.48,2.92 -19.73,8.17 -5.25,5.25 -8.17,12.3 -8.17,19.73 0,7.43 2.93,14.48 8.18,19.73 5.25,5.25 12.3,8.17 19.72,8.17 7.42,0 14.48,-2.92 19.72,-8.17 5.25,-5.25 8.17,-12.3 8.17,-19.72 0,-7.42 -2.92,-14.48 -8.17,-19.73 -5.25,-5.25 -12.3,-8.17 -19.73,-8.17zm18.51 9.38c4.92,4.92 7.67,11.55 7.67,18.51 0,6.97 -2.74,13.59 -7.67,18.51 -4.93,4.92 -11.55,7.67 -18.51,7.67 -6.97,0 -13.59,-2.74 -18.52,-7.67 -4.93,-4.93 -7.66,-11.55 -7.66,-18.51 0,-6.97 2.74,-13.59 7.67,-18.52 4.92,-4.93 11.55,-7.66 18.51,-7.66 6.97,0 13.59,2.74 18.51,7.67z"/>
   <path class="fil0" d="M15.32 45.31l25.16 0c0.53,0 0.97,-0.43 0.97,-0.97l0 -30.97c0,-0.53 -0.43,-0.97 -0.97,-0.97l-5 0c-0.4,-1.14 -1.53,-1.94 -2.81,-1.94l-9.52 0c-1.28,0 -2.4,0.81 -2.81,1.94l-5.01 0c-0.53,0 -0.97,0.43 -0.97,0.97l0 30.97c0,0.53 0.43,0.97 0.97,0.97zm17.42 -6.77l-3.87 0c-0.53,0 -0.97,0.43 -0.97,0.97 0,0.53 0.43,0.97 0.97,0.97l3.87 0c0.53,0 0.97,-0.43 0.97,-0.97 0,-0.53 -0.43,-0.97 -0.97,-0.97zm3.87 -3.87l-7.74 0c-0.53,0 -0.97,0.43 -0.97,0.97 0,0.53 0.43,0.97 0.97,0.97l7.74 0c0.53,0 0.97,-0.43 0.97,-0.97 0,-0.53 -0.43,-0.97 -0.97,-0.97zm-7.74 -1.94l3.87 0c0.53,0 0.97,-0.43 0.97,-0.97 0,-0.53 -0.43,-0.97 -0.97,-0.97l-3.87 0c-0.53,0 -0.97,0.43 -0.97,0.97 0,0.53 0.43,0.97 0.97,0.97zm7.74 -5.81l-7.74 0c-0.53,0 -0.97,0.43 -0.97,0.97 0,0.53 0.43,0.97 0.97,0.97l7.74 0c0.53,0 0.97,-0.43 0.97,-0.97 0,-0.53 -0.43,-0.97 -0.97,-0.97zm-7.74 -1.94l3.87 0c0.53,0 0.97,-0.43 0.97,-0.97 0,-0.53 -0.43,-0.97 -0.97,-0.97l-3.87 0c-0.53,0 -0.97,0.43 -0.97,0.97 0,0.53 0.43,0.97 0.97,0.97zm7.74 -5.81l-7.74 0c-0.53,0 -0.97,0.43 -0.97,0.97 0,0.53 0.43,0.97 0.97,0.97l7.74 0c0.53,0 0.97,-0.43 0.97,-0.97 0,-0.53 -0.43,-0.97 -0.97,-0.97zm-12.3 15.77l-3.19 3.19 -1.25 -1.25c-0.38,-0.38 -0.99,-0.38 -1.37,0 -0.38,0.38 -0.38,0.99 0,1.37l1.94 1.94c0.19,0.19 0.44,0.28 0.68,0.28 0.25,0 0.5,-0.09 0.68,-0.28l3.87 -3.87c0.38,-0.38 0.38,-0.99 0,-1.37 -0.38,-0.38 -0.99,-0.38 -1.37,0zm0 -7.74l-3.19 3.19 -1.25 -1.25c-0.38,-0.38 -0.99,-0.38 -1.37,0 -0.38,0.38 -0.38,0.99 0,1.37l1.94 1.94c0.19,0.19 0.44,0.28 0.68,0.28 0.25,0 0.5,-0.09 0.68,-0.28l3.87 -3.87c0.38,-0.38 0.38,-0.99 0,-1.37 -0.38,-0.38 -0.99,-0.38 -1.37,-0zm0 -7.74l-3.19 3.19 -1.25 -1.25c-0.38,-0.38 -0.99,-0.38 -1.37,0 -0.38,0.38 -0.38,0.99 0,1.37l1.94 1.94c0.19,0.19 0.44,0.28 0.68,0.28 0.25,0 0.5,-0.09 0.68,-0.28l3.87 -3.87c0.38,-0.38 0.38,-0.99 0,-1.37 -0.38,-0.38 -0.99,-0.38 -1.37,-0zm-1.97 -5.44c-0.19,-0.2 -0.27,-0.47 -0.25,-0.75 0.05,-0.49 0.51,-0.87 1.05,-0.87l9.52 0c0.49,0 0.93,0.33 1.02,0.76 0.08,0.41 -0.09,0.69 -0.2,0.82 -0.19,0.23 -0.46,0.36 -0.75,0.36l-9.68 0c-0.28,0 -0.53,-0.11 -0.72,-0.32zm-6.06 0.32l4.04 0c0.13,0.36 0.32,0.7 0.59,0.99 0.55,0.6 1.33,0.95 2.15,0.95l9.68 0c0.87,0 1.69,-0.39 2.25,-1.06 0.22,-0.26 0.38,-0.56 0.49,-0.87l4.04 0 0 29.03 -23.22 0 0 -29.03z"/>
  </g>
 </g>
</svg>
