<?xml version="1.0" encoding="UTF-8"?>
<!DOCTYPE svg PUBLIC "-//W3C//DTD SVG 1.1//EN" "http://www.w3.org/Graphics/SVG/1.1/DTD/svg11.dtd">
<!-- Creator: CorelDRAW 2018 (64-Bit) -->
<svg xmlns="http://www.w3.org/2000/svg" xml:space="preserve" width="9.849mm" height="9.849mm" version="1.1" style="shape-rendering:geometricPrecision; text-rendering:geometricPrecision; image-rendering:optimizeQuality; fill-rule:evenodd; clip-rule:evenodd"
viewBox="0 0 55.79 55.79"
 xmlns:xlink="http://www.w3.org/1999/xlink">
 <defs>
  <style type="text/css">
   <![CDATA[
    .fil0 {fill:#0E8694}
   ]]>
  </style>
 </defs>
 <g id="Layer_x0020_1">
  <metadata id="CorelCorpID_0Corel-Layer"/>
  <g id="_2539976382352">
   <path class="fil0" d="M31.53 41.54l-7.28 0c-1.11,0 -1,-0.97 -1.08,-1.65 -0.31,-2.46 -1.27,-4.97 -2.57,-6.98 -0.45,-0.7 -0.8,-0.73 -1.65,-2.44 -1.04,-2.07 -1.32,-4.32 -0.79,-6.62 0.17,-0.75 0.38,-1.27 0.63,-1.88 2.4,-5.86 10.92,-8.21 16.14,-3 1.34,1.34 2.25,2.96 2.69,4.82 0.71,3 0.01,5.92 -1.78,8.33 -0.7,0.94 -0.32,0.26 -1.13,1.6 -2.05,3.39 -2.06,6.82 -2.25,7.3 -0.13,0.32 -0.48,0.52 -0.92,0.52zm2.8 -17.28c0,1.18 1.11,1.06 1.53,0.7 0.44,-0.38 0.34,-1.53 -0.62,-1.53 -0.58,0 -0.91,0.39 -0.91,0.83zm-23.72 1.74c0,1.28 1.2,0.99 2.8,0.99 1.11,0 1.11,-1.82 0,-1.82 -1.23,0 -2.8,-0.28 -2.8,0.83zm16.37 -16.37c0,1.61 -0.3,2.8 0.99,2.8 1.12,0 0.83,-1.58 0.83,-2.8 0,-1.11 -1.82,-1.11 -1.82,0zm14.55 16.37c0,1.28 1.2,0.99 2.8,0.99 1.11,0 1.11,-1.82 0,-1.82 -1.23,0 -2.8,-0.28 -2.8,0.83zm-22.97 10.38c0,-0.68 -0.48,-0.91 -1.06,-0.91 -0.56,0 -1.93,1.51 -2.05,1.89 -0.23,0.73 0.5,1.4 1.21,1.14 0.27,-0.1 1.9,-1.55 1.9,-2.12zm19.48 -19.71c0.78,0 0.89,-0.32 1.46,-0.89 0.29,-0.29 0.89,-0.73 0.89,-1.23 0,-0.59 -0.39,-0.99 -0.99,-0.99 -0.44,0 -2.27,1.57 -2.17,2.32 0.05,0.37 0.4,0.78 0.8,0.78zm-22.66 -2.2c0,0.62 0.53,0.95 1.16,1.57 0.28,0.28 1.03,1.16 1.73,0.41 0.64,-0.69 -0.05,-1.38 -0.41,-1.73 -0.36,-0.36 -0.96,-1.16 -1.57,-1.16 -0.47,0 -0.91,0.43 -0.91,0.91zm25.01 23.19c0,-0.6 -0.51,-0.93 -0.89,-1.31 -0.25,-0.25 -0.83,-0.97 -1.23,-0.97 -0.6,0 -1.06,0.42 -1.04,0.98 0.02,0.53 0.54,0.92 0.87,1.24 0.32,0.32 0.66,0.79 1.14,0.92 0.55,0.15 1.16,-0.28 1.16,-0.86zm-11.98 -18.8c0,0.4 0.08,0.63 0.43,0.85 0.45,0.28 1.98,0.24 3.68,2.01 0.11,0.11 1.03,1.73 1.94,0.84 0.81,-0.79 -0.15,-1.55 -0.57,-2.06 -0.5,-0.59 -0.12,-0.16 -0.57,-0.57 -0.25,-0.22 -0.4,-0.35 -0.66,-0.55 -0.7,-0.53 -2.25,-1.36 -3.41,-1.36 -0.41,0 -0.83,0.43 -0.83,0.83zm-5.08 27.13c0,0.57 0.31,0.99 0.83,0.99l7.43 0c1.11,0 1.11,-1.82 0,-1.82l-7.43 0c-0.44,0 -0.83,0.39 -0.83,0.83zm-7.28 -20.46c0,2.53 0.22,3.77 1.29,5.91 0.86,1.74 1.68,2.21 2.45,3.76 0.76,1.54 1.25,2.84 1.54,4.59 0.17,1.04 0.11,1.73 0.66,2.45 0.39,0.51 1.16,1.09 2.02,1.09l7.81 0c0.88,0 1.58,-0.54 1.98,-1.05 0.99,-1.23 0.17,-3.04 2.18,-7.06 1.12,-2.24 2.36,-2.69 3.29,-5.95 1.36,-4.75 -0.56,-10.12 -4.55,-12.87 -1.67,-1.16 -4.06,-2.17 -6.32,-2.17 -3.02,0 -4.97,0.53 -7.34,2.14 -0.93,0.63 -2.21,1.91 -2.85,2.84 -1.16,1.67 -2.17,4.06 -2.17,6.32z"/>
   <path class="fil0" d="M27.9 0c-7.42,0 -14.48,2.92 -19.73,8.17 -5.25,5.25 -8.17,12.3 -8.17,19.73 0,7.43 2.93,14.48 8.18,19.73 5.25,5.25 12.3,8.17 19.72,8.17 7.42,0 14.48,-2.92 19.72,-8.17 5.25,-5.25 8.17,-12.3 8.17,-19.72 0,-7.42 -2.92,-14.48 -8.17,-19.73 -5.25,-5.25 -12.3,-8.17 -19.73,-8.17zm18.51 9.38c4.92,4.92 7.67,11.55 7.67,18.51 0,6.97 -2.74,13.59 -7.67,18.51 -4.93,4.92 -11.55,7.67 -18.51,7.67 -6.97,0 -13.59,-2.74 -18.52,-7.67 -4.93,-4.93 -7.66,-11.55 -7.66,-18.51 0,-6.97 2.74,-13.59 7.67,-18.52 4.92,-4.93 11.55,-7.66 18.51,-7.66 6.97,0 13.59,2.74 18.51,7.67z"/>
  </g>
 </g>
</svg>
